<svg width="280" height="200" viewBox="0 0 280 200" xmlns="http://www.w3.org/2000/svg"><title>HIW_04</title><g fill="#554740" fill-rule="evenodd"><path d="M233.9 146.957l-.217-1.03c-.165-.773-16.412-77.583-17.716-103.391l-.046-.909-3.94.139c-.397-2.352-1.252-3.997-2.559-4.873-1.453-.975-2.904-.616-2.938-.606-3.478.675-4.132 4.612-4.251 5.822l-5.978.21c-.37-2.533-1.246-4.284-2.613-5.2-1.453-.975-2.905-.616-2.939-.606-3.97.77-4.26 5.788-4.277 6.149l-6.095.214c-.388-2.409-1.25-4.087-2.576-4.976-1.453-.975-2.905-.614-2.938-.604-3.586.694-4.171 4.856-4.261 5.923l-5.801.203c-.384-2.446-1.25-4.147-2.589-5.044-1.451-.975-2.903-.614-2.937-.604-3.674.71-4.196 5.058-4.267 5.991l-5.936.208a.413.413 0 0 1-.003-.039c-.358-2.605-1.246-4.398-2.636-5.33-1.453-.975-2.904-.616-2.938-.606-4.032.781-4.27 5.954-4.279 6.173-.001.051.01.1.025.147l-6.091.214c-.374-2.502-1.247-4.237-2.604-5.147-1.454-.975-2.904-.614-2.938-.604-3.829.74-4.237 5.435-4.274 6.094l-6.277.22-.012-.103c-.43-2.593-1.364-4.36-2.782-5.256-1.48-.934-2.919-.533-2.952-.523-3.855.857-4.092 5.665-4.107 6.227l-5.928.208c-.43-2.593-1.364-4.36-2.78-5.255-1.48-.934-2.92-.533-2.953-.523-3.676.817-4.061 5.226-4.103 6.123l-6.154.216c-.472-2.233-1.358-3.784-2.65-4.6-1.48-.934-2.92-.533-2.954-.523-3.098.688-3.857 3.93-4.043 5.47l-8.691.318.029.79-.157-.038-20.893 80.752h2.69l-1.073 4.76h6.119l-2.259 13.38.533-.384a.757.757 0 0 0 .601.223l22.741-1.85a.755.755 0 0 0 .35-.131l13.477 18.965c0 .015-.003.028-.002.042a.924.924 0 0 0 .996.846l137.51-11.107.935-.074-.537-5.623 5.938-.468zm-2.242-1.676L93.804 156.17c-1.178-5.184-8.201-36.824-20.62-107.675l9.008-.329c-.035 1.05-.54 1.598-.857 1.84-.443-.334-.953-.487-1.456-.374-1.105.25-1.732 1.646-1.4 3.12.33 1.474 1.497 2.468 2.602 2.22.633-.143 1.103-.667 1.33-1.364 2.441-1.54 2.939-4.068 3-5.556l12.544-.44c-.169.628-.518.992-.76 1.177-.442-.333-.954-.486-1.456-.373-1.105.25-1.734 1.646-1.402 3.12.332 1.474 1.498 2.468 2.603 2.218.633-.142 1.104-.665 1.331-1.363 2.109-1.329 2.766-3.395 2.943-4.894l12.478-.438a2.135 2.135 0 0 1-.728 1.073c-.443-.332-.954-.485-1.458-.372-1.105.248-1.732 1.645-1.4 3.119.332 1.474 1.497 2.468 2.602 2.22.635-.144 1.105-.667 1.332-1.365 2.059-1.298 2.734-3.299 2.929-4.79l12.866-.45c-.175.684-.559 1.063-.818 1.25-.434-.345-.941-.512-1.447-.412-1.113.217-1.777 1.596-1.485 3.078.292 1.485 1.429 2.508 2.54 2.29.637-.125 1.122-.636 1.368-1.325 2.231-1.324 2.916-3.49 3.104-4.994l12.554-.441a2.122 2.122 0 0 1-.749 1.023c-.433-.345-.94-.513-1.447-.414-1.11.219-1.775 1.598-1.483 3.08.291 1.483 1.429 2.508 2.54 2.289.638-.124 1.121-.635 1.368-1.326 2.123-1.26 2.843-3.277 3.069-4.767l12.574-.441c-.162.747-.568 1.158-.84 1.351-.434-.343-.94-.51-1.447-.41-1.11.217-1.775 1.596-1.484 3.078.292 1.484 1.428 2.508 2.54 2.29.637-.125 1.122-.635 1.368-1.327 2.285-1.353 2.945-3.589 3.114-5.096l12.353-.432c-.152.79-.575 1.22-.856 1.42-.433-.344-.94-.512-1.446-.412-1.112.218-1.777 1.597-1.486 3.079.292 1.485 1.43 2.508 2.54 2.29.639-.125 1.122-.636 1.368-1.327 2.32-1.374 2.965-3.658 3.122-5.165l12.593-.44c-.182.648-.553 1.012-.804 1.194-.435-.344-.94-.512-1.448-.414-1.11.22-1.775 1.597-1.484 3.08.292 1.484 1.43 2.509 2.54 2.291.639-.126 1.122-.638 1.368-1.327 2.206-1.308 2.9-3.438 3.096-4.94l12.583-.44c-.132.86-.583 1.314-.874 1.525-.434-.345-.941-.512-1.447-.413-1.112.218-1.777 1.597-1.485 3.079.291 1.484 1.429 2.508 2.54 2.29.638-.125 1.121-.636 1.368-1.327 2.374-1.408 2.994-3.764 3.131-5.267l2.125-.075c1.526 25.076 15.563 92.573 17.487 101.742zM79.05 46.431c.1-.925.378-1.398.623-1.63.31-.297.628-.282.628-.282l.06.003.056-.008c.21-.034.39.011.569.14.445.324.744 1.063.918 1.672l-2.854.105zm15.822-.559c.013-1.376.362-2.006.659-2.287.31-.297.63-.286.63-.284l.06.005.056-.008a.716.716 0 0 1 .568.142c.633.457.975 1.76 1.073 2.324l-3.046.108zm15.76-.554c.001-.011.006-.021.006-.032 0-1.43.36-2.07.662-2.359.31-.296.63-.282.63-.282l.058.005.058-.01c.21-.033.39.012.569.142.654.476 1 1.863 1.084 2.39.003.014.004.025.008.038l-3.076.108zm16.142-.566c.052-1.366.42-1.983.722-2.256.316-.286.633-.265.638-.266l.056.006.058-.006a.715.715 0 0 1 .564.156c.588.451.894 1.653.994 2.26l-3.032.106zm14.998-.53l.003.004-.096.005.093-.009zm.852-.025a.476.476 0 0 0 .032-.144c.04-1.427.418-2.06.727-2.339.316-.286.631-.266.638-.266l.056.007.058-.008a.726.726 0 0 1 .566.156c.64.493.948 1.89 1.018 2.42.005.022.006.043.01.066l-3.105.108zm15.824-.554c.066-1.292.419-1.888.715-2.154.316-.287.633-.266.638-.266l.057.006.058-.008a.726.726 0 0 1 .565.157c.554.427.859 1.527.976 2.16l-3.009.105zm15.592-.547c.074-1.245.42-1.825.71-2.086.316-.285.634-.265.638-.265l.058.006.057-.006a.714.714 0 0 1 .565.156c.537.41.836 1.45.962 2.09l-2.99.105zm15.874-.555c.042-1.408.416-2.037.723-2.314.316-.285.632-.267.638-.265l.058.008.058-.008a.724.724 0 0 1 .564.156c.606.465.912 1.728 1.002 2.315l-3.043.108zm15.8-.554c.087-1.175.422-1.73.704-1.983.316-.287.633-.266.638-.266l.058.006.056-.008a.726.726 0 0 1 .566.156c.509.392.805 1.345.94 1.991l-2.962.104zm.973-4.798c.011-.003 1.108-.274 2.22.47 1.164.78 1.915 2.359 2.234 4.677.018.163.391 3.992-2.764 5.8-.12.022-.438.056-.69-.105-.201-.13-.336-.376-.394-.696-.004-.034-.08-.862.733-1.073.79-.314 2.15-1.584 1.64-4.1-.03-.22-.307-2.186-1.367-3.001a1.646 1.646 0 0 0-1.201-.346 1.851 1.851 0 0 0-1.265.472c-.483.417-.802 1.07-.958 1.944-.691-.04-1.165-.211-1.463-.393.377-1.408 1.252-3.257 3.275-3.649zm-15.78.224c.01-.003 1.11-.274 2.22.472 1.162.78 1.915 2.357 2.234 4.677.017.162.391 3.99-2.766 5.799-.118.02-.437.056-.688-.106-.202-.13-.337-.374-.395-.695-.003-.035-.079-.862.733-1.074.791-.313 2.149-1.58 1.64-4.098-.029-.223-.306-2.186-1.366-3.001a1.653 1.653 0 0 0-1.202-.347 1.847 1.847 0 0 0-1.264.472c-.485.417-.803 1.071-.959 1.943-.694-.039-1.166-.213-1.466-.395.377-1.404 1.249-3.252 3.278-3.647zm-15.887.783c.01-.003 1.108-.274 2.22.472 1.163.78 1.915 2.357 2.234 4.675.017.164.391 3.992-2.766 5.8-.118.02-.437.056-.688-.106-.201-.13-.337-.375-.395-.69-.008-.09-.054-.874.735-1.078.79-.314 2.149-1.582 1.638-4.1-.027-.22-.306-2.186-1.366-3.001a1.651 1.651 0 0 0-1.202-.347 1.847 1.847 0 0 0-1.264.472c-.483.418-.802 1.072-.959 1.945-.692-.039-1.166-.213-1.464-.395.375-1.406 1.248-3.254 3.277-3.647zm-15.588.479c.012-.004 1.109-.274 2.22.47 1.163.78 1.916 2.358 2.235 4.678.003.039.404 3.982-2.766 5.798-.115.02-.43.058-.683-.102-.205-.129-.342-.375-.4-.699-.005-.035-.08-.862.733-1.073.791-.314 2.149-1.582 1.64-4.1-.029-.22-.308-2.186-1.366-3a1.665 1.665 0 0 0-1.203-.347 1.86 1.86 0 0 0-1.265.472c-.483.419-.802 1.071-.957 1.944-.693-.038-1.165-.21-1.463-.393.377-1.408 1.252-3.257 3.275-3.648zm-15.78.225c.011-.003 1.108-.274 2.22.472 1.163.778 1.915 2.355 2.234 4.675.018.163.392 3.992-2.766 5.8-.116.02-.436.056-.688-.106-.201-.13-.336-.375-.394-.695-.005-.036-.08-.862.733-1.075.79-.312 2.149-1.58 1.638-4.098-.027-.22-.306-2.186-1.365-3.001a1.65 1.65 0 0 0-1.203-.347 1.862 1.862 0 0 0-1.264.472c-.484.418-.803 1.072-.957 1.943-.695-.038-1.168-.21-1.466-.394.375-1.405 1.248-3.253 3.278-3.646zm-15.887.781c.011-.003 1.108-.274 2.22.472 1.163.78 1.915 2.357 2.234 4.677.018.162.392 3.99-2.766 5.797-.116.023-.436.058-.687-.104-.202-.13-.337-.374-.395-.693-.008-.089-.055-.87.733-1.076.79-.314 2.149-1.58 1.64-4.1-.03-.22-.308-2.186-1.366-3a1.665 1.665 0 0 0-1.204-.347 1.856 1.856 0 0 0-1.263.472c-.485.419-.802 1.071-.958 1.944-.694-.039-1.166-.213-1.466-.395.377-1.404 1.248-3.254 3.278-3.647zm-16.272.427c.012-.005 1.099-.304 2.231.41 1.184.747 1.979 2.303 2.36 4.613.023.163.501 3.979-2.603 5.872-.119.024-.436.07-.693-.086-.204-.124-.344-.365-.414-.681-.01-.087-.077-.87.704-1.097.783-.335 2.106-1.638 1.528-4.142-.034-.22-.366-2.176-1.449-2.962a1.65 1.65 0 0 0-1.211-.314c-.19-.008-.736.037-1.25.506-.472.431-.773 1.093-.904 1.97-.694-.02-1.173-.18-1.477-.355.338-1.416 1.16-3.286 3.178-3.734zm-15.769.656c.011-.003 1.1-.305 2.233.41 1.182.748 1.978 2.304 2.36 4.614.022.163.5 3.98-2.605 5.872-.12.024-.435.07-.691-.085-.206-.124-.346-.366-.414-.682-.01-.088-.077-.87.704-1.097.781-.335 2.105-1.638 1.525-4.141-.033-.221-.365-2.178-1.446-2.963a1.658 1.658 0 0 0-1.212-.314c-.2-.006-.736.037-1.25.506-.473.432-.773 1.094-.905 1.97-.694-.021-1.173-.18-1.476-.354.337-1.416 1.159-3.287 3.177-3.736zm-15.86 1.216c.012-.003 1.101-.304 2.233.41 1.184.748 1.979 2.304 2.36 4.615.023.162.501 3.978-2.604 5.871-.118.024-.437.07-.692-.085-.206-.124-.346-.366-.414-.682-.01-.088-.077-.87.704-1.097.782-.335 2.106-1.638 1.526-4.141-.034-.22-.366-2.178-1.447-2.963a1.658 1.658 0 0 0-1.211-.314 1.848 1.848 0 0 0-1.25.506c-.474.432-.773 1.094-.905 1.97-.695-.02-1.173-.18-1.476-.354.337-1.416 1.16-3.286 3.177-3.736zm3.529 104.808l-12.524-18.695 9.187-.632 3.337 19.327zm-13.513-20.17l-.092-.136-12.331 9.918L68.12 58.34l11.672 67.599-9.912.68zm-22.01.22l8.144-31.472-7.095 31.472H47.87zm1.555 4.76l17.722-78.615-13.271 78.615h-4.451zM53.88 144.7l14.5-10.46 6.232 8.772-20.732 1.688zm14.857-12.617l-15.237 10.991 1.773-10.512c.018-.063.04-.124.04-.194 0-.006-.004-.011-.004-.017l6.007-35.584-5.91 43.258 14.038-11.29 14.682 21.917 1.398-.559L68.79 53.168l-.115.003.111-.656 19.807 107.511-19.855-27.943zm21.844 30.25L69.635 48.623l1.685-.06c6.518 37.194 11.554 63.614 15.043 81.099l5.5 29.721 134.385-10.47.232 2.443-135.898 10.977z"/><path d="M93.358 69.014c.072.182.177.374.31.579.136.203.307.394.518.573.169.142.398.276.688.403.29.127.647.179 1.068.155.422-.025.75-.115.984-.271.235-.156.404-.313.506-.469a1.53 1.53 0 0 0 .248-.557c.045-.198.067-.382.069-.553a2.317 2.317 0 0 0-.037-.457 24.892 24.892 0 0 0-.053-.27l-1.389-6.164a.834.834 0 0 0-.32-.49.813.813 0 0 0-.555-.179.591.591 0 0 0-.46.235.598.598 0 0 0-.095.514l1.392 6.186.01.047.022.124a1.515 1.515 0 0 1-.003.448.463.463 0 0 1-.086.208.879.879 0 0 1-.134.127c-.07.06-.21.095-.417.106-.191.011-.332-.006-.423-.053a.772.772 0 0 1-.17-.105.757.757 0 0 1-.177-.198 2.6 2.6 0 0 1-.133-.243 1.166 1.166 0 0 1-.08-.222l-.035-.16a1.273 1.273 0 0 0-.145-.374 1.07 1.07 0 0 0-.245-.254c-.101-.077-.241-.111-.415-.102-.176.01-.306.052-.395.123a.612.612 0 0 0-.187.243.655.655 0 0 0-.072.327l.056.248c.03.134.08.292.155.475M98.812 61.84l.005.024.003.01.166 7.88a.788.788 0 0 0 .223.53.86.86 0 0 0 .526.275.803.803 0 0 0 .147.003.59.59 0 0 0 .41-.185.558.558 0 0 0 .154-.42l-.02-1.215 1.278-.072.52 1.187a.921.921 0 0 0 .348.393.803.803 0 0 0 .483.134.546.546 0 0 0 .13-.02c.19-.05.32-.16.39-.325a.668.668 0 0 0-.019-.543l-3.34-7.7a.39.39 0 0 0-.047-.105c-.002-.008-.005-.011-.008-.011-.005 0-.007-.003-.008-.011l-.004-.012a.595.595 0 0 0-.145-.16l-.003-.01-.014-.012-.015-.01-.014-.012-.015-.011-.013-.012-.016-.011-.014-.011a.037.037 0 0 0-.026-.01.585.585 0 0 0-.192-.098l-.011.001c-.01-.008-.02-.01-.028-.01a.503.503 0 0 0-.114-.023c-.032-.002-.07-.007-.111-.012l-.024.002h-.024l-.012.001-.103.025a.406.406 0 0 0-.1.033.035.035 0 0 0-.022.015h-.011a.375.375 0 0 0-.144.116l-.02.013-.01.013-.01.011-.008.013-.01.013-.01.013.004.01c-.008.003-.012.004-.012.007.002.005-.003.007-.01.007l.002.011a.38.38 0 0 0-.069.17l.002.014c.003.006.001.011-.003.011s-.005.005-.004.013a.028.028 0 0 1-.006.024l.003.011.002.013c.003.008.001.012-.004.012-.003 0-.004.004-.003.012zm2.286 5.431l-.704.04-.032-1.752.736 1.712zM102.669 61.527l.006.024.002.011-.008.013.005.023.003.013.008.035.01.047 1.754 7.789c.043.196.15.36.32.49s.355.188.553.176a.585.585 0 0 0 .557-.747l-.986-4.383 3.089 4.54c.01.007.014.015.016.023a.067.067 0 0 0 .017.023l.004.011.014.012c.002.008.007.01.015.01l.001.012c.076.084.165.155.266.213.008-.002.013.001.013.005.001.004.006.004.014.004h.012c.001.008.006.012.014.012.01.006.02.011.026.01.003.007.006.012.016.01h.011c.004.009.007.012.015.012.008-.002.029.005.064.02l.024-.002.004.013.048-.004c.002.007.005.012.014.012l.012-.002.024-.002c.026.008.061.01.11.007a.577.577 0 0 0 .14-.02.543.543 0 0 0 .166-.067l.019-.026h.011c.008-.002.011-.005.011-.008-.001-.003.002-.006.01-.006l.01-.013c.008 0 .011-.004.01-.013.007 0 .014-.005.02-.012l.018-.025h.013l.02-.026.017-.026.018-.024c.006-.008.01-.016.008-.024h.011c-.002-.008 0-.013.003-.013.005 0 .005-.003.003-.011.009-.002.012-.005.01-.013-.001-.008.002-.013.01-.013l-.003-.011.01-.013c.006-.008.007-.016.006-.024l.01-.012c-.002-.008.001-.013.007-.013l-.001-.01c-.002-.01 0-.014.003-.015.005 0 .005-.004.003-.012-.001-.006-.001-.013.002-.017.003-.004.005-.01.003-.018-.003-.008-.002-.015.002-.018a.032.032 0 0 0 .001-.018c-.001-.008-.001-.012.004-.012.003 0 .004-.005.003-.012l-.003-.013c-.002-.008.001-.016.006-.024l-.002-.011-.006-.024-.002-.011.01-.013-.006-.023-.002-.013-.008-.034-.011-.048-1.753-7.79a.83.83 0 0 0-.322-.488.807.807 0 0 0-.553-.178.583.583 0 0 0-.46.234.598.598 0 0 0-.097.512l.987 4.385-3.09-4.541c0-.008-.004-.013-.01-.018-.004-.003-.007-.011-.012-.027h-.011c-.002-.008-.008-.016-.018-.023l-.002-.011c-.008 0-.012-.008-.017-.024-.008 0-.013-.003-.015-.011-.001-.008-.006-.012-.014-.012a.046.046 0 0 1-.018-.022l-.029-.023-.029-.02-.029-.023-.003-.012c-.008 0-.013-.001-.013-.006-.002-.003-.005-.005-.013-.005l-.003-.013c-.008.002-.011 0-.013-.005-.002-.003-.005-.004-.013-.004l-.003-.013c-.008.001-.016-.002-.026-.01l-.013.002-.014-.012-.015-.01-.014-.012c-.008 0-.012-.002-.013-.005-.002-.005-.007-.005-.015-.005h-.011c-.002-.008-.01-.011-.026-.01l-.003-.01c-.016 0-.024-.004-.026-.012h-.013c-.008.002-.017-.002-.027-.01a.056.056 0 0 1-.037-.01c-.016 0-.024-.003-.026-.01l-.013.001h-.024c-.008.002-.013-.003-.014-.011l-.025.001-.01.002-.025.002-.015-.012h-.012l-.036.002a1.002 1.002 0 0 0-.175.022h-.013a.396.396 0 0 0-.153.07l-.018.024-.013.001c-.008 0-.011.002-.01.007 0 .003-.003.005-.01.005-.009.001-.012.005-.01.014h-.012l-.02.024-.019.026h-.01c-.007.01-.014.013-.022.013l.003.011c-.006.01-.012.015-.02.015l.001.013-.018.024a.036.036 0 0 0-.008.024h-.01c0 .008 0 .013-.004.013-.003 0-.005.003-.003.011h-.012a.03.03 0 0 1-.006.024l.002.013-.01.013c.001.008.001.011-.002.011-.005.002-.006.005-.003.013l-.02.024.002.013c.004.007.002.012-.003.012-.003 0-.005.004-.003.013.001.006.001.012-.002.017-.003.005-.003.01-.001.018a.029.029 0 0 1-.002.018c-.005.005-.005.01-.003.019.001.006.001.01-.003.011-.004 0-.005.003-.004.012l.004.012a.03.03 0 0 1-.007.025l.002.01M139.7 68.546c.044.196.15.359.32.488a.82.82 0 0 0 .555.179c.206-.013.36-.09.466-.236a.605.605 0 0 0 .09-.512l-.61-2.711 1.6-.09c.207-.012.361-.089.466-.234a.605.605 0 0 0 .09-.512.83.83 0 0 0-.315-.49.807.807 0 0 0-.56-.179l-1.599.09-.669-2.968 2.28-.128a.599.599 0 0 0 .464-.23c.108-.14.14-.314.093-.517a.83.83 0 0 0-.32-.49.815.815 0 0 0-.554-.179l-2.995.17a.585.585 0 0 0-.558.747l1.756 7.802M145.416 68.223a.83.83 0 0 0 .322.49c.17.129.353.189.553.177l2.923-.164a.585.585 0 0 0 .558-.747.833.833 0 0 0-.322-.489.81.81 0 0 0-.555-.178l-2.206.124-.452-2.003 1.528-.085a.592.592 0 0 0 .557-.747.834.834 0 0 0-.32-.49.814.814 0 0 0-.555-.177l-1.527.085-.67-2.969 2.209-.124a.595.595 0 0 0 .462-.23c.11-.142.142-.314.095-.517a.825.825 0 0 0-.322-.49.807.807 0 0 0-.553-.177l-2.924.164a.575.575 0 0 0-.46.235.596.596 0 0 0-.097.512l1.756 7.8M151.006 67.933a.83.83 0 0 0 .322.49c.17.13.354.189.552.177l.013-.001 1.706-.095c.303-.016.574-.111.812-.284.239-.172.429-.414.569-.725.124-.269.198-.565.222-.889a3.477 3.477 0 0 0-.082-1.016 3.936 3.936 0 0 0-.981-1.83 2.896 2.896 0 0 0-.408-.36c.108-.235.173-.5.19-.79a3.117 3.117 0 0 0-.074-.898 3.572 3.572 0 0 0-.335-.9 3.359 3.359 0 0 0-.546-.756 2.474 2.474 0 0 0-.797-.594 1.811 1.811 0 0 0-.85-.174l-1.502.085h-.013a.587.587 0 0 0-.556.748l1.758 7.812zm1.899-3.508c.098.06.197.145.295.26.096.112.192.254.28.418.09.166.16.356.206.567a1.841 1.841 0 0 1-.035 1.023.717.717 0 0 1-.17.29c-.07.068-.136.103-.199.108l-1.004.055-.618-2.745 1.003-.057a.475.475 0 0 1 .242.08zm-1.266-3.723c.024 0 .063.015.119.047.055.032.124.092.208.174.113.104.206.235.28.39a2.155 2.155 0 0 1 .22.966.9.9 0 0 1-.102.411.767.767 0 0 1-.126.193c-.04.037-.072.057-.097.058l-.799.045-.504-2.239.8-.045zM184.492 59.1c.003.007.001.012-.003.012s-.005.005-.004.011l.004.013.003.012.006.035.008.035 1.756 7.802c.045.197.152.36.322.49.17.129.355.188.553.177a.59.59 0 0 0 .462-.235.6.6 0 0 0 .095-.512l-1.092-4.856 1.081 1.42a.83.83 0 0 0 .43.357c.106.042.211.06.314.053h.024l.012-.001h.013a.587.587 0 0 0 .281-.089.515.515 0 0 0 .261-.396l.424-1.503 1.092 4.853c.045.199.152.361.322.49.17.13.355.19.555.179a.59.59 0 0 0 .46-.235.598.598 0 0 0 .095-.514l-1.754-7.8-.008-.036-.01-.035-.001-.011-.003-.013a.046.046 0 0 1-.018-.023l-.002-.011-.005-.024c-.01-.007-.016-.018-.019-.034a2.595 2.595 0 0 0-.079-.127.04.04 0 0 1-.016-.023l-.014-.011c-.002-.008-.007-.011-.015-.011a.055.055 0 0 0-.018-.023l-.003-.013-.029-.02a.353.353 0 0 0-.116-.091c-.005-.014-.014-.023-.029-.02l-.029-.023a.044.044 0 0 0-.027-.012l-.015-.011-.014-.011c-.008.001-.018-.002-.028-.01-.01-.008-.02-.01-.037-.01l-.003-.01a.037.037 0 0 1-.026-.012h-.013c-.01-.007-.019-.01-.025-.008a.035.035 0 0 1-.02-.007c-.006-.003-.011-.006-.02-.004l-.026-.012-.012.002-.024.001-.014-.01h-.049a.065.065 0 0 0-.038-.009l-.034.003-.037.002-.036.003h-.024l-.024.002c-.008 0-.011.005-.008.011l-.024.002-.013.001-.024.002c-.005.008-.016.013-.034.013a.134.134 0 0 1-.055.02.102.102 0 0 0-.053.035h-.011c.001.008-.005.012-.021.012.001.009-.002.013-.01.013l-.01.013c-.008 0-.014.005-.02.013h-.012l-.02.026a.218.218 0 0 0-.073.1l-.018.024-.02.026c-.006.008-.007.016-.006.024l-.01.011c.002.008-.001.013-.01.013a.028.028 0 0 1-.006.024c-.006.008-.008.02-.003.037l-.849 2.995-2.158-2.826c-.002-.008-.005-.014-.01-.017a.032.032 0 0 1-.01-.018c-.01-.008-.016-.015-.017-.024l-.015-.01-.014-.011c-.002-.008-.005-.011-.008-.011-.005 0-.008-.004-.01-.012l-.03-.022-.028-.023a.32.32 0 0 0-.118-.088h-.01l-.03-.023a.051.051 0 0 0-.027-.01l-.015-.01c-.006 0-.011-.004-.013-.012-.016.001-.025-.002-.027-.01h-.011a.226.226 0 0 0-.08-.026.303.303 0 0 1-.09-.024l-.024.002h-.011l-.024.001a.047.047 0 0 0-.026-.01h-.013l-.022.002-.037.002-.036.002-.035.003h-.013c-.008 0-.015.005-.021.013h-.011l-.025.001-.012.002-.008.013h-.025l-.013.001a.025.025 0 0 1-.02.013.021.021 0 0 0-.017.007c-.003.005-.01.006-.016.008-.008 0-.014.001-.016.006-.005.003-.01.007-.018.007-.006.008-.012.013-.02.013l-.01.012c-.008 0-.015.005-.021.013l-.021.013-.01.013c-.008 0-.01.005-.01.011a.041.041 0 0 0-.02.015h-.012c.002.008 0 .011-.004.011s-.004.005-.002.013l-.013.002-.018.024c-.012.016-.022.034-.032.05a.349.349 0 0 1-.03.05l-.02.024.003.011c-.006.01-.008.018-.006.026l-.01.011-.01.013c.004.008.002.011 0 .011-.006 0-.007.005-.006.013a.32.32 0 0 0-.017.132c.001.008 0 .015-.004.018a.026.026 0 0 0 0 .02l.005.022.002.011M192.537 58.708l.004.024.004.011.166 7.88a.774.774 0 0 0 .222.53.86.86 0 0 0 .527.275.803.803 0 0 0 .146.003.595.595 0 0 0 .411-.184.563.563 0 0 0 .153-.42l-.02-1.216 1.277-.073.522 1.189a.916.916 0 0 0 .347.391.803.803 0 0 0 .484.134.53.53 0 0 0 .127-.02.549.549 0 0 0 .393-.325.668.668 0 0 0-.02-.543l-3.339-7.7a.53.53 0 0 0-.056-.116c-.005 0-.008-.003-.01-.011l-.001-.011a.595.595 0 0 0-.145-.16l-.004-.011-.014-.011-.015-.012-.014-.01-.015-.012-.014-.011-.015-.01-.014-.013a.047.047 0 0 0-.027-.01.545.545 0 0 0-.19-.096h-.012c-.011-.008-.02-.012-.027-.01a.609.609 0 0 0-.115-.024c-.032-.002-.069-.007-.11-.011l-.025.001h-.024l-.011.002c-.037.01-.073.018-.103.024a.44.44 0 0 0-.102.034c-.008.001-.014.006-.02.014h-.012a.38.38 0 0 0-.145.116l-.02.013-.01.013-.009.013-.01.013-.007.011-.01.013.002.011c-.007.002-.012.004-.01.007 0 .005-.003.006-.011.006l.003.013a.393.393 0 0 0-.071.17l.003.012c.002.008 0 .011-.003.011s-.005.005-.003.013a.028.028 0 0 1-.007.024l.002.012.003.013c.002.008.002.01-.003.01-.003.003-.005.006-.003.014zm2.286 5.432l-.706.04-.03-1.753.736 1.713zM198.144 66.34c.045.197.153.36.322.49a.82.82 0 0 0 .555.177.587.587 0 0 0 .555-.747l-.609-2.711.716-.04 1.999 2.918c.093.13.208.229.343.298a.82.82 0 0 0 .407.09.708.708 0 0 0 .274-.074.573.573 0 0 0 .302-.412.682.682 0 0 0-.142-.541l-1.891-2.77c.069-.083.137-.173.204-.273.066-.1.126-.21.179-.332.113-.285.179-.591.198-.918a3.701 3.701 0 0 0-.088-1.01 4.124 4.124 0 0 0-.967-1.879 3.011 3.011 0 0 0-.89-.684 1.888 1.888 0 0 0-.929-.205l-1.73.098a.584.584 0 0 0-.46.236.596.596 0 0 0-.097.512l1.75 7.777zm.857-7.207c.039-.003.098.02.177.066.08.048.176.127.29.24.139.152.257.327.353.524.097.198.17.4.214.602.047.205.066.406.058.606-.008.2-.045.38-.114.543a.918.918 0 0 1-.172.278c-.057.055-.103.084-.144.086l-1.015.056-.662-2.945 1.015-.056zM106.008 115.642a.658.658 0 0 0-.02-.541l-3.339-7.7a.42.42 0 0 0-.048-.105c-.002-.008-.005-.013-.008-.013-.005.002-.008-.003-.01-.01l-.001-.012a.589.589 0 0 0-.145-.158l-.003-.012-.015-.012-.014-.01-.015-.013-.014-.01-.015-.01-.014-.012-.015-.011c-.01-.007-.018-.012-.026-.01a.566.566 0 0 0-.191-.097h-.012a.593.593 0 0 0-.142-.034l-.109-.01h-.048l-.013.002-.103.025a.44.44 0 0 0-.102.033c-.008 0-.014.005-.02.015h-.012a.375.375 0 0 0-.143.116l-.021.013-.01.013-.008.01-.01.014-.01.013-.009.013.003.01c-.008 0-.011.004-.011.007.002.005-.003.007-.01.007l.002.013a.387.387 0 0 0-.071.169l.003.013c.002.008 0 .01-.003.01-.003.003-.005.006-.003.014a.028.028 0 0 1-.007.024l.004.011.003.012c.001.01 0 .012-.005.012-.003 0-.005.005-.002.013l.004.023.003.011.166 7.88a.79.79 0 0 0 .222.53.85.85 0 0 0 .673.28.587.587 0 0 0 .411-.186.552.552 0 0 0 .153-.42l-.02-1.215 1.278-.072.52 1.187a.941.941 0 0 0 .349.393.803.803 0 0 0 .483.134.56.56 0 0 0 .129-.02c.19-.051.32-.16.391-.327zm-3.181-2.725l-.033-1.755.737 1.714-.704.04zM110.238 110.22a3.622 3.622 0 0 0-.088-1.009c-.078-.346-.2-.68-.364-1a3.868 3.868 0 0 0-.601-.867 2.92 2.92 0 0 0-.893-.696 1.867 1.867 0 0 0-.927-.204l-1.708.095a.646.646 0 0 0-.358.127.59.59 0 0 0-.193.268.634.634 0 0 0-.014.365l1.749 7.778c.045.196.151.359.322.49.17.128.355.188.554.177a.59.59 0 0 0 .461-.235.595.595 0 0 0 .095-.513l-.612-2.72 1.002-.057c.303-.018.573-.12.813-.31.24-.188.427-.444.564-.77.113-.286.18-.59.198-.92zm-1.575.22a.915.915 0 0 1-.174.278c-.056.056-.103.083-.143.087l-1.004.056-.662-2.946 1.002-.057c.04-.003.1.02.179.066.079.049.175.128.29.24a2.702 2.702 0 0 1 .567 1.128c.046.203.063.406.051.604-.011.201-.046.38-.106.545zM116.39 115.143a.802.802 0 0 0 .408.09.649.649 0 0 0 .272-.074.563.563 0 0 0 .302-.41c.035-.186-.013-.367-.14-.542l-1.893-2.77c.07-.083.138-.175.204-.275.068-.098.126-.21.179-.332a2.9 2.9 0 0 0 .2-.916 3.69 3.69 0 0 0-.089-1.01 4.108 4.108 0 0 0-.966-1.879 2.998 2.998 0 0 0-.891-.684 1.873 1.873 0 0 0-.93-.205l-1.73.097a.587.587 0 0 0-.556.747l1.75 7.778c.045.196.151.36.322.49.17.128.354.188.553.177a.585.585 0 0 0 .557-.748l-.61-2.71.716-.04 1.998 2.92c.093.13.21.228.344.296zm-2.045-5.01a.938.938 0 0 1-.173.277c-.056.056-.104.084-.145.087l-1.013.056-.664-2.946 1.015-.056c.039-.002.098.019.177.066.08.048.178.129.29.241.14.152.258.326.355.524.096.196.167.398.212.602.047.205.066.406.06.604-.008.2-.047.382-.114.545zM152.565 114.083c.17.13.353.188.553.177a.585.585 0 0 0 .557-.747l-1.756-7.802-.008-.034-.008-.035-.003-.013-.003-.011a.04.04 0 0 1-.017-.025l-.003-.01-.005-.023a.06.06 0 0 1-.019-.034 2.376 2.376 0 0 0-.077-.128c-.01-.008-.016-.016-.018-.022l-.014-.011c-.002-.01-.007-.012-.015-.012a.053.053 0 0 0-.016-.024l-.003-.011-.03-.023a.37.37 0 0 0-.117-.088c-.003-.015-.013-.024-.029-.023l-.029-.022a.051.051 0 0 0-.027-.01l-.013-.011-.015-.012a.047.047 0 0 1-.027-.01c-.01-.007-.023-.01-.039-.009l-.003-.013c-.006.002-.016-.001-.026-.01h-.011a.056.056 0 0 0-.027-.01c-.008 0-.015 0-.02-.006-.005-.001-.011-.004-.019-.004l-.026-.01h-.013l-.024.003-.014-.011h-.025l-.022.001a.069.069 0 0 0-.039-.01l-.035.004-.037.002-.036.001-.022.002-.024.001c-.008 0-.012.005-.01.012l-.024.001h-.011l-.025.002c-.006.008-.017.013-.033.014a.173.173 0 0 1-.057.021.082.082 0 0 0-.051.033l-.012.001c.002.008-.006.012-.022.013.001.007 0 .011-.01.013l-.008.011c-.01 0-.014.005-.02.015h-.014l-.02.024a.215.215 0 0 0-.072.1l-.019.026-.018.024c-.006.008-.01.016-.008.024l-.01.013c.004.008-.001.011-.007.011.001.01 0 .016-.007.026-.006.008-.008.02-.005.035l-.847 2.997-2.159-2.828c-.003-.008-.004-.012-.01-.017-.006-.003-.009-.01-.01-.016-.01-.008-.017-.016-.017-.025l-.016-.01-.013-.01c-.003-.009-.006-.013-.01-.013s-.006-.004-.007-.012l-.031-.022-.027-.021a.354.354 0 0 0-.118-.09l-.013.001-.027-.022c-.012-.007-.02-.012-.028-.01l-.014-.011c-.008 0-.013-.003-.015-.012-.016 0-.025-.003-.027-.01h-.011a.23.23 0 0 0-.078-.025.385.385 0 0 1-.091-.026l-.023.002-.013.001h-.024a.043.043 0 0 0-.026-.01l-.011.002h-.024l-.036.004-.037.001-.035.002-.011.001a.028.028 0 0 0-.021.012l-.013.001-.024.002h-.012l-.01.013-.024.001h-.01c-.007.01-.014.013-.022.013-.008 0-.014.004-.016.008a.026.026 0 0 1-.018.007c-.008 0-.013.003-.016.008-.003.003-.01.005-.016.006-.006.008-.014.013-.022.013l-.008.012a.04.04 0 0 0-.023.014l-.021.013-.01.013c-.006 0-.01.005-.008.011a.025.025 0 0 0-.02.013l-.014.002c.002.008.002.01-.003.01s-.005.006-.003.014h-.011l-.02.026a.278.278 0 0 0-.03.05.401.401 0 0 1-.03.048l-.02.026.003.01c-.006.009-.008.017-.006.025l-.01.013-.01.013c.002.006 0 .011-.003.011-.005 0-.005.005-.003.013a.32.32 0 0 0-.02.132c.004.008.002.013-.001.018-.003.005-.003.01-.002.017l.007.025.001.01c.002.009 0 .012-.003.012-.005.002-.005.005-.003.013l.002.011.003.013.008.036.008.034 1.754 7.801c.045.197.153.36.322.49.171.13.355.188.555.177a.583.583 0 0 0 .46-.234.605.605 0 0 0 .097-.513l-1.094-4.856 1.081 1.42c.103.169.246.288.432.357a.705.705 0 0 0 .314.055l.024-.002h.011l.012-.001a.592.592 0 0 0 .283-.087.524.524 0 0 0 .261-.398l.424-1.503 1.092 4.855c.045.197.151.361.322.49M157.657 113.54a.927.927 0 0 0 .347.393.819.819 0 0 0 .484.134.53.53 0 0 0 .128-.02.56.56 0 0 0 .393-.327.677.677 0 0 0-.02-.54l-3.34-7.703a.423.423 0 0 0-.057-.116c-.005.002-.006-.003-.008-.01l-.003-.012a.54.54 0 0 0-.145-.158l-.002-.011-.014-.013-.015-.01-.014-.013-.016-.01-.015-.012-.013-.01-.016-.011c-.008-.008-.018-.012-.026-.01a.585.585 0 0 0-.191-.098l-.012.001a.58.58 0 0 0-.14-.034c-.034-.001-.07-.006-.113-.01h-.059a.821.821 0 0 1-.102.025.478.478 0 0 0-.101.036c-.008 0-.015.004-.023.014h-.011a.375.375 0 0 0-.143.116l-.021.013-.01.013-.01.011-.008.013-.01.011-.01.015.004.011c-.008 0-.011.002-.01.006 0 .005-.004.007-.012.007l.004.011a.364.364 0 0 0-.07.173l.001.01c.003.007.002.012-.001.012-.005 0-.007.005-.005.013a.028.028 0 0 1-.007.024l.004.011.001.012c.003.01.002.013-.001.013-.005 0-.007.003-.004.012l.005.023.002.011.167 7.88a.78.78 0 0 0 .221.53.859.859 0 0 0 .527.275.679.679 0 0 0 .146.003.589.589 0 0 0 .411-.184.562.562 0 0 0 .155-.42l-.021-1.216 1.277-.071.522 1.187zm-1.831-2.545l-.033-1.755.738 1.714-.705.04zM161.536 113.603a.815.815 0 0 0 .56.177.585.585 0 0 0 .557-.747l-.869-3.865.635-3.724a.717.717 0 0 0-.134-.542.87.87 0 0 0-.478-.354.712.712 0 0 0-.548.035.533.533 0 0 0-.295.406l-.36 2.156-1.321-2.062a.853.853 0 0 0-.47-.361.72.72 0 0 0-.55.024.543.543 0 0 0-.31.401.682.682 0 0 0 .123.541l2.275 3.56.871 3.865a.84.84 0 0 0 .314.49M197.19 110.611a8.235 8.235 0 0 0-.054-.272l-1.387-6.163a.826.826 0 0 0-.32-.488.813.813 0 0 0-.555-.18.587.587 0 0 0-.556.748l1.402 6.235a1.515 1.515 0 0 1 .02.572.463.463 0 0 1-.086.207.993.993 0 0 1-.134.126c-.07.061-.211.097-.417.108-.192.011-.332-.007-.424-.053a.772.772 0 0 1-.169-.105.74.74 0 0 1-.177-.2 2.578 2.578 0 0 1-.134-.241 1.166 1.166 0 0 1-.079-.223 5.552 5.552 0 0 1-.035-.16 1.273 1.273 0 0 0-.145-.373 1.07 1.07 0 0 0-.245-.255c-.102-.077-.242-.11-.416-.101-.175.01-.306.052-.394.122a.612.612 0 0 0-.187.244.655.655 0 0 0-.073.327l.057.248a3.275 3.275 0 0 0 .466 1.054c.134.202.305.392.516.573.168.142.398.275.688.403.29.127.646.178 1.068.154.422-.024.75-.114.984-.27.236-.157.403-.313.506-.47.121-.173.205-.358.248-.557.045-.198.068-.381.07-.552a2.306 2.306 0 0 0-.037-.458M202.892 111.915c.122-.176.206-.361.25-.56.043-.196.067-.38.069-.55a2.244 2.244 0 0 0-.036-.453l-.053-.266-1.385-6.15a.83.83 0 0 0-.321-.49.803.803 0 0 0-.554-.177.583.583 0 0 0-.46.233.605.605 0 0 0-.098.514l1.387 6.164.004.01.008.036c.016.071.03.189.043.356a.654.654 0 0 1-.108.435.826.826 0 0 1-.135.121c-.073.056-.211.09-.417.102-.184.01-.32-.008-.413-.055a1.282 1.282 0 0 1-.178-.103.709.709 0 0 1-.18-.198 1.804 1.804 0 0 1-.125-.239 1.298 1.298 0 0 1-.074-.224l-.037-.164-.007-.023-1.38-6.14a.838.838 0 0 0-.322-.489.818.818 0 0 0-.554-.178.587.587 0 0 0-.556.747l1.367 6.081.065.29c.032.137.085.293.161.467.076.176.177.358.304.551.13.192.29.37.489.534.169.14.397.275.69.402.289.128.645.178 1.067.155.422-.024.75-.114.984-.27.236-.157.403-.313.505-.47M209.725 111.505l-.006-.024-.002-.011.008-.013-.005-.022-.001-.013-.01-.034-.01-.049-1.752-7.788a.837.837 0 0 0-.323-.49.818.818 0 0 0-.552-.177.584.584 0 0 0-.46.235.601.601 0 0 0-.097.512l.985 4.384-3.086-4.54c-.003-.008-.007-.014-.011-.018-.005-.003-.008-.013-.013-.029l-.012.002a.035.035 0 0 0-.017-.024l-.002-.012c-.008 0-.014-.008-.018-.024-.008.002-.012-.001-.014-.01-.002-.007-.007-.012-.015-.01a.05.05 0 0 1-.017-.025l-.03-.02-.028-.023-.03-.023-.003-.011c-.008 0-.012-.002-.012-.005-.002-.005-.007-.006-.013-.006l-.004-.012c-.008 0-.01-.001-.012-.005s-.007-.006-.015-.006l-.002-.011a.037.037 0 0 1-.025-.01h-.013l-.015-.011-.014-.011-.015-.012c-.008.002-.013 0-.013-.005-.001-.003-.006-.004-.014-.004h-.011c-.002-.007-.012-.012-.028-.01l-.001-.011c-.016 0-.026-.004-.028-.012l-.011.002a.044.044 0 0 1-.027-.011c-.015.001-.03-.002-.037-.01-.017 0-.025-.002-.028-.01h-.011l-.024.002c-.008 0-.013-.003-.015-.013l-.024.003h-.013l-.022.002-.015-.011h-.013l-.035.003a.93.93 0 0 0-.177.02h-.012a.421.421 0 0 0-.153.07l-.019.026h-.011c-.008 0-.012.003-.012.006.002.004-.001.007-.01.007-.007 0-.01.005-.009.013h-.011l-.02.025-.017.025h-.013c-.007.01-.013.012-.021.012l.003.013c-.006.008-.014.013-.022.013l.003.013-.018.024c-.006.008-.01.016-.006.024h-.013c.001.009.001.013-.003.013-.005 0-.005.005-.004.012l-.011.001c.002.008-.002.016-.008.024l.003.012-.01.013c.002.008.002.012-.003.012-.003 0-.005.004-.003.012l-.018.025.002.012c.002.006 0 .011-.003.011-.005 0-.005.005-.003.013.001.008.001.014-.002.018-.003.004-.003.01-.002.017a.029.029 0 0 1-.001.018c-.005.005-.005.011-.004.02.002.006.002.01-.003.01-.003 0-.005.006-.003.014l.003.01a.028.028 0 0 1-.006.025l.001.013.007.022.001.012-.008.013.005.024.002.011.008.036.011.046 1.753 7.79c.045.197.151.36.322.489.17.13.354.188.553.179a.59.59 0 0 0 .462-.236.598.598 0 0 0 .095-.514l-.988-4.383 3.09 4.541c.01.008.015.015.016.023a.046.046 0 0 0 .018.022l.003.012.015.013c.001.006.006.01.014.01l.003.012c.075.082.163.153.265.211.008 0 .013.002.013.005.001.005.004.005.012.005h.013c.002.008.007.013.015.011.01.008.02.011.026.011.003.007.008.012.014.012l.013-.002c.002.008.006.011.014.011a.3.3 0 0 1 .065.02h.024l.003.01h.049c.001.006.006.009.014.009h.011l.025-.002a.42.42 0 0 0 .11.007.684.684 0 0 0 .305-.089l.02-.026h.01c.009 0 .012-.003.012-.008-.002-.003.002-.006.01-.006l.01-.011c.007 0 .01-.005.01-.013a.037.037 0 0 0 .02-.013l.018-.024.013-.002.019-.024.018-.026.017-.026c.007-.008.01-.016.007-.024h.013c-.002-.008-.002-.011.003-.013.005 0 .005-.003.003-.01.008 0 .011-.006.01-.014-.003-.008.001-.011.008-.013l-.002-.011.01-.013a.028.028 0 0 0 .006-.024l.008-.011c0-.008.004-.013.012-.013l-.005-.011c-.002-.009 0-.013.005-.013.003 0 .005-.005.003-.012a.02.02 0 0 1 .002-.019c.003-.003.003-.01.001-.018-.001-.006-.001-.013.002-.017.003-.005.005-.012.003-.018-.002-.008-.002-.013.003-.013s.005-.005.003-.011l-.003-.013c-.001-.007.002-.015.007-.023l-.002-.013M103.376 74.865c-.57.02-.912.443-.762.949.15.506.735.9 1.303.883.572-.02.914-.443.762-.949-.15-.506-.731-.9-1.303-.883M108.386 76.553c.57-.017.91-.443.76-.948-.148-.505-.733-.9-1.303-.882-.57.018-.912.443-.762.948.148.506.733.9 1.305.882M112.853 76.41c.569-.018.912-.443.76-.949-.15-.504-.734-.899-1.305-.88-.57.018-.91.442-.76.946.15.506.733.9 1.305.883M117.318 76.267c.57-.016.91-.442.762-.95-.151-.503-.734-.898-1.305-.88-.571.02-.911.443-.761.949.151.505.734.898 1.304.88M92.127 80.218c-.15-.506-.733-.9-1.303-.882-.57.017-.912.443-.764.948.152.506.735.9 1.305.881.572-.019.912-.443.762-.947M95.29 79.194c-.571.016-.913.441-.763.947.152.504.735.899 1.305.883.57-.02.91-.443.762-.95-.15-.505-.735-.9-1.305-.88M101.06 79.932c-.15-.506-.734-.901-1.304-.883-.572.02-.913.443-.762.949.15.505.733.9 1.303.882.57-.019.912-.443.762-.948M104.222 78.907c-.57.018-.912.443-.762.947.15.506.734.9 1.303.883.572-.018.913-.443.762-.949-.15-.506-.731-.9-1.303-.881M107.927 79.71c.15.508.733.901 1.305.884.57-.018.91-.443.76-.948-.15-.505-.733-.902-1.303-.882-.57.019-.912.443-.762.947M112.394 79.57c.15.505.733.898 1.305.88.568-.017.91-.443.758-.949-.148-.504-.731-.898-1.301-.88-.57.019-.912.442-.762.948M116.86 79.426c.15.506.734.899 1.304.88.57-.017.91-.44.762-.946-.15-.506-.735-.9-1.306-.882-.569.018-.91.442-.76.948M93.251 84.458c-.15-.506-.733-.9-1.303-.881-.57.018-.912.441-.762.947.15.506.735.9 1.305.883.57-.02.91-.443.76-.949M97.718 84.315c-.15-.506-.734-.9-1.303-.881-.572.017-.912.443-.762.947.15.506.733.9 1.303.883.57-.02.912-.443.762-.95M101.424 85.12c.57-.019.911-.443.76-.949-.15-.505-.733-.898-1.303-.88-.57.017-.912.44-.762.947.15.505.734.9 1.305.882M105.346 83.147c-.569.018-.91.443-.76.949.148.504.733.9 1.303.88.572-.017.912-.442.762-.946-.15-.506-.733-.9-1.305-.883M109.053 83.952c.148.506.733.9 1.303.882.57-.018.912-.442.762-.948-.15-.506-.735-.9-1.305-.882-.57.019-.912.443-.76.948M113.52 83.81c.148.505.731.9 1.303.88.57-.016.91-.443.76-.947-.15-.504-.733-.9-1.303-.883-.57.02-.912.443-.76.95M117.985 83.667c.15.504.733.9 1.304.881.57-.017.911-.443.763-.948-.151-.506-.736-.9-1.306-.882-.57.018-.912.443-.76.95M94.099 88.498c-.152-.505-.735-.9-1.305-.88-.572.017-.912.44-.762.946.15.506.734.9 1.303.882.572-.018.914-.442.764-.948M98.564 88.355c-.15-.506-.734-.9-1.303-.881-.572.018-.912.443-.762.947.15.506.733.9 1.303.883.57-.02.912-.443.762-.949M102.268 89.16c.572-.019.911-.443.763-.948-.151-.506-.734-.9-1.305-.882-.572.018-.911.442-.762.95.152.503.735.898 1.304.88M105.431 88.136c.149.506.733.9 1.304.881.572-.018.911-.443.76-.947-.148-.508-.731-.9-1.303-.883-.57.018-.91.443-.76.949M111.964 87.926c-.15-.505-.735-.9-1.305-.882-.57.019-.912.443-.762.949.15.505.734.898 1.305.88.57-.017.912-.44.762-.947M115.669 88.73c.57-.016.912-.441.76-.947-.15-.504-.733-.9-1.303-.881-.57.018-.912.441-.76.947.148.506.73.9 1.303.881M118.831 87.706c.15.506.733.9 1.303.883.572-.018.912-.443.762-.95-.15-.505-.734-.898-1.305-.88-.57.019-.911.443-.76.947M93.665 91.791c-.572.018-.911.443-.762.949.15.506.735.899 1.305.881.57-.018.91-.443.76-.947-.15-.506-.732-.9-1.303-.883M99.436 92.53c-.15-.505-.735-.9-1.305-.882-.57.019-.91.443-.76.949.15.504.732.898 1.303.88.57-.017.911-.442.762-.947M102.598 91.504c-.57.02-.912.443-.762.95.15.505.734.9 1.303.882.572-.02.912-.443.762-.949-.15-.506-.733-.9-1.303-.883M106.303 92.31c.15.506.733.902 1.303.883.572-.018.912-.443.762-.95-.15-.505-.733-.9-1.305-.88-.57.017-.91.443-.76.947M112.073 93.05c.57-.019.912-.442.76-.95-.148-.504-.732-.899-1.303-.88-.57.019-.911.442-.762.948.15.506.735.899 1.305.881M157.488 73.937c.57-.016.912-.443.76-.947-.15-.506-.733-.9-1.303-.883-.57.02-.912.443-.76.95.148.505.731.9 1.303.88M161.953 73.796c.57-.018.912-.443.762-.95-.15-.505-.733-.898-1.304-.88-.57.017-.91.443-.76.947.15.506.732.9 1.302.883M136.762 77.746c-.15-.506-.733-.901-1.303-.883-.57.02-.912.443-.762.949.15.505.734.898 1.305.88.57-.017.91-.442.76-.946M139.924 76.721c-.57.018-.91.441-.76.947.15.504.733.9 1.303.883.57-.02.912-.443.762-.949-.15-.506-.734-.9-1.305-.881M144.934 78.408c.57-.02.912-.443.762-.95-.15-.505-.734-.9-1.305-.88-.572.017-.911.441-.76.947.15.506.733.9 1.303.883M148.857 76.434c-.569.018-.91.443-.76.947.15.506.732.903 1.303.883.572-.017.911-.443.762-.947-.15-.506-.733-.902-1.305-.883M153.867 78.12c.572-.017.911-.44.762-.946-.15-.506-.735-.9-1.305-.883-.57.02-.912.443-.762.949.15.506.734.899 1.305.88M157.029 77.096c.15.506.735.9 1.305.882.57-.018.912-.443.76-.948-.15-.506-.733-.9-1.303-.882-.57.019-.912.443-.762.948M161.496 76.953c.15.506.733.9 1.303.881.57-.016.912-.441.762-.947-.15-.506-.733-.899-1.305-.881-.568.017-.911.441-.76.947M137.888 81.985c-.15-.504-.733-.898-1.303-.88-.572.017-.914.442-.764.946.15.506.735.901 1.305.883.57-.02.912-.443.762-.949M142.355 81.842c-.15-.506-.736-.899-1.305-.881-.57.02-.911.443-.762.947.15.506.733.9 1.305.883.57-.02.912-.441.762-.949M146.82 81.7c-.15-.507-.732-.9-1.304-.882-.57.019-.91.443-.762.948.151.506.736.9 1.305.882.57-.02.911-.443.762-.948M149.983 80.674c-.57.018-.912.443-.762.949.15.506.734.9 1.303.881.572-.018.912-.443.762-.947-.15-.506-.733-.9-1.303-.883M153.688 81.48c.15.505.734.9 1.305.88.57-.017.91-.44.76-.945-.15-.507-.734-.902-1.303-.884-.572.02-.912.443-.762.949M158.155 81.338c.15.504.733.899 1.305.88.568-.017.91-.442.759-.948-.149-.504-.733-.9-1.302-.881-.57.018-.913.441-.762.949M162.62 81.194c.15.505.733.9 1.305.882.57-.018.91-.443.762-.95-.151-.505-.734-.898-1.306-.88-.57.019-.91.443-.76.948M138.734 86.026c-.15-.506-.735-.9-1.303-.882-.572.018-.912.443-.764.95.15.505.735.898 1.305.88.572-.019.912-.443.762-.948M143.2 85.884c-.15-.506-.735-.9-1.304-.883-.57.018-.912.443-.762.949.15.504.733.899 1.305.881.57-.018.912-.443.76-.947M146.904 86.688c.57-.018.912-.443.762-.948-.15-.505-.734-.9-1.305-.882-.57.019-.911.443-.76.949.15.504.733.898 1.303.88M150.827 84.714c-.569.02-.91.443-.76.95.15.505.734.9 1.304.88.57-.017.912-.441.76-.947-.149-.506-.732-.9-1.304-.883M155.296 84.573c-.57.017-.912.441-.762.947.15.506.733.9 1.304.883.57-.018.91-.443.76-.95-.149-.503-.732-.9-1.302-.88M159 85.378c.15.504.734.899 1.304.881.572-.018.912-.443.76-.949-.148-.504-.733-.899-1.303-.88-.57.017-.91.442-.76.948M163.466 85.235c.15.504.735.899 1.305.88.57-.017.91-.442.762-.948-.15-.504-.735-.899-1.305-.881-.572.02-.912.443-.762.949M138.302 89.318c-.572.018-.912.443-.762.95.148.505.733.9 1.303.88.57-.017.912-.443.762-.947-.15-.506-.734-.9-1.303-.883M142.768 89.177c-.572.017-.912.443-.762.948.15.505.733.9 1.304.882.57-.018.912-.443.76-.95-.149-.503-.734-.9-1.302-.88M146.473 89.982c.15.504.733.899 1.303.881.57-.02.912-.443.762-.947-.15-.507-.735-.9-1.305-.883-.57.018-.91.443-.76.949M150.938 89.837c.15.507.735.902 1.303.883.572-.018.914-.443.762-.947-.15-.506-.733-.903-1.305-.883-.568.02-.91.443-.76.947M155.405 89.695c.15.506.733.9 1.305.881.569-.017.91-.441.76-.947-.15-.506-.733-.9-1.303-.883-.572.02-.912.443-.762.95M201.43 71.49c.149.506.732.9 1.304.882.57-.017.911-.443.76-.948-.148-.506-.733-.9-1.303-.882-.57.019-.912.443-.76.948M207.2 72.23c.571-.018.91-.443.761-.95-.15-.505-.733-.9-1.305-.88-.57.017-.912.441-.762.947.152.506.735.9 1.305.883M182.01 76.18c-.152-.506-.735-.9-1.306-.883-.57.018-.911.443-.761.949.15.506.734.9 1.304.88.57-.017.91-.442.762-.946M185.713 76.985c.57-.02.912-.443.763-.95-.151-.504-.736-.9-1.304-.88-.572.018-.912.442-.762.947.15.505.733.9 1.303.883M189.639 75.012c-.574.018-.914.441-.764.947.151.506.735.9 1.303.883.572-.02.914-.443.764-.949-.15-.506-.735-.9-1.303-.881M194.102 74.868c-.568.018-.91.443-.76.948.15.505.735.902 1.303.882.572-.017.912-.443.762-.948-.15-.505-.733-.9-1.305-.882M198.57 74.725c-.57.02-.91.443-.762.949.15.506.734.899 1.304.881.57-.018.912-.441.762-.947-.15-.506-.734-.9-1.305-.883M202.276 75.53c.15.506.732.9 1.305.882.569-.016.91-.443.759-.948-.148-.505-.733-.9-1.303-.882-.57.019-.912.443-.76.949M206.742 75.387c.15.506.733.9 1.303.881.57-.016.912-.441.762-.947-.15-.506-.733-.899-1.305-.881-.57.018-.91.441-.76.947M183.134 80.42c-.15-.505-.733-.9-1.303-.882-.572.018-.914.443-.764.948.15.506.735.9 1.305.882.572-.019.912-.443.762-.948M187.6 80.276c-.149-.506-.734-.899-1.304-.88-.57.018-.912.442-.76.948.148.504.731.899 1.303.881.57-.02.912-.443.762-.949M192.066 80.135c-.15-.506-.733-.901-1.303-.883-.572.02-.912.443-.762.949.15.505.735.9 1.303.88.57-.017.912-.442.762-.946M195.228 79.108c-.57.018-.911.443-.761.95.15.505.734.9 1.303.88.572-.017.912-.443.762-.947-.15-.506-.732-.9-1.304-.883M199.696 78.965c-.572.02-.912.443-.762.949.15.506.734.9 1.304.881.57-.016.91-.441.76-.946-.147-.507-.734-.902-1.302-.884M203.4 79.772c.15.504.734.899 1.305.881.57-.017.91-.443.76-.949-.149-.504-.734-.9-1.302-.882-.57.019-.912.443-.762.95M207.866 79.629c.151.504.735.899 1.305.88.57-.017.912-.442.762-.946-.15-.508-.735-.9-1.305-.883-.57.02-.912.443-.762.949M183.98 84.46c-.15-.506-.735-.9-1.304-.881-.572.017-.912.443-.763.948.15.506.734.9 1.305.882.57-.02.911-.443.761-.95M188.447 84.318c-.15-.506-.735-.9-1.305-.883-.57.018-.912.443-.762.95.151.503.733.898 1.305.88.57-.017.911-.443.762-.947M192.912 84.175c-.15-.506-.735-.9-1.305-.883-.57.018-.91.443-.76.949.151.504.733.9 1.303.88.57-.017.912-.442.762-.946M195.312 84.097c.15.506.735.9 1.305.882.572-.018.912-.442.76-.948-.15-.506-.733-.9-1.303-.882-.57.019-.912.443-.762.948M200.541 83.007c-.57.017-.912.441-.762.947.15.506.733.9 1.305.881.569-.016.91-.441.76-.947-.15-.504-.732-.9-1.303-.881M205.007 82.863c-.569.018-.91.443-.76.95.15.503.73.898 1.304.88.57-.017.91-.443.76-.948-.15-.505-.734-.9-1.304-.882M208.712 83.669c.151.504.734.899 1.305.881.57-.018.91-.443.76-.949-.148-.504-.733-.899-1.303-.881-.572.02-.912.443-.762.949M183.548 87.753c-.572.017-.912.443-.762.948.148.506.733.9 1.303.882.57-.018.912-.443.762-.948-.15-.506-.735-.9-1.303-.882M188.013 87.61c-.572.018-.912.444-.762.95.152.504.733.898 1.305.88.57-.019.912-.442.762-.948-.151-.506-.736-.899-1.305-.881M193.022 89.297c.57-.017.911-.443.761-.947-.15-.506-.734-.9-1.304-.883-.57.018-.91.443-.76.95.15.503.732.898 1.303.88M198.249 88.207c-.15-.506-.733-.902-1.303-.883-.57.018-.912.443-.762.947.15.506.734.902 1.303.883.572-.018.912-.443.762-.947M200.65 88.13c.15.505.734.9 1.306.88.568-.015.91-.44.76-.947-.15-.505-.733-.9-1.303-.882-.572.019-.912.443-.762.948M205.118 87.986c.15.506.733.9 1.305.881.568-.016.91-.441.758-.947-.148-.504-.733-.9-1.303-.881-.57.018-.91.443-.76.947M209.583 87.843c.152.506.735.9 1.305.882.57-.017.912-.443.762-.948-.15-.505-.734-.9-1.306-.881-.57.019-.91.443-.76.947M100.183 124.23c-.151-.506-.734-.899-1.305-.881-.572.018-.911.441-.762.949.15.504.733.899 1.305.88.57-.019.91-.442.762-.948M104.649 124.087c-.15-.505-.735-.9-1.304-.882-.572.018-.913.443-.762.95.15.503.733.898 1.304.88.57-.019.911-.443.762-.948M109.116 123.945c-.152-.506-.735-.9-1.305-.883-.57.018-.912.443-.762.949.15.504.734.899 1.303.881.57-.018.912-.443.764-.947M113.581 123.801c-.15-.505-.733-.902-1.305-.882-.57.019-.912.443-.76.947.148.507.733.902 1.303.883.57-.018.912-.442.762-.948M117.286 124.605c.57-.016.912-.441.76-.947-.148-.506-.732-.9-1.303-.881-.57.018-.911.441-.762.947.15.506.735.9 1.305.881M120.45 123.58c.148.507.731.901 1.303.884.57-.018.912-.443.76-.95-.15-.503-.732-.898-1.303-.88-.572.017-.911.443-.76.947M126.219 124.32c.57-.018.911-.443.762-.949-.15-.504-.735-.899-1.305-.88-.57.019-.912.442-.762.948.151.504.734.899 1.305.881M101.027 128.27c-.15-.504-.733-.899-1.303-.881-.57.018-.912.443-.762.949.15.504.735.899 1.303.881.572-.02.912-.443.762-.949M104.732 129.076c.57-.018.912-.443.762-.95-.15-.503-.734-.898-1.305-.88-.57.017-.91.443-.76.948.15.505.733.9 1.303.882M109.198 128.932c.572-.017.913-.441.762-.947-.148-.506-.733-.9-1.303-.883-.572.02-.912.443-.762.95.15.503.734.9 1.303.88M113.665 128.789c.57-.018.912-.442.762-.947-.15-.506-.733-.9-1.305-.883-.57.02-.91.444-.76.947.148.508.733.902 1.303.883M118.894 127.698c-.152-.504-.735-.9-1.305-.88-.57.017-.912.442-.762.946.15.506.733.9 1.305.883.57-.018.912-.443.762-.949M123.36 127.555c-.15-.504-.734-.899-1.304-.881-.57.017-.912.443-.762.947.15.506.733.9 1.305.883.57-.018.91-.443.76-.95M127.826 127.412c-.15-.506-.733-.9-1.304-.882-.57.02-.91.443-.76.95.149.505.732.898 1.302.88.57-.017.912-.441.762-.948M102.153 132.51c-.15-.504-.734-.899-1.305-.881-.57.02-.911.443-.762.949.15.506.735.9 1.305.88.57-.017.912-.44.762-.948M106.619 132.368c-.148-.506-.735-.9-1.304-.88-.57.017-.911.442-.761.946.15.506.732.9 1.303.882.57-.018.912-.442.762-.948M111.086 132.225c-.15-.506-.735-.899-1.303-.881-.572.017-.914.441-.764.947.151.506.735.9 1.305.883.57-.02.912-.443.762-.95M115.551 132.083c-.15-.506-.733-.9-1.303-.884-.57.02-.912.444-.762.949.15.505.733.9 1.303.882.572-.019.912-.443.762-.947M120.018 131.94c-.15-.506-.734-.9-1.303-.883-.572.02-.912.443-.762.949.148.504.735.899 1.303.881.572-.018.912-.443.762-.947M124.484 131.796c-.148-.505-.733-.9-1.302-.882-.572.019-.912.443-.762.948.148.506.733.9 1.303.882.57-.016.912-.443.76-.948M128.952 131.653c-.151-.506-.734-.9-1.306-.883-.57.02-.91.443-.76.95.151.505.733.9 1.304.88.57-.016.91-.441.762-.947M102.999 136.552c-.15-.506-.735-.9-1.305-.881-.57.016-.912.441-.762.947.15.506.735.899 1.305.881.57-.018.912-.443.762-.947M107.464 136.408c-.15-.505-.734-.9-1.303-.88-.57.017-.912.442-.762.947.15.505.733.9 1.305.882.569-.019.91-.443.76-.949M111.931 136.265c-.15-.506-.734-.9-1.304-.883-.57.02-.91.443-.76.95.15.505.732.9 1.303.882.57-.02.911-.443.761-.949M115.094 135.24c-.57.018-.912.444-.762.95.15.504.734.9 1.305.88.57-.017.911-.442.76-.947-.15-.507-.733-.902-1.303-.882M119.56 135.097c-.57.02-.911.443-.761.949.148.506.733.899 1.305.881.568-.018.91-.441.76-.947-.15-.506-.733-.9-1.303-.883M124.026 134.954c-.57.02-.91.443-.76.949.15.505.731.9 1.303.88.57-.015.912-.442.76-.946-.15-.506-.733-.9-1.303-.883M128.492 134.812c-.57.018-.91.443-.76.947.15.506.734.9 1.304.883.57-.018.91-.443.76-.949-.15-.506-.732-.899-1.304-.881M102.566 139.845c-.57.017-.912.443-.762.948.15.506.734.9 1.305.882.57-.018.911-.443.761-.948-.15-.506-.734-.9-1.304-.882M107.033 139.701c-.572.018-.912.443-.762.949.15.504.733.899 1.305.881.57-.018.91-.443.76-.947-.15-.506-.735-.9-1.303-.883M111.498 139.558c-.57.02-.912.443-.76.949.15.505.733.9 1.303.882.57-.019.912-.443.762-.948-.15-.506-.735-.9-1.305-.883M159.086 121.329c.557-.032.881-.474.722-.988-.158-.515-.736-.905-1.294-.873-.557.032-.881.475-.721.988.157.515.737.905 1.293.873M163.445 121.077c.556-.03.88-.473.72-.987-.156-.514-.736-.904-1.292-.873-.557.034-.88.475-.721.989.156.514.737.904 1.293.871M167.804 120.826c.556-.03.88-.473.72-.987-.157-.514-.736-.904-1.293-.872-.556.032-.88.474-.72.988.158.513.736.905 1.293.871M172.162 120.576c.556-.032.88-.475.722-.989-.158-.514-.737-.903-1.296-.871-.555.032-.88.473-.72.987.158.514.736.904 1.294.873M147.653 125.21c-.157-.514-.736-.904-1.293-.872-.557.03-.88.474-.722.987.158.514.738.904 1.295.872.556-.032.88-.475.72-.988M150.719 124.087c-.557.03-.881.473-.723.987.16.514.737.904 1.295.873.556-.034.88-.475.722-.99-.16-.513-.74-.903-1.294-.87M155.077 123.835c-.558.033-.88.474-.722.988.16.514.738.904 1.293.873.558-.034.882-.475.722-.99-.158-.513-.736-.903-1.293-.87M160.008 125.445c.557-.033.88-.476.72-.99-.158-.513-.735-.903-1.294-.871-.556.032-.88.474-.72.986.156.517.738.907 1.294.875M164.367 125.193c.555-.032.878-.473.721-.987-.16-.516-.74-.906-1.295-.873-.556.032-.88.475-.722.987.158.516.737.906 1.296.873M167.43 124.069c.158.515.737.905 1.296.873.554-.032.878-.475.72-.99-.158-.511-.738-.901-1.294-.87-.557.032-.88.473-.721.987M171.788 123.82c.16.513.738.903 1.295.87.556-.032.88-.473.722-.987-.158-.514-.738-.904-1.295-.871-.556.032-.88.473-.722.987M148.852 129.522c-.158-.512-.738-.902-1.294-.872-.557.033-.88.476-.723.99.16.513.74.903 1.297.87.556-.031.878-.474.72-.988M153.211 129.272c-.158-.515-.74-.904-1.295-.871-.557.03-.88.475-.72.987.158.514.736.904 1.292.872.557-.033.88-.474.723-.988M157.569 129.02c-.158-.513-.738-.903-1.294-.87-.557.032-.88.473-.722.987.158.514.738.904 1.294.871.557-.032.88-.475.722-.989M161.928 128.77c-.16-.514-.738-.904-1.295-.874-.556.033-.88.476-.722.99.158.513.738.903 1.293.871.558-.032.882-.475.724-.987M166.285 128.52c-.158-.516-.738-.906-1.293-.873-.558.032-.881.473-.722.989.158.512.738.902 1.294.87.557-.03.88-.474.721-.986M170.643 128.267c-.157-.512-.736-.904-1.292-.872-.558.033-.881.474-.722.99.158.512.736.902 1.294.871.555-.03.88-.475.72-.99M175.003 128.016c-.159-.514-.739-.902-1.295-.872-.557.032-.88.474-.721.99.16.511.737.903 1.293.87.558-.032.881-.475.723-.988M149.773 133.638c-.16-.514-.739-.904-1.295-.872-.557.03-.88.474-.721.99.157.513.737.901 1.293.87.557-.033.881-.474.723-.988M154.13 133.386c-.157-.513-.737-.903-1.293-.871-.557.032-.88.475-.723.989.16.512.74.904 1.297.871.556-.032.878-.475.72-.989M158.49 133.135c-.16-.514-.74-.904-1.295-.871-.558.032-.88.475-.72.989.158.512.736.902 1.292.871.557-.032.88-.475.723-.989M162.848 132.885c-.158-.513-.738-.905-1.296-.873-.555.033-.88.476-.72.99.158.513.738.903 1.294.87.557-.031.88-.474.722-.987M167.205 132.634c-.156-.514-.736-.904-1.294-.873-.555.032-.877.475-.721.99.158.513.738.903 1.295.87.556-.03.88-.473.72-.987M171.564 132.383c-.158-.514-.738-.904-1.293-.872-.558.03-.88.474-.72.988.157.514.734.903 1.293.871.557-.03.88-.475.72-.987M174.628 131.26c-.557.032-.88.474-.72.987.158.514.736.904 1.294.872.557-.03.88-.474.721-.99-.158-.511-.737-.901-1.295-.869M149.429 137.017c-.56.033-.882.476-.724.99.158.513.738.903 1.296.871.555-.032.88-.475.721-.988-.158-.513-.738-.903-1.293-.873M153.786 136.768c-.557.03-.88.473-.722.989.16.51.737.902 1.294.87.556-.03.88-.474.722-.988-.158-.514-.74-.904-1.294-.871M158.144 136.516c-.558.033-.88.474-.722.99.16.512.738.902 1.294.871.557-.032.88-.475.721-.99-.158-.513-.736-.903-1.293-.87M162.501 136.265c-.556.032-.878.475-.72.988.158.513.738.905 1.294.873.557-.033.88-.476.721-.99-.157-.513-.737-.903-1.295-.87M166.862 136.014c-.559.032-.881.475-.723.989.158.514.737.904 1.295.871.556-.03.88-.473.721-.989-.159-.512-.737-.903-1.293-.871M171.22 135.762c-.556.033-.88.476-.72.99.156.513.734.903 1.293.871.556-.03.878-.475.72-.987-.158-.514-.738-.904-1.294-.874M196.263 117.967c-.158-.513-.738-.902-1.294-.87-.557.032-.881.473-.722.987.158.514.738.904 1.294.872.556-.032.881-.474.722-.99M200.622 117.717c-.158-.514-.738-.904-1.295-.873-.556.034-.88.475-.722.989.16.514.738.904 1.295.873.556-.034.88-.475.722-.989M204.258 118.455c.557-.032.88-.475.72-.99-.157-.513-.735-.905-1.292-.87-.558.031-.881.473-.722.987.158.514.738.905 1.294.873M208.045 116.343c-.558.032-.881.475-.722.987.156.516.738.904 1.294.874.556-.033.88-.476.72-.988-.156-.515-.736-.905-1.292-.873M211.68 117.08c.16.515.738.904 1.296.872.556-.032.88-.475.72-.989-.158-.512-.738-.902-1.294-.871-.557.032-.88.473-.721.987M217.333 117.701c.556-.03.88-.474.722-.99-.158-.511-.738-.901-1.295-.869-.557.032-.88.474-.722.987.161.514.738.904 1.295.872M192.825 122.334c-.158-.512-.736-.904-1.294-.872-.557.033-.88.474-.721.99.158.513.738.902 1.293.871.558-.034.88-.475.722-.99M196.462 123.072c.556-.032.88-.475.722-.99-.16-.513-.74-.901-1.295-.87-.556.031-.88.474-.722.987.16.513.738.903 1.295.873M200.82 122.82c.556-.032.881-.473.722-.989-.158-.514-.738-.903-1.294-.871-.557.032-.88.475-.722.989.158.512.738.904 1.294.871M205.177 122.57c.56-.033.882-.474.722-.988-.158-.514-.734-.906-1.293-.873-.556.032-.88.475-.722.987.158.516.738.905 1.293.875M210.258 121.33c-.158-.514-.738-.903-1.293-.871-.558.032-.88.473-.722.987.158.514.738.904 1.294.872.557-.03.88-.474.721-.988M212.602 121.195c.158.514.736.904 1.295.872.554-.031.878-.474.719-.988-.158-.514-.736-.904-1.292-.871-.558.032-.88.473-.722.987M216.96 120.944c.16.514.737.903 1.295.873.556-.032.878-.475.72-.99-.158-.513-.736-.901-1.295-.87-.556.031-.878.473-.72.987M194.024 126.648c-.158-.514-.738-.904-1.296-.872-.555.033-.88.474-.721.988.16.515.737.904 1.295.871.557-.03.88-.473.722-.987M198.383 126.397c-.16-.514-.74-.904-1.296-.872-.557.032-.88.475-.72.99.157.512.737.903 1.292.87.558-.031.881-.474.724-.988M202.74 126.145c-.16-.514-.738-.903-1.293-.871-.558.032-.88.473-.724.989.16.514.74.904 1.295.871.556-.032.88-.475.722-.989M207.098 125.896c-.158-.516-.737-.906-1.294-.873-.556.032-.881.475-.722.987.158.516.738.905 1.294.873.557-.032.88-.475.722-.987M211.457 125.644c-.158-.514-.738-.905-1.294-.873-.557.032-.88.475-.721.99.157.513.737.903 1.293.87.557-.031.88-.473.722-.987M213.8 125.509c.157.514.737.904 1.294.872.556-.031.88-.476.72-.988-.158-.514-.736-.904-1.292-.873-.557.032-.88.475-.721.989M218.158 125.26c.158.512.736.901 1.294.87.557-.031.88-.474.723-.988-.16-.516-.74-.904-1.297-.872-.556.03-.878.474-.72.99M194.945 130.762c-.16-.512-.74-.904-1.295-.87-.558.03-.88.474-.722.988.158.514.738.904 1.294.871.557-.032.88-.475.723-.989M199.302 130.513c-.157-.514-.739-.906-1.293-.872-.557.03-.88.474-.723.988.16.513.737.903 1.295.871.556-.032.88-.475.721-.987M203.662 130.261c-.16-.514-.74-.903-1.296-.873-.557.032-.88.475-.72.99.158.511.737.903 1.292.87.558-.032.88-.475.724-.987M206.724 129.137c-.556.032-.88.475-.72.989.158.515.738.905 1.293.871.558-.032.882-.473.72-.987-.157-.514-.736-.904-1.293-.873M211.083 128.887c-.556.032-.88.475-.722.988.158.513.738.903 1.296.873.555-.032.877-.476.72-.988-.158-.514-.737-.905-1.294-.873M215.442 128.636c-.557.032-.88.475-.722.989.158.512.737.904 1.294.871.557-.03.881-.475.722-.989-.158-.512-.738-.903-1.294-.871M219.078 129.374c.16.513.738.903 1.295.871.558-.03.88-.475.72-.989-.156-.514-.736-.904-1.293-.871-.558.032-.88.475-.722.989M194.599 134.144c-.558.03-.88.475-.722.989.158.513.738.902 1.295.87.556-.031.878-.476.72-.988-.158-.512-.738-.904-1.293-.871M198.956 133.892c-.557.032-.878.475-.72.99.158.512.736.903 1.294.87.555-.031.88-.474.721-.988-.158-.514-.74-.904-1.295-.872M203.315 133.64c-.557.033-.88.476-.721.99.159.514.737.904 1.293.872.557-.033.881-.476.722-.99-.158-.512-.738-.903-1.294-.871"/><g><path d="M82.77 79.666l.002-.208-.11-.005.109.213M100.702 97.172l.01-.223-.078.208.068.015M98.458 94.494l.035-.219-.093.201.058.018"/><path d="M217.26 80.202c.599-2.02.597-4.913-.307-6.479-.172-.44.208-.269.126-.465-.794-1.611-1.207-3.825-2.558-4.928-.85-.965-1.561-.89-1.561-.89.586.663 1.061 1.37 1.462 2.106.791 2.28 1.064 4.493.762 6.804.128.787.075 1.813-.032 2.525-.267 3.062-1.933 5.593-3.811 7.779.153-.065.14.153.048.28l-.076-.024-.075.264c-.163.158-.221-.051-.095-.19-.873.798-1.729 1.458-2.771 2.004.039.237-.553.277-.48.512-.071-.016-.03-.048-.02-.106-.699.46-.737.541-1.567.504-3.036.93-6.334 1.511-9.448 1.373a21.054 21.054 0 0 1-9.248-2.787c-.633.037-1.16-.472-1.838-.593l.096-.068c-.52-.185-.54-.398-.973-.93-.087.098-.222-.136-.281.093-.295-.008-.134-.504-.455-.64.037-.063-.075.103-.088.007-.835-.361.183.029-.479-.862-1.189-.938-2.377-1.996-3.165-3.233.06.067-.053.206-.14.085.2-.32-.361-.35-.398-.643.07-.024.16.063.225.102-.274-.61-.74-.965-.916-1.582-.443-.432-.466-1.197-.798-1.47.168.025-.02-.278-.013-.418-.547-.234-.27-1.13-.718-1.532l.074-.007c-.598-1.5-.833-3.221-1.202-4.861-.07-.943.19-1.998.14-3.02-.037-.192-.14-.05-.164-.207.034-.26.127.015.185-.082-.128-.524.13-1.168.276-1.782-.052-.085-.034-.264-.144-.225.376-.64.292-1.658.717-2.294-.409.134-.072-.479-.048-.743.072-.129.164-.108.213-.042.17-.518.273-.79.618-1.346.071-.298-.038-.443.176-.745.328-.083.37-.662.618-.93-.233-.031-.157-.523.134-.764l.193.251c.455-1.066 1.676-2.172 2.352-3.35l.195.052c.8-1.151 2.006-1.788 2.916-2.791.338-.14.884-.311 1.186-.487.35-.362.507-.428.723-.76.164-.08.319.01.406.043.573-.198 1.182-.124 1.583-.505l.055.14c.411-.297 1.09-.564 1.65-.505.132-.148.678-.257.409-.404.216-.055.167.237.374.055l-.186.238c1.228-.087 2.269-.188 3.482-.248.33.287 1.151.047 1.812.298.422-.1 1.07.229 1.424-.03l-.01.151c.525.113 1.234.28 1.888.541.38.153.443-.06.778-.043l-.027.15c.364.025.528-.161.706-.261.228.188.296.093.521.285a1.421 1.421 0 0 0-.784.201c.387.194.931-.005 1.09.318.326.188.61.25.714.083-.095.026.166.21-.056.203.241.111.404.17.588.17-.045-.025-.099-.076-.155-.097.19-.08.427.055.482-.173-.15-.019-.177.017-.33-.08.143-.118.586.079.613.264.036.208-.404.07-.267.261.285.015.588.018.875.073-.202.008-.382-.221-.237-.316l-.318-.071.097-.134c-.474-.222-.734-.507-1.273-.628l.112.24c-.282-.134-.662-.026-.85-.319.154-.003.093-.12.123-.206-.079.001-.175.03-.246-.026l.236-.21c-.262.286-.849-.164-1.005-.154l.06-.035c-.403-.266.027.175-.27.078-.24-.127 0-.33-.204-.512-.464-.129-1.298-.146-1.767-.469a4.861 4.861 0 0 0-1.3.02c-.369-.068.073-.287-.325-.227.06-.092.02-.207.003-.308-.061.105-.707-.12-.44.176-.538-.13-1.153-.24-1.74-.22.194-.003.263-.178.105-.28-.287.156-.759.205-1.248.156.003.187.16.187.103.368-.073.027-.192.106-.31.09-.066-.193-.038-.487-.48-.503.121-.3.751.055.556-.248a.436.436 0 0 1 .182-.11c.061-.01.123-.019.184-.03.423.114 1.08.16 1.51.235-.04.016-.068.036-.077.058l.59-.093c.296-.026.493-.044.804-.174.23.003.333.193.406.269.718.245 1.358.565 1.993.54l-.026.15c.586.075 1.512.133 2.017.642.22-.035.85.232.657-.064.258.096.034.302.354.288l-.332.074c1.283.777 2.402 1.413 3.535 2.365.143.464 1.061.928 1.453 1.704.417.297.818 1.057 1.282 1.176l-.108.108c.337.569.814 1.323 1.212 2.09.241.44.406.35.654.671l-.123.09c.274.353.532.355.74.437.056.354.17.342.225.694a1.82 1.82 0 0 0-.762-.549c.174.509.756.834.688 1.23.15.44.364.737.548.693-.092-.066-.007.326-.176.12.116.312.208.509.351.67-.02-.061-.029-.153-.06-.22.199.099.304.42.492.27-.114-.142-.151-.139-.21-.355.18.03.42.564.334.748-.093.216-.378-.277-.378.008l.625.686c-.112-.164-.102-.406.048-.378l-.22-.32.162-.038c-.274-.57-.251-1.05-.617-1.605l-.06.289c-.15-.35-.538-.595-.507-.99.13.13.153-.015.235-.059-.064-.066-.167-.127-.188-.234l.333.04c-.416.006-.577-.88-.707-1.01l.07.025c-.141-.569-.096.163-.268-.18-.102-.318.219-.253.19-.584-.23-.541-1.013-1.24-1.158-1.922-.334-.404-.687-.861-1.093-1.138-.294-.358.252-.158-.151-.443.113-.02.153-.136.2-.228-.124.023-.55-.694-.505-.243-.405-.546-.824-1.208-1.422-1.632.187.152.362.07.277-.133-.374-.108-.868-.43-1.282-.878-.113.15.032.278-.132.373-.084-.038-.242-.072-.342-.183.05-.195.29-.442-.16-.757.328-.174.692.625.697.228.331-.019 1.087.662 1.15.922.541.154-.264-.287-.024-.406-.347-.293-.588-.34-1.125-.781-.087.093.073.265-.225.132-.651-.16-.506-.596-.627-.701l.292.12c-.284-.307-.506-.25-.853-.51.097-.353.593.367.85.29l-.117-.382c-.542-.422-.314.123-.839-.353l.139-.056-.403-.185c-.074.105-.1.32.22.51-.388.15-.29-.177-.834-.41-.264.079.232.093.139.269-.034.166-.388-.01-.66-.116-.416-.218-.117-.29-.228-.49.095.015.437.163.348.24.624.105-.04-.462.395-.387-.361-.314-.453-.11-.7-.164.118.084-.143.137-.082.243-.926.099-.278-.57-1.01-.832.015.35-1.12.075-.74.594-.189-.006-.423-.01-.58-.106.26-.142-.25-.276.15-.355l-.254-.095.477-.108c-.23-.248-.668-.567-.794-.723-.41-.042.056.24-.401.147.192-.073-.061-.234-.264-.28.38.181-.08.304-.343.299-.393-.09-.662-.369-.595-.406l.432-.093c-.335.088-.111-.115-.43-.118-.113.098-.337.242-.464.374-.26-.01-.41-.207-.504-.184l.427-.055c-.539-.069-.054-.364-.624-.36l-.17.152c-.104-.041-.149-.125-.033-.177-.105.111-.414.047-.557.073l-.024-.118c-.24.047-.553.263-.814.003.198.303.28.039.664.211.219.234-.408.14-.498.16.05-.305-.588-.071-.862-.077-.154-.11-.295-.163-.393-.23l-.111.192c-.098-.376-.554.058-.865-.045.158-.125.134-.273-.089-.317.302.267-.477.375-.378.56-.56-.07.114-.363-.058-.554-.27.232-.64-.11-.807.183.414.066-.05.182-.123.31-.507.018.073-.14-.295-.203-.207.066-.457.316-.127.356-.298-.024-.591.284-.939.152-.16-.158.6-.155.395-.256-.7.072-.293.462-.915.623.283.044.074.4-.202.56-.697.052.279-.16-.02-.333l-.27.086c-.447-.232.733-.656.321-.833l-.288.16c.051-.097.124-.273-.02-.333-.038.228-.712.189-.758.25-.026.189.24-.1.219.05-.321.106-.397.438-.914.45.242-.19-.164-.216-.075-.344-.263-.012-.025.228-.398.216l.01-.114c-1.285.3-2.913.878-3.769 1.825-.285-.084-.655.143-1.314.379.291-.103.11.153-.023.257l-.39-.003c-.393.132-.7.603-.92.909-.077.006-.128-.028-.178-.06-.361.111-.205.327-.277.448l-.27.037.057.142c-.21.291-.578.567-.709.365-.074.123-.13.258.037.18-.328.157-1.035.818-1.367 1.359.235-.187.272-.12.4-.039.131.235-.126.076-.175.361-.074-.056-.327.097-.187-.179-.797.42-1.308 1.514-1.917 2.352-.079.2-.01.168-.008.29-.581.414-.733 1.261-1.158 1.833.174-.088.313.234.163.588.01.429-.27.111-.525.266-.05-3.218-.825-5.862-.825-5.862-.54-1.55-1.598-.106-1.598-.106.506 2.162.535 3.81.436 4.915-1.635-2.697-6.438-8.092-18.905-8.645l-.053.593c-.34-.282-.848-.095-1.278-.188-.098.032-.072.075-.122.138-.28-.277-.662-.035-.975-.169.039.065.013.18-.045.27-.103.004-.208.006-.313.009-.01-.11-.024-.243-.103-.301a.417.417 0 0 1-.325.108l.006-.038c-.11.11-.278.173-.404.075l.021-.015c-.105-.02-.224-.153-.333-.137-.05.195-.316.073-.379.245l-.023-.079-.008.166-.215-.097.115-.18c-.231-.116-.075.151-.194.24-.16.118-.153-.044-.234-.11.064-.087.12.034.16.005.088-.13-.1-.056-.104-.146-.035-.005-.046.196-.164.164-.103-.013-.341.05-.317-.13-.084.098-.189.085-.252.169.086.029.24.067.261.18-.074.027-.22.082-.248.005l.058-.047c-.058.047-.278.003-.158.164l-.167-.223c-.05.14-.208.14-.334.178-.017-.185.076-.394-.17-.423l-.195.195c-.108.024-.14-.016-.13-.126-.29-.064-.337.267-.471.382a.775.775 0 0 0-.152-.055c.044-.153-.041-.172-.159-.211-.003.037-.01.11-.063.124.048.095.065-.16.177-.024.033.092-.037.105-.1.122l-.085.013c-.31-.404-.863-.003-1.305-.174.063.258-.18.097-.253.203-.01-.277-.228.089-.367-.056l.103.254c-.148-.058-.237.08-.32.177-.076.007-.152.01-.23.012 0-.003-.004-.005-.007-.008-.156-.055.016-.202.069-.256-.248-.257-.486.327-.7.033 0 .075.038.174.017.27a1.142 1.142 0 0 0-.325.016c-.112-.049-.207-.092-.197-.121-.105.07-.118.162-.26.096-.002-.07.05-.093.081-.132-.21-.024-.344.13-.494.266-.148-.176-.472.007-.722-.051-.053.212-.254.091-.316.172a.215.215 0 0 1-.101-.021.3.3 0 0 1-.18.193c-.065-.204-.308.052-.368-.06.052.055.048.075.026.084-.182-.01-.366-.012-.485.162l-.008-.073c-.216.07-.44.137-.667.203l-.014-.132c-.052.01-.13.101-.184.19-.727.211-1.477.445-2.131.902-.132.066-.273.11-.418.147l.005-.057-.092.078c-.177.042-.359.077-.538.124-.029-.024-.01-.113-.075-.076.013.005.029.053.053.082-.258.07-.51.166-.722.361-.082.1.044.142-.026.216-.15.063-.056-.115-.133-.132-.207.293-.666.307-1.017.494-.01.08-.1.147-.02.218-.521-.042-.863.583-1.357.618.314.236-.135.297-.227.451-.084.033-.139-.046-.148-.12-.266.206-.418.309-.812.423-.14.13-.084.32-.3.39-.246-.137-.4.239-.633.277.161.152.018.443-.214.48l-.107-.288c-.48.531-1.504.809-1.952 1.59l-.152-.108c-.563.65-1.356.978-1.77 1.757-.23.063-.544.23-.704.379-.124.31-.214.366-.204.681-.071.084-.216.023-.289.005-.308.206-.746.261-.76.682l-.113-.1c-.106.32-.277.747-.635.863.028.155-.16.432.068.44-.061.12-.24-.108-.211.1l-.077-.242c-.524.537-.9 1.052-1.218 1.722-.329.02-.393.566-.74.83-.003.285-.391.548-.203.86l-.135-.061c-.195.263-.395.65-.614 1.028-.137.216.068.3.065.507l-.145-.043c.001.232.201.36.314.48-.143.12-.039.17-.176.296-.037-.17-.177-.36-.32-.522-.15.237.169.607-.1.7-.11.212-.092.4.101.454-.051-.06-.148.117-.206-.021-.03.16-.047.267.018.375.006-.03.037-.068.04-.102.123.102.111.26.338.257-.051-.087-.095-.099-.051-.197.13.068.172.334.026.385-.166.063-.25-.217-.355-.101l.374.49c-.127-.097-.016-.25.14-.194l-.088-.177.162.026c-.06-.292.161-.448.103-.754l-.19.074c.033-.168-.143-.398.084-.504.04.091.135.058.224.08-.02-.047-.073-.106-.035-.145l.254.152c-.338-.171-.039-.487-.045-.57l.039.041c.212-.193-.166-.011-.103-.172.1-.12.309.055.47-.023.089-.227.056-.721.369-.88.07-.217.108-.48.101-.724.105-.177.248.16.24-.084.074.07.18.1.271.135-.089-.077.201-.315-.095-.31.18-.234.424-.473.557-.76-.048.094.084.221.208.205a.683.683 0 0 1 .205-.663c-.15-.113-.198-.042-.324-.176 0-.05-.024-.153.026-.198.172.088.39.279.552.108.185.233-.283.283.015.388.127.232-.1.567-.274.554.05.18.082.12.134.066-.046.115-.049.24.054.398l.137.182c-.108.058-.232-.003-.325.04.087.128-.12.37.024.479-.092.01-.09-.057-.143-.076-.116.163.062.469-.042.62l-.065-.083c-.644.773-1.208 1.987-.905 2.846.03.222-.277.055-.266.153.185.574-.055 1.194-.05 1.769a1.095 1.095 0 0 0-.32-.089c.187.303.35.61.5.923l-.078.005c.032-.003.055-.003.079-.003.027.058.048.118.074.176.001.001-.003.008.003.008l.016.037c-.088.019-.19.037-.248.069.02.08.251.193.048.317.06.068.171.136.306.186.01.067-.291.033-.153.085-.101.005-.204.027-.298.045.115-.006 0 .126.245.042-.04.103-.05.213.016.31-.02-.033-.201-.022-.286.015.18.028.293.1.256.19.185-.02.179-.048.359-.058.032.012.116.023.105.047-.189.03-.482.055-.479.132-.303.008.021-.132-.27-.07-.244-.009-.277-.14-.134-.188-.266-.038-.024.055-.276.07.03.058.163.072.215.16.129-.01.143-.044.251-.01.279.058-.172.122-.182.143l-.073-.036c-.082.063.096.067.09.126-.34.047-.052-.088-.265-.09l-.24.063c-.02.09.285-.002.208.098h-.124l.085.05c.127-.01.319-.039.285-.085.335.003.053.04.129.114.192.01-.023-.032.164-.05.168-.021.182.032.22.07.007.065-.202.05-.324.086-.03-.011-.062-.058.046-.061-.204-.064-.385.064-.526.021-.105.07.13.048.188.079.018-.023.182-.008.25-.027.51.069-.37.095-.28.188.325-.044.459.106.815.008.058.023.133.05.101.077-.224-.014-.174.057-.385.021l-.003.037-.264-.04c-.153.052-.302.127-.406.155.098.046.212-.03.269.03-.116-.016-.213.028-.208.054.085-.058.312-.017.369.016.005.053-.205.106-.256.101l-.19-.043c.162.032-.086.02-.017.058.123.006.313.022.472.03.055.032-.107.063-.079.074l-.135-.05c.052.071-.34.03-.251.1l.172.012a.314.314 0 0 1-.169.014c.123.006.098.048.143.066l-.114.008c.076.028.33.06.106.103.276-.037.002-.037.126-.093.203-.04.192.047.22.058-.292.005-.023.08-.027.117-.104.025-.153.044-.215.06l.194.01c-.377.02.089.072-.027.117a.772.772 0 0 0-.137-.01c-.216-.27-.43-.362-.43-.362.37 2.321-.024 4.453-.857 6.523-.111.744-.333 1.707-.709 2.295-1.028 2.76-3.313 4.63-5.585 6.297.166-.019.098.173-.01.287l-.064-.037-.116.255c-.19.112-.203-.104-.051-.207-1.019.55-1.942 1.044-3.047 1.355.005.263-.565.187-.54.422-.065-.03-.019-.053 0-.106-.748.306-.814.33-1.578.216-3.037.315-6.305.502-9.09-.329-2.902-.794-5.661-2.334-8.02-4.567-.596-.113-.963-.715-1.586-.966l.11-.044c-.447-.291-.384-.519-.68-1.1-.112.076-.181-.174-.295.029-.276-.077.01-.512-.255-.717.053-.05-.1.08-.084-.013-.69-.533.178.061-.238-.915-.846-1.174-1.75-2.416-2.149-3.771.045.076-.098.177-.158.047.261-.248-.254-.411-.208-.695.074-.006.134.097.184.149-.064-.645-.466-1.075-.448-1.698-.295-.51-.145-1.221-.357-1.566.15.064.062-.27.112-.4-.454-.35-.08-1.105-.336-1.591l.07.013c-.124-1.536-.017-3.198.123-4.8.074-.92.747-1.784.857-2.78 0-.191-.13-.085-.118-.236.107-.23.12.046.203-.028.033-.509.47-1.03.7-1.593-.04-.097.032-.253-.086-.247.594-.457.648-1.494 1.244-1.957-.44.01.069-.448.138-.7.092-.107.176-.067.208.008.255-.464.41-.698.899-1.11.151-.248.053-.435.319-.67.312-.017.488-.545.804-.722-.218-.084-.028-.52.282-.703l.135.292c.636-.933 2.073-1.646 2.92-2.668l.175.092c1.008-.892 2.25-1.3 3.307-2.073.36-.024.894-.147 1.211-.258.398-.283.567-.279.82-.594.168-.057.301.058.379.103.576-.116 1.163.116 1.591-.243l.032.148c.442-.187 1.12-.419 1.65-.245.145-.129.681-.17.443-.35.214-.027.129.257.35.102l-.21.213c1.184.086 2.193.103 3.357.202.277.321 1.094.187 1.692.511.417-.048.99.356 1.366.139l-.03.148c.487.174 1.141.422 1.73.754.344.196.433-.007.752.05l-.047.143c.346.068.53-.098.715-.174.192.213.27.129.46.342-.27-.047-.542 0-.782.106.341.235.894.103.997.44.27.212.516.3.648.182l.005.003c-.017.053.116.203-.063.172.207.136.354.205.523.23-.037-.033-.075-.08-.12-.104.122-.035.247.008.347-.003l-.087.12c.084.05.161.081.234.102-.06.008-.097.026-.058.108.27.05.564.087.831.179.057.066.11.134.174.285a1.297 1.297 0 0 0-.834-.245c.146.17.35.297.525.42a.366.366 0 0 1 .001.133c.031-.016.049-.049.065-.083.164.123.295.249.308.42.01.019.022.03.033.048-.019.003-.051-.013-.112-.073.01.11.079.135.16.139.202.278.416.438.565.36-.1-.033.051.294-.147.155.168.248.287.4.456.508-.03-.05-.056-.13-.097-.18.208.038.368.3.525.123-.137-.101-.172-.088-.267-.269.177-.017.509.411.46.593-.056.211-.42-.163-.37.09.284.166.532.363.777.57-.197-.1-.245-.43-.07-.433l-.264-.246.152-.068c-.373-.453-.443-.897-.9-1.311l-.002.28c-.208-.282-.624-.395-.67-.767.146.082.138-.058.206-.12-.075-.044-.182-.071-.226-.163l.32-.058c-.38.116-.723-.648-.903-.701l.074-.002c-.296-.45-.045.174-.304-.067-.186-.242.133-.297.008-.58-.38-.401-1.26-.773-1.603-1.326-.416-.25-.935-.43-1.355-.556-.36-.225.17-.243-.263-.357.092-.062.09-.184.103-.287-.098.079-.715-.392-.525-.005-.522-.351-1.147-.685-1.78-.875.208.07.334-.074.197-.228-.353.037-.875-.08-1.387-.29-.05.178.119.235.003.386-.085.002-.237.037-.358-.02-.014-.207.102-.478-.365-.645.216-.245.787.31.668-.045.287-.163 1.162.13 1.289.366.512-.062-.314-.166-.145-.368-.385-.145-.619-.061-1.226-.235-.045.12.147.206-.158.211-.6.071-.602-.39-.738-.44l.287.007c-.333-.182-.507-.049-.881-.163-.018-.36.615.126.814-.04l-.21-.311c-.585-.192-.235.229-.821-.021l.103-.102-.398-.022c-.036.122.003.33.332.391-.292.268-.306-.042-.84-.079-.204.152.223.028.194.211.012.178-.339.113-.6.094-.417-.086-.175-.243-.323-.401.085-.015.417.026.36.125.563-.087-.153-.43.239-.49-.388-.19-.416.033-.64.052.123.047-.088.176-.01.26-.78.381-.388-.437-1.087-.448.099.338-.952.336-.5.754-.167.035-.374.103-.536.053.197-.21-.283-.195.05-.382l-.244-.02.393-.238c-.26-.172-.712-.357-.857-.473-.37.075.103.212-.323.254.155-.113-.104-.214-.294-.214.375.093-.004.316-.237.367-.368-.001-.667-.21-.614-.26l.36-.19c-.278.162-.123-.093-.407-.015-.079.127-.248.325-.332.488-.233.067-.412-.086-.494-.052l.37-.154c-.496.077-.128-.335-.644-.22l-.12.19c-.105-.012-.168-.085-.073-.162-.071.134-.372.148-.496.21l-.054-.109c-.222.102-.354.385-.687.223.232.24.294-.066.605.022.229.174-.291.23-.37.285-.024-.294-.546.08-.794.124-.17-.074-.31-.095-.416-.138l-.053.21c-.189-.354-.47.226-.78.193.111-.155.05-.294-.166-.286.347.192-.33.468-.19.624-.527.056.002-.375-.204-.52-.184.275-.61.05-.672.385.382-.062.008.191-.018.335-.445.156.027-.145-.319-.115-.172.113-.322.408-.011.37-.274.054-.458.394-.794.38-.194-.113.481-.315.27-.352-.6.25-.11.533-.613.85.267-.03.19.358-.004.577-.602.221.197-.22-.124-.309l-.212.147c-.474-.105.45-.8.027-.867l-.21.226c.017-.107.028-.289-.119-.31.034.223-.584.358-.597.442.038.187.174-.17.204-.021-.24.204-.2.533-.657.681.155-.243-.214-.158-.179-.301-.237.058.053.219-.282.308l-.027-.11c-1.058.638-2.27 1.627-2.726 2.665-.262-.002-.554.254-1.084.586.239-.142.139.122.052.246l-.35.068c-.332.177-.5.656-.63.973-.07.014-.125-.01-.18-.034-.305.152-.116.33-.158.453l-.243.064.082.126c-.134.296-.422.596-.585.419-.043.122-.084.245.07.166-.302.16-.806.866-1.067 1.372.2-.187.25-.124.385-.06.163.212-.12.073-.116.347-.08-.048-.298.114-.21-.155-.686.453-1.02 1.495-1.517 2.302-.058.187.007.153.026.268-.479.431-.586 1.198-.909 1.764.152-.095.35.207.224.536.052.435-.332.04-.573.332.037.203-.042.528-.097.657l-.03-.02c.045.228-.017.61-.162.772l-.003-.045c-.074.198-.267.4-.31.62.162.149-.1.64.036.806-.025.02-.032-.023-.083.027l.156.055-.173.41c-.046-.109-.112-.146-.133-.276-.2.44.12.188.162.446.057.342-.1.293-.2.437-.054-.147.084-.23.07-.314-.095-.207-.09.185-.184.175-.019.068.173.132.09.36-.06.202-.048.692-.223.611.074.189.033.395.1.535.051-.164.13-.465.248-.488.006.155.02.456-.062.496l-.032-.125c.032.125-.07.56.12.346l-.26.295c.132.129.113.443.137.702-.184.007-.382-.214-.441.277l.173.424c.018.22-.016.279-.127.246-.07.766.535.753.401 1.347-.233-.233-.246-.024-.272.247.037.008.113.025.132.133.09-.083-.167-.141-.045-.357.129-.073.118.233.174.35-.435.576.098 1.749.053 2.627.239-.11.163.356.298.504-.28.013.163.456.057.722l.23-.192c-.035.548.617.694.4 1.09.01.303-.218-.035-.297-.14-.153.474.533.957.356 1.357.114-.004.239-.176.454.116-.01.3.057.873-.008.844.13.198.24.219.255.488-.076.006-.129-.09-.19-.152.101.397.343.646.58.925-.11.292.317.873.431 1.336.342.11.261.715.574.58-.036.008-.044.077-.047.112.173.1.425.113.55.29l-.221.05c-.26.097.275.562.193.686.06-.26.123.218.277.139l.203.174c.277.306.116-.02.425.378.171.23-.151.223-.183.126.045.258.225.425.407.595-.046-.063-.05-.092.036-.055-.02.02-.018.05-.008.08.069.066.138.132.2.205-.007 0-.007.003-.012.005a2.697 2.697 0 0 1-.185-.197c.023.063.082.14.143.22-.004.017.013.038.044.06.048.07.088.14.095.199l-.177.048c.104.147.557.416.602.36.318.63 1.158 1.415 1.555 1.687-.086-.032-.128-.006-.026.018.193.15.483.239.422.332.211.116.068.235.308.503-.02.03.156-.084.069-.139.258.609 1.107.825 1.56 1.406-.052-.025-.176-.004-.255.002.486.284.947.554 1.454.694-.087.031-.117.099-.244.052.241.185.542.348.773.396a.132.132 0 0 1-.04-.022c-.139-.277.35-.128.533.046l-.013.036c.316.21.374.15.7.336.146.199-.194-.06-.172.076-.067.274.66.591.712.659.107-.005.242.023.264-.048.292.087.037.212.228.295l.956-.075c-.066.047.134.324-.13.295.564.26 1.02.102 1.429.089.151.108.73.241.921.296.042.166-.158-.063-.237.02l.228.262c-.393-.108-.039.255-.285.282.344.016 1.053.362 1.514.562-.242-.386.683.023.733-.251.565.09.222.285.42.396.601.063 1.157.189 1.698.264l-.03.052c.5.023 1.312.132 1.821-.056-.025.053.017.11-.114.141.528.14.118-.328.725-.153l-.148.136c.385-.13.746.127 1.182-.078.016.074-.079.097-.142.136.401-.04.857-.063 1.181-.268.06.086.011.165-.143.239.406.077.412-.273.778-.21.106.003.314.107.246.116.168-.14.71-.224.898-.3.064.081.21.088.45.147 1.96-.354 3.972-.905 5.655-1.976.427.116-.351.338-.076.426-.12-.217.297-.165.777-.559l.037.018c.2-.174.4-.114.607-.319l-.04-.048c.172-.279.736-.07.705-.408l.277.004c.08-.397.426-.211.58-.61l-.004.063c.467-.2.628-.821.887-.8.274-.316.583-.68.49-.88.12-.003.169.124.174.218 1.052-1.118 2.11-2.499 2.563-3.804.07-.037.061.055.082.115.17-.86 1.083-1.405.852-2.186l-.1-.282c.145-.15.27-.086.39-.202-.056-.198.26-.721.103-.876.102-.06.089.068.144.084.15-.36 0-.867.162-1.194l.052.134c.863-1.725 1.337-4.316.799-5.875-.12-.422.237-.208.193-.398-.391-1.476-.43-3.362-1.289-4.585.005-.04.007-.08.023-.124.02-.058-.074-.06-.164-.072-.012-.013-.02-.03-.03-.042l.068-.013a.31.31 0 0 0-.098-.027c-.006-.013-.013-.02-.02-.03l-.004-.057c.058.005.111.01.177.011.053-.095-.335-.116-.113-.205.033-.054.005-.091-.079-.101l.002-.027c.018-.005.034-.013.058-.009a.113.113 0 0 0-.055-.072c.016-.923.28-1.803.709-2.658.035-.433.052-1.02.293-1.37.417-1.662 1.608-2.965 2.413-4.476-.114.032-.16-.116-.138-.211l.067.02-.051-.2c.061-.12.19.041.151.148.38-.577.76-1.081 1.204-1.589-.142-.185.235-.265.072-.446.055.008.044.037.065.082.095-.169.158-.277.227-.35.043.05.098.081.158.073a.255.255 0 0 1-.118-.11.528.528 0 0 1 .182-.1c.021.044.048.083.087.109-.027-.165.113-.136.176-.177l.054-.013c1.128-.91 2.17-1.866 3.33-2.694l.052-.01c-.013.002-.018-.004-.028-.006.057-.04.116-.076.173-.116l.029.013c.119.008.195-.085.253-.198.075-.052.148-.103.225-.152.095.02.115-.02.113-.075.05-.03.097-.068.148-.097V58.1l.007-.003c.093-.063.188-.122.28-.185.014.018.029.026.04.05a.24.24 0 0 0 .026-.092c.048-.032.095-.061.142-.093.187-.06.4-.202.54-.347h-.01a10.6 10.6 0 0 1 .174-.112c.375-.034.66-.398 1.029-.54.044-.053.035-.082.029-.12.027-.019.053-.035.08-.052.321.02.505-.318.806-.36-.023-.011-.039-.04-.055-.069.115-.064.226-.132.342-.193a.252.252 0 0 0 .114.069.38.38 0 0 1 .23-.235l.012.035c.008-.026.02-.05.032-.072.1-.052.201-.1.303-.15.103-.013.22.043.338-.026-.024-.105.047-.15.116-.198.097-.047.189-.098.288-.142.009-.027.021-.046.033-.07-.007.062.001.122-.026.175.22.018.048-.132.063-.255a.542.542 0 0 1 .087-.11c.054-.01.103.065.169.091-.026.1-.12.008-.142.05-.026.153.106.013.147.098.032-.008-.034-.196.083-.204.096-.021.286-.157.327.02.04-.119.136-.14.165-.24-.084 0-.234.014-.293-.085.058-.05.174-.151.222-.087l-.037.066c.037-.064.251-.095.092-.21l.219.16c.001-.146.129-.193.237-.25l.025.002c.058.171.039.38.268.356l.13-.232c.094-.046.134-.016.152.094.307-.003.245-.405.398-.498a.25.25 0 0 0 .11.124c.014.098.094.098.197.114a.535.535 0 0 1-.003-.056c.029.003.048.011.082.011.06-.025.121-.051.182-.079.311.046.667-.235 1.025-.117-.086-.25.16-.111.222-.223.032.274.214-.095.358.047l-.116-.251c.104.04.177-.021.237-.094.115-.029.235-.043.35-.058.035.068-.07.17-.109.215.243.25.464-.34.672-.053 0-.073-.034-.17-.016-.263.114.014.219.005.319-.016.108.051.196.1.187.129.103-.068.12-.156.256-.078-.002.073-.053.089-.086.124.203.046.34-.091.497-.212.13.19.457.043.689.127.092-.251.333.011.348-.225.005.001.01.001.014.003.002-.005.007-.007.009-.011l.027.051c.032-.047.061-.118.092-.185a.272.272 0 0 1 .124-.037l-.005.088c0 .273.303.016.346.157-.108-.18.121-.005.115-.17l.056-.035a.31.31 0 0 0 .189-.097l-.004.073c.066-.011.139-.015.206-.024-.012.045-.033.085-.053.075.128.105.242.033.36-.022-.044.003-.063-.01-.025-.06.005.03.021.042.039.053a.427.427 0 0 1 .129-.04c0 .005.002.007 0 .011a1.006 1.006 0 0 1-.126.034.268.268 0 0 0 .13.016c.006.01.017.008.03 0 .042.002.082.007.11.037l-.023.171c.085.003.31-.204.3-.275.344.125.893-.04 1.117-.137-.043.038-.048.093-.004.035.115-.032.243-.175.257-.067.113-.068.108.117.282.133.003.037.023-.169-.026-.146.252.216.558-.037.86-.03l.165.038c-.027.02-.066.106-.092.158.111-.036.22-.07.329-.11.224.039.45.05.675-.016.077-.037.06-.092.074-.135.02-.012.035-.028.053-.044.122.02-.013.127.04.174.301-.163.678.079 1.046.098.046-.064.151-.075.124-.175.383.317.98-.047 1.374.233-.105-.378.267-.16.425-.224.082.03.077.123.042.189.314-.002.487.011.84.161.178-.016.259-.203.457-.118.084.271.425.097.61.23-.013-.222.279-.338.463-.205l-.123.283c.688-.079 1.515.474 2.346.329l.008.185c.826-.01 1.482.475 2.316.401.163.16.455.316.641.392.311-.031.395.024.663-.124.103.025.107.18.12.252.306.182.511.538.885.392l-.053.142c.322-.04.763-.02.966.278.137-.08.441.018.393-.203.126.028-.043.263.142.18l-.205.14c.601.373 1.192.526 1.829.802.037.323.572.314.828.637.272 0 .5.37.81.21l-.072.132c.236.192.571.43.853.722.165.167.295-.012.492.033l-.08.128c.218.043.402-.111.556-.189.065.176.149.094.207.276-.165-.034-.376.029-.579.13.166.187.588.049.564.33.129.18.293.236.43.09-.074.022.032.176-.114.171.118.092.208.134.324.134-.018-.022-.034-.058-.06-.074.092-.042.17-.026.242-.043.055.043.11.085.164.124-.084.03-.179.035-.158.13l.338-.013c.058.036.115.073.171.103.049.03.063.061.063.089-.192.043-.116.193-.158.314.026-.023.039-.058.055-.089.108.052.201.116.285.189 0 .026.021.127-.11.058.012.1.09.079.173.034l-.04-.07c.117.107.215.23.302.365-2.975-.735-5.46.033-5.46.033-2.359.337-.606 1.01-.606 1.01 4.243-.53 7.892 1.284 8.01 1.344-.014.092-.014.174.022.229-.03.019-.03-.026-.089.022l.15.068-.23.425c-.031-.116-.094-.16-.097-.3-.26.456.09.205.11.487.032.374-.121.312-.23.464-.044-.163.1-.245.091-.338-.079-.23-.103.195-.195.18-.024.07.163.153.065.396-.075.215-.144.74-.302.643.06.211.003.432.058.59.065-.176.168-.498.285-.514-.006.167-.012.498-.1.535l-.02-.139c.02.139-.116.607.09.385l-.285.305c.104.146.067.49.069.774-.184-.004-.364-.26-.46.276l.14.473c.004.184-.043.287-.149.226-.143.838.437.88.276 1.517-.226-.275-.239-.048-.292.249.037.01.11.037.12.157.098-.083-.155-.17-.014-.396.132-.07.095.268.144.401-.479.595-.021 1.93-.073 2.882.25-.106.15.401.279.572-.277-.003.135.514.048.793l.227-.197c-.01.59.62.79.393 1.213.007.33-.217-.048-.291-.169-.184.519.581 1.054.374 1.492.114 0 .241-.182.452.148-.005.325.092.942.023.908.145.218.25.247.264.542-.076.005-.129-.103-.19-.174.09.443.36.713.612 1.021-.085.303.334.965.488 1.453.36.129.303.773.608.644-.036.007-.044.084-.046.121.178.116.442.136.579.329l-.226.047c-.262.093.313.605.234.736.046-.274.14.232.288.158l.213.196c.301.337.119-.016.457.419.189.246-.145.229-.183.124.06.274.254.46.447.648-.05-.07-.053-.1.04-.058-.022.022-.019.053-.01.087.075.072.148.145.214.225l-.008.005a4.068 4.068 0 0 1-.202-.217c.024.069.09.154.158.243-.005.016.016.037.045.063.055.075.1.15.11.214l-.18.042c.114.16.595.462.64.404.355.683 1.268 1.545 1.692 1.848-.092-.04-.137-.013-.029.018.206.164.514.273.453.367.225.134.079.251.34.543-.02.03.159-.08.067-.14.301.637 1.183.926 1.688 1.544-.06-.029-.19-.014-.272-.014.524.322 1.002.647 1.558.809-.093.027-.124.095-.264.043.338.247.757.503 1.003.49-.182-.232-.07.063-.219-.058-.15-.297.37-.105.564.09l-.013.034c.335.241.413.163.756.39.154.216-.206-.08-.182.062-.07.28.702.666.757.738.113.007.26.036.283-.034.32.102.049.21.252.311l1.016.012c-.07.042.139.344-.142.29.61.296 1.104.167 1.539.203.153.14.788.296.997.365.04.173-.17-.079-.26.003l.242.284c-.419-.151-.047.256-.31.258.368.055 1.112.491 1.62.692-.25-.415.733.095.794-.172.609.147.234.303.445.43.665.06 1.237.329 1.835.393 0 0 .001.039-.034.052.55.034 1.416.272 1.99.07-.031.052.012.112-.133.138.572.167.147-.34.797-.094l-.167.118c.427-.074.809.167 1.298-.013.013.074-.093.093-.164.13.441-.033.94.01 1.305-.203.061.086.003.165-.17.234.44.09.466-.261.863-.185.114.006.336.116.264.122.19-.12.784-.203.994-.27.066.082.225.091.486.156 2.16-.31 4.36-.967 6.188-2.148.45.089-.382.379-.092.448-.116-.206.304-.222.863-.583l.04.02c.22-.19.43-.146.653-.371l-.042-.047c.192-.301.78-.124.76-.469l.308.007c.111-.393.456-.25.628-.672l-.004.066c.49-.254.67-.91.955-.897.282-.36.602-.773.504-.973.124-.016.177.113.184.21 1.089-1.278 2.14-2.883 2.445-4.37.07-.048.066.05.092.11.164-.92.928-1.693.65-2.48l-.125-.278c.135-.187.266-.138.36-.288-.094-.205.115-.833-.038-.967.095-.082.095.058.153.065.126-.411-.085-.927-.01-1.313l.078.135zm-94.553 4.114a.429.429 0 0 0-.123-.178l.102.05c-.077-.112-.003-.123.108-.144l-.087.272zm-4.024 5.308l-.055-.035a.176.176 0 0 0 .018-.016l.037.051zm1.981-3.305c.052.037.082.07-.001.07l-.033-.03.034-.04zm.77-1.199c-.001-.003-.006-.005-.01-.006.002 0 .002-.002.002-.002l.008.008zm.956-7.92h-.009c-.006-.023-.01-.046-.017-.067.046.018.072.039.026.066zm-.228-.561a.8.8 0 0 0 .121.024c-.011.035-.047.03-.092.026l-.029-.05zm-.815 8.615c.047.045.092.089.126.127-.055.007-.01.14-.018.176-.134-.053.023-.021-.072-.08l-.144-.028c.037-.065.073-.129.108-.195zm-.813 1.256c-.008-.004-.01-.008-.016-.012.001-.004.003-.005.004-.007l.012.02zm-.023.189l-.095-.079c.01-.01.018-.023.028-.032.01.03.027.066.067.111zm2.322-2.779a.51.51 0 0 0-.107-.04c-.087-.061.028-.044.13-.032l-.023.072zm.06-.187c-.033-.053-.025-.058.012-.042l-.013.042zm-.17-6.796c.095-.037.406.001.514.048-.076.103-.108-.045-.332-.01l.034.042c-.255.042-.437-.064-.635-.075a.944.944 0 0 0-.045-.108c.102.045.414.027.464.103zm-.29-.082c-.163.016-.1-.068-.19-.06l-.023-.056c.066.006.137.005.174-.016-.06.04.213.087.039.132zm-.04-.329c-.057.045-.168.034-.289.021-.017-.026-.033-.05-.051-.072.129.014.208.06.34.051zm-2.057 10.19c.014-.014.027-.032.04-.048.037.042.066.08.02.08-.019.009-.131-.028-.131-.041.087.093.037.168.06.222a.41.41 0 0 0-.14-.046.677.677 0 0 1 .12-.294l.03.128zm-26.183 5.67c-.046-.033-.093-.065-.14-.096.008-.006.018-.01.021-.02.103.035.123.074.12.115zm7.92-39.128c.138-.23-.27-.16-.012-.385l-.212.008.037-.034c.175.021.348.049.517.07-.016.066.01.138.118.219-.136.064-.303.15-.448.122zm1.92-.36c.211-.022.427-.025.643-.009-.097.049-.276.053-.427.076-.127-.003-.185-.03-.216-.066zm2.962.72c-.072.019-.196.081-.307.05-.026-.143-.005-.328-.139-.447l.403.087c.018.12.111.163.043.31zm3.345.758c-.102-.032-.132-.07-.137-.105.079.039.166.074.26.11-.041 0-.086-.007-.123-.005zm6.166 3.512c-.154-.016-.266-.166-.233-.268l.038-.001c.078.14.139.203.195.269zm-10.18-4.944l-.041.026c-.006-.003-.015-.005-.021-.01a.266.266 0 0 0 .061-.016zM94.35 55.215l.184.094c.008-.007.019-.012.027-.02-.005.105-.035.211-.187.326.234-.026.211.348.063.556-.51.207.15-.208-.145-.298l-.172.138c-.287-.07-.066-.377.01-.6.073-.065.15-.13.22-.196zm-6.874 33.4c.055.038.102.08.124.12a7.462 7.462 0 0 1-.124-.12zm1.956.16c-.2-.053-.179-.26-.216-.468.134.085.263.148.211.214.084.053.095.105.105.17-.036-.006-.07.01-.1.084zm.57.47c.295.296.732.523.988.893-.044-.02-.145-.006-.218 0a3.025 3.025 0 0 0-.251-.122l.113-.047c-.379-.216-.477-.406-.632-.723zm1.223 1.193c.245.146.491.277.762.36-.061.018-.098.059-.158.06-.205-.12-.401-.27-.604-.42zm1.165.641c-.002 0-.004 0-.007-.002.087-.066.358.046.464.17l-.018.032c.256.2.326.135.579.335.093.2-.161-.068-.163.066-.008.02-.005.039-.007.06a19.363 19.363 0 0 1-.848-.661zm2.008 1.47l.65-.028c-.071.042.077.31-.16.282.48.237.897.112 1.253.122.107.129.608.251.77.308.013.16-.129-.07-.212.014l.164.261c-.327-.127-.07.247-.288.261.216.02.56.23.88.417-1.051-.455-2.074-1-3.057-1.638zm24.072-1.368c.187-.068.134.146.03.293l-.078-.02-.09.297c-.176.19-.23-.032-.092-.198-.968.945-1.95 1.69-3.124 2.292.036.254-.593.356-.538.572-.079-.016-.029-.048-.014-.106-.807.465-.865.528-1.756.554-3.517 1.003-7.062 1.554-10.57.78a22.044 22.044 0 0 1-4.431-1.31c-.053-.276.606.09.677-.158.476.117.157.293.314.414.51.092.976.243 1.435.34l-.03.05c.43.05 1.113.217 1.57.032-.027.053.005.111-.111.138.445.165.127-.34.63-.098l-.134.118c.337-.086.627.16 1.017-.023.008.074-.076.095-.133.132.347-.043.735.005 1.03-.166.043.09-.005.165-.144.221.339.122.376-.225.682-.12.09.017.256.136.2.141.154-.127.623-.142.792-.197.045.087.17.112.368.199 1.705-.026 3.476-.303 5.042-.969.352.199-.339.261-.113.402-.079-.237.272-.108.738-.361l.03.026c.192-.125.358-.023.56-.176l-.03-.055c.182-.232.64.092.656-.237l.248.089c.132-.327.406-.07.59-.416l-.013.058c.428-.082.64-.649.88-.53.304-.185.628-.435.565-.66.104.026.132.161.124.25.562-.413 1.163-.856 1.691-1.336.086.2.2.38.2.38.224-.506.706-.59 1.29-.683.092-.15.189-.362.37-.391.05-.049.104-.092.16-.136-.162.19-.322.382-.488.568zm73.148.625l.134-.036c-.016.018-.01.052 0 .09-.045-.017-.088-.037-.134-.054zm-28.722-38.922c-.008.042-.026.07-.057.08a.882.882 0 0 1-.198-.054c.028-.114-.066-.12-.172-.11a1.756 1.756 0 0 1-.13-.123c.185.066.37.136.557.207zm17.343 2.873c.003-.01.002-.017.003-.025.103-.122.214-.244.272-.335l.004-.001a.545.545 0 0 1-.28.36zm3.795-3.385l.003-.003.002.005-.003-.002h-.002zm4.967-1.339c.104-.248-.277-.114-.078-.364.062-.027.128-.051.187-.08l.158.143c.013-.005.026-.006.04-.011.02.045.055.088.136.13-.13.084-.292.19-.443.182zm2.158-.592c-.193.02-.246-.028-.274-.095.255-.04.51-.075.762-.105-.032.114-.291.151-.488.2zm2.475-.335c-.263.136-.42.069-.529-.025.221-.025.44-.056.66-.09.015.034 0 .065-.131.115zm-9.184 2.04a.29.29 0 0 1-.044.03c-.017-.004-.03-.002-.048-.004.03-.013.06-.029.09-.037l.002.012zm-2.753 2.336c.022.116.034.24-.124.406.238-.07.272.287.18.543-.45.348.098-.251-.206-.26l-.137.184c-.26.005-.17-.288-.129-.526.121-.116.255-.229.416-.347zm-56.237 8.554c-.015.1 0 .195.076.27-.071-.006-.136-.067-.182-.125.016-.072.037-.141.095-.164.003.008.008.013.01.02zm-.673 1.025c.012-.016.022-.015.035-.023a9.062 9.062 0 0 0-.124.252c-.002-.075.05-.155.089-.23zm-.693 1.145c-.03-.295.222-.193.348-.166a1.688 1.688 0 0 0-.034.235l-.02-.001c-.036-.008-.054-.044-.08-.077 0 .04-.01.077-.018.112-.008.007-.017.005-.024.013.008.01.013.007.02.013a.48.48 0 0 1-.03.08c.005-.007.005-.012.01-.02-.098-.084-.17-.018-.172-.189zm16.405-10.91c.002 0 .004.003.007.003-.003-.003-.005 0-.007-.003zm.012.006c.017.003.048.005.07.01-.014.012-.037.012-.07-.01zm3.046-.944c-.013.023-.024.045-.042.061.008-.02.026-.04.042-.061zm4.01-.314l.028-.002-.077.028a.142.142 0 0 1 .048-.026zm3.854-.235c.007-.007.01-.015.021-.018.004 0 .002.002.005.002-.003.01-.013.014-.026.016zm17.227 3.801l.057-.027c.029.082 0 .158-.013.229-.016-.002-.034-.007-.05-.007-.108-.072-.02-.146.006-.195zm.907.617c.06.016.11.044.137.094a1.14 1.14 0 0 1-.137-.094zm9.336 27.257c.06.043.11.089.133.132-.038-.039-.083-.084-.133-.132zm13.485 7.602c.209-.048.397-.126.575-.156.143.082.671.132.849.153.051.153-.149-.036-.213.056l.227.22c-.196-.025-.182.055-.163.142a25.61 25.61 0 0 1-1.275-.415zm20.11-3.808c.192-.089.14.138.036.3l-.083-.01-.087.317c-.182.216-.24-.013-.1-.198-.989 1.08-2.066 1.865-3.318 2.564.02.247-.691.347-.63.588-.082-.01-.029-.05-.011-.11-.873.573-.962.589-1.938.652-3.734 1.182-7.613 1.477-11.384.478.122-.089.625.032.64-.192.512.005.226.248.413.33.542-.035 1.043.07 1.532.031l-.02.057c.447-.063 1.174.004 1.6-.295-.017.058.026.108-.086.16.481.062.066-.36.623-.234l-.116.145c.329-.157.672.072 1.04-.165.022.073-.062.103-.114.147.351-.073.754-.116 1.026-.343.058.079.021.163-.11.246.367.052.347-.3.676-.259.093-.003.285.085.227.098.139-.143.622-.214.786-.288.063.085.193.088.408.13 1.717-.41 3.53-.86 4.979-1.91.39.117-.296.335-.044.424-.114-.208.242-.192.692-.498l.037.02c.185-.138.365-.083.538-.281l-.037-.05c.138-.272.655-.057.61-.388l.266.03c.064-.365.401-.153.535-.517v.063c.407-.189.502-.809.765-.75.256-.268.543-.58.446-.772.113.003.17.128.174.215.894-1.04 1.874-2.242 2.194-3.444.066-.033.066.052.09.107.081-.788.95-1.276.658-1.98l-.13-.253c.125-.139.252-.082.357-.19-.08-.179.169-.659.027-.786.1-.055.09.058.147.07.162-.314-.061-.77.055-1.069l.067.118a7.76 7.76 0 0 0 .334-.9c-.3 3.206-1.805 6.172-3.77 8.592z"/><path d="M207.438 54.04l.733.555c-.218-.24-.624-.606-.733-.556M173.705 74.429l.114.236-.001-.225-.113-.011M193.11 94.246l.018-.224-.09.202.072.022M195.596 92.978l.063.005-.015-.22-.048.215M142.56 53.92l.098-.074-.105-.035.007.11M144.842 51.241l-.106.073.105.035.001-.108"/></g></g></svg>