<?xml version="1.0" encoding="UTF-8"?>
<svg width="200px" height="200px" viewBox="0 0 200 200" version="1.1" xmlns="http://www.w3.org/2000/svg" xmlns:xlink="http://www.w3.org/1999/xlink">
    <!-- Generator: Sketch 52.2 (67145) - http://www.bohemiancoding.com/sketch -->
    <title>img-theywilluseit</title>
    <desc>Created with Sketch.</desc>
    <defs>
        <rect id="path-1" x="0" y="0" width="200" height="200"></rect>
        <path d="M67.189841,88.5550199 C67.449756,88.6495349 67.7099608,88.7674618 67.9701656,88.8616877 C67.4972767,88.6258339 67.189841,88.5550199 67.189841,88.5550199 L67.189841,88.5550199 Z M73.8812767,101.078973 C73.8812767,101.078973 88.0679434,115.230203 79.3194989,129.782326 C79.3194989,129.782326 78.4444227,133.367246 80.8088671,129.121877 C85.5852767,120.513213 83.7409521,109.098003 75.7490719,100.560153 C75.7490719,100.560153 75.4653965,92.1399402 67.9701656,88.8853887 C69.4832941,89.6871761 72.6990545,92.375794 73.8812767,101.078973 L73.8812767,101.078973 Z M159.828832,29.0256312 C159.805072,20.6291196 150.891174,18.6009502 150.205312,18.4593223 C103.436832,6.66663123 58.2759434,18.0818405 57.8265251,18.1763555 C48.4397386,20.3932658 47.99061,28.6718505 47.9668497,29.8040066 C46.6901656,36.1720598 46.1935163,44.1673887 46.4299608,54.8045116 C46.3354989,54.7099967 46.2172767,54.6157708 46.1225251,54.5449568 C46.1225251,54.5449568 40.9917386,50.9834485 37.8234989,55.2288173 C37.8234989,55.2288173 36.5702854,55.9129668 37.5870545,57.6818704 C37.5870545,57.6818704 40.9917386,66.8093555 41.5828497,69.4274485 C41.5828497,69.4274485 43.0725076,75.2058671 47.3519782,80.4417641 C47.3519782,80.4417641 47.7304052,81.3614784 48.3925076,82.7294884 C49.361756,93.9088439 50.1420806,103.390399 50.165841,103.437512 C50.1893115,103.838405 50.5677386,113.201744 52.5302854,120.371874 C52.5775163,120.489801 53.1923878,122.35293 54.8709695,124.121834 C53.9251917,124.121834 53.2868497,124.263462 52.9794139,124.546429 C52.7192092,124.758581 52.5775163,125.088661 52.6012767,125.41903 L52.6485076,126.338744 L52.6485076,126.409558 C52.8377211,127.871794 53.0738758,130.489887 52.9559434,131.268262 C52.7429695,132.305904 52.2700806,134.310661 51.7262004,136.221193 C49.2200632,135.678671 46.1935163,135.372003 45.3187298,136.6929 C45.2005076,136.881352 45.105756,137.093794 45.0585251,137.376761 L45.0350545,137.329648 C45.0350545,137.329648 43.781841,150.065754 41.9612767,157.448037 C41.9612767,157.448037 42.67061,160.112953 45.1767473,149.381605 C45.1767473,149.381605 46.3117386,144.994897 46.973841,139.947452 C49.6454314,141.692944 56.8807473,145.678757 71.39861,148.815671 C72.3916187,149.027824 78.9173115,150.395834 84.0718584,150.395834 C85.3960632,150.395834 86.6255163,150.301608 87.665756,150.089166 C86.2236187,154.051568 83.9064052,177.660651 83.9064052,177.660651 C82.6059608,194.571312 84.9231743,182.731508 84.9231743,182.731508 C84.9941656,181.976834 85.0886275,181.198458 85.1830893,180.349269 C88.8245076,182.188987 96.7453965,185.396714 108.260183,185.703382 L108.472867,185.726794 C108.992987,185.726794 109.513397,185.750495 110.009756,185.750495 C125.780542,185.750495 130.698645,181.198458 131.431739,180.396382 C133.11061,179.122887 133.299534,177.613538 133.323294,177.448209 L133.465277,172.070973 C133.465277,170.65585 131.975619,169.311252 131.597192,169.028286 C125.922525,163.745276 116.370285,161.76393 114.194765,161.386738 L113.911089,139.334405 C115.188063,139.216478 116.511978,139.027738 117.930645,138.791884 L120.058645,134.97111 C139.092423,133.862654 151.765961,129.758625 152.546285,129.499359 C157.204183,128.249276 158.480867,123.909392 158.504627,121.716183 C163.327978,77.0689967 159.946765,30.605794 159.828832,29.0256312 L159.828832,29.0256312 Z M50.9224052,138.650545 C50.165841,138.461804 48.6524227,138.131435 48.1088322,138.367289 C47.6594139,138.06091 47.3285076,137.848468 47.1630545,137.70713 C47.8958584,137.589203 49.5274989,137.70713 51.1588497,138.037209 C51.0643878,138.249362 50.9933965,138.461804 50.9224052,138.650545 L50.9224052,138.650545 Z M49.2672941,80.0408704 C49.1253115,79.7813156 49.0070893,79.5454618 48.9126275,79.333309 C47.4939608,76.1726944 45.3897211,74.4037907 43.4506449,68.0828505 C43.4506449,68.0828505 40.4716187,57.4931296 39.2421656,56.3609734 C39.2421656,56.3609734 42.1977211,51.5259701 46.6664052,58.17699 C46.6664052,58.17699 49.101841,62.4931728 49.05461,65.9601661 C49.05461,65.9601661 50.9933965,69.4508605 53.4760632,73.2953355 L53.4760632,73.4369635 L53.5470545,73.4369635 C55.060183,75.7718007 56.7625251,78.2011528 58.3466449,80.0642824 L58.5358584,80.4180631 C58.5358584,80.3709502 58.5358584,80.3238372 58.5123878,80.3001362 C59.7890719,81.7860731 60.9950545,82.8711163 61.9408322,83.177495 C61.9408322,83.177495 64.4469695,84.474691 59.741841,79.4512359 C59.741841,79.4512359 59.2689521,78.7670864 58.5358584,77.7294452 C58.7488322,73.2011096 59.6470893,65.1583787 59.6470893,65.1583787 C60.001756,60.6771561 59.0087473,49.8986944 59.0087473,49.8986944 L57.4483878,38.483196 C56.0769521,35.7237641 58.7250719,35.4170963 58.7250719,35.4170963 C64.5417211,34.8748638 65.5582004,48.3419435 65.5582004,48.3419435 C65.9366275,49.3324718 66.6459608,60.1346346 66.6459608,60.1346346 C67.6627298,62.6819136 68.3010719,68.2244784 68.6319782,71.9981395 L68.7267298,73.1537076 L68.9631743,78.2953787 C72.2261656,73.7433422 70.5945251,66.7856545 69.5305251,63.460289 C70.4053115,59.497887 72.9354989,51.8089369 72.9354989,51.8089369 L74.4958584,43.6956811 L74.7795338,31.6200233 C74.9452767,30.605794 77.2859608,30.3228272 77.2859608,30.3228272 C83.8826449,31.1717276 81.2110545,46.5259269 81.2110545,46.5259269 C82.2040632,48.9081661 79.7686275,58.9553654 79.7686275,58.9553654 C79.5084227,68.0123256 75.3944052,73.3661495 75.3944052,73.3661495 L75.2051917,76.1255814 C77.5461656,76.4322492 78.4919434,77.1398106 78.4919434,77.1398106 C78.7990893,76.4793621 77.4279434,75.4417209 77.4279434,75.4417209 L77.7116187,73.9086711 L91.7090719,66.8093555 C91.7090719,66.8093555 93.4586449,64.875412 96.7216362,67.5169169 C96.7216362,67.5169169 101.828952,69.8283422 105.328388,70.6301296 C105.328388,70.6301296 106.983499,71.337691 107.787294,73.1302957 C107.787294,73.1302957 109.607858,76.668103 111.026525,78.8379003 C111.026525,78.8379003 111.073756,78.9795282 111.121277,79.1916811 C110.76661,79.3567209 110.411943,79.4746478 110.411943,79.4746478 C108.591089,78.3424917 108.189192,74.6867575 108.189192,74.6867575 C106.935978,76.3143223 109.15873,79.285907 109.15873,79.285907 C109.70261,80.0408704 110.388183,80.0879834 110.388183,80.0879834 C110.719089,80.0642824 110.955534,79.9934684 111.144747,79.8755415 C111.073756,80.6539169 110.482645,81.5265183 108.070969,81.0785116 C108.070969,81.0785116 102.916423,80.53599 101.947174,75.323794 C101.947174,75.323794 100.859414,77.0926977 94.6646275,75.4180199 L92.9150545,73.6728173 C92.9150545,73.6728173 91.4016362,72.5877741 93.1987298,76.2672093 C93.1987298,76.2672093 90.3848671,80.630505 85.0651569,81.0548106 C85.0651569,81.0548106 78.6573965,76.2198073 80.5017211,78.3661927 C80.5017211,78.3661927 83.1733115,79.309608 83.7409521,82.1161528 C83.7409521,82.1161528 83.1733115,84.1917243 82.3222854,85.6776611 L84.0718584,92.5411229 C84.0718584,92.5411229 85.3013115,96.5506379 89.912268,99.1684419 L90.5740806,99.7580764 C87.7605076,100.276897 84.4740458,100.111857 84.4740458,100.111857 C87.1456362,102.21113 93.6243878,100.701492 93.6243878,100.701492 L94.3337211,100.465638 C96.2959782,99.7346645 99.0153791,97.5882791 101.828952,94.5929934 C102.088867,95.5598206 102.656508,95.7956744 102.656508,95.7956744 C102.396303,95.017588 102.514525,94.1212857 102.656508,93.4845382 C103.176627,91.8335615 105.754046,84.4512791 110.104508,82.2814817 C110.624627,82.2340797 111.144747,82.1161528 111.617636,81.904 C112.563414,82.0219269 114.786166,82.4699336 115.093312,83.8616445 L112.397961,92.2107542 C112.397961,92.2107542 112.279739,96.338196 111.523174,98.3666545 C111.523174,98.3666545 110.601157,100.135558 109.773601,100.701492 L105.517601,104.711007 C105.517601,104.711007 96.93461,111.692395 96.2487473,117.824595 C96.2487473,117.824595 93.8608322,124.168947 86.1291569,125.25399 C85.4905251,125.348216 84.8994139,125.701997 84.4975163,126.220817 C83.7171917,127.235047 82.5349695,129.310618 81.7546449,133.202206 C72.9827298,133.886066 64.9908497,131.173748 60.2382004,129.051063 C60.0020458,124.876508 59.1507298,108.343329 59.5998584,100.866532 C59.5998584,100.866532 56.3606275,94.7580332 55.9822004,90.9372591 C56.0297211,90.8901462 51.0878584,83.6020897 49.2672941,80.0408704 L49.2672941,80.0408704 Z M114.218525,92.1399402 L121.004423,83.4370498 L119.112867,89.3096944 C119.089397,89.6871761 118.971174,93.4608372 118.238081,95.3947807 C118.19085,95.4890066 117.292303,97.1873854 116.464747,97.7770199 L112.326969,101.69202 C112.232508,101.762834 103.980423,108.579183 103.31861,114.451827 C103.29485,114.522641 101.947174,117.989635 98.1640632,120.230246 C97.8803878,120.725654 97.5257211,121.244475 97.0528322,121.810409 C99.9608671,120.607728 103.814969,117.942522 105.091943,112.11699 C105.139174,111.999063 108.496627,104.828934 114.99885,100.701492 L118.616508,97.0928704 C118.73473,96.8336047 119.845961,94.4750664 119.633277,89.781402 L119.633277,89.734289 L119.656747,89.7108771 C119.680508,89.6400631 121.477312,84.6871329 122.139414,82.0219269 L149.708952,46.6438538 C150.11085,55.9129668 150.465516,70.4887907 149.898166,86.7627043 L120.484303,124.451914 C112.89461,125.08895 103.83873,125.206877 93.9552941,124.027608 C96.4142004,122.235003 98.7314139,119.475571 99.2515338,115.418944 C99.2515338,115.418944 102.443534,108.531781 109.111499,104.310113 L112.634405,101.03186 C112.610645,101.008159 114.431499,97.3287243 114.218525,92.1399402 L114.218525,92.1399402 Z M116.819414,82.3520066 C116.60673,80.8663588 114.762405,80.2530233 112.89461,80.2530233 C113.107294,79.8521296 113.201756,79.3804219 113.012832,78.9087143 L109.253192,72.2576944 C109.253192,72.2576944 108.378405,69.4745615 106.912508,69.5453754 C106.912508,69.5453754 104.737277,68.9557409 102.420063,68.1536645 L105.091943,64.9462259 C106.652303,65.7951262 109.655089,67.3518771 112.043294,67.8943987 C112.137756,67.9415116 113.769397,68.6490731 114.573192,70.4413887 C114.596952,70.4650897 116.370285,73.9320831 117.741721,76.0076545 C117.765192,76.0547674 117.812423,76.1963953 117.859943,76.4085482 L117.883414,76.5501761 L117.930645,76.7623289 L117.907174,77.1161096 C117.859943,77.6586312 117.528747,78.5783455 115.873636,78.5783455 C115.518969,78.5783455 115.117072,78.5312326 114.691414,78.4604186 C114.667943,78.4604186 113.95861,78.3661927 112.989072,77.988711 C113.107294,78.2482658 113.225516,78.4841196 113.319978,78.6962724 C113.93485,78.8616013 114.667943,79.0029402 115.495499,79.1208671 L115.991858,79.1916811 L115.684423,79.4512359 C115.54273,79.5691628 115.329756,79.7342027 115.093312,79.8992425 C115.069841,79.9229435 115.046081,79.9463555 115.02261,79.9463555 C115.164303,79.9700565 115.282525,80.0171694 115.424508,80.0642824 C115.826405,79.7576146 116.204832,79.4983488 116.60673,79.309608 L116.677721,79.285907 C117.221312,79.238794 117.6942,79.1208671 118.119858,78.9321262 L118.167089,78.9087143 L118.21461,78.9087143 C119.160388,79.0266412 121.430081,79.4746478 121.761277,80.9842857 L121.761277,81.0313987 L121.737516,81.0785116 L121.430081,82.0456279 L114.833397,90.5126645 C115.684712,88.2957542 117.079619,84.1917243 116.819414,82.3520066 L116.819414,82.3520066 Z M73.2191743,31.8087641 L72.8879782,37.6105947 L72.5570719,37.9643754 C70.7365076,32.7755914 67.4025251,32.4689236 67.3552941,32.4689236 C67.1660806,32.4689236 67.0006275,32.4455116 66.8351743,32.4455116 C65.5109695,32.4455116 64.5179608,32.7521794 63.997841,33.294412 C63.6666449,33.6481927 63.5959434,34.0256744 63.5959434,34.1907143 C63.9740806,34.4736811 64.3759782,34.8040498 64.7544052,35.2049435 C64.7306449,34.8511628 64.8016362,34.544495 64.9436187,34.2615282 C65.3927473,33.4360399 66.4567473,33.318113 66.4805076,33.294412 C66.5987298,33.294412 66.7169521,33.271 66.8114139,33.271 C68.892183,33.271 70.6182854,35.1578306 71.8239782,38.7427508 L67.0950893,43.813608 C66.5039782,33.4123389 59.8835338,33.4831528 59.8835338,33.4831528 C59.3634139,33.5068538 58.9142854,33.5539668 58.4886275,33.6247807 C59.2924227,31.5963223 61.1132767,29.2143721 65.1328322,28.2472558 C65.2982854,28.2001429 72.9827298,26.2424983 84.9466449,24.9924153 L80.6434139,29.6152658 C78.6336362,28.2472558 76.3639434,28.3180698 76.3639434,28.3180698 C72.5333115,28.8368904 73.2191743,31.8087641 73.2191743,31.8087641 L73.2191743,31.8087641 Z M67.2843028,47.4930432 L72.6515338,41.4550698 L72.5570719,43.2002724 L71.2328671,50.346701 C70.4528322,51.5259701 69.317841,55.7242259 68.6319782,58.4365449 C68.8211917,53.8845083 67.7337211,49.2145449 67.2843028,47.4930432 L67.2843028,47.4930432 Z M72.6515338,40.7238073 L67.14261,46.9268206 C67.1188497,46.8325947 67.0950893,46.7854817 67.0950893,46.7854817 C67.14261,45.9599934 67.14261,45.2050299 67.1188497,44.4740565 L71.9659608,39.2852724 C72.0131917,39.4266113 72.0604227,39.5919402 72.1079434,39.7569801 C72.1786449,40.0162458 72.2496362,40.2995017 72.3206275,40.5587674 C72.3916187,39.9928339 72.4388497,39.3794983 72.4860806,38.7190498 L72.8172767,38.3652691 L72.6752941,40.7712093 L72.6515338,40.7238073 L72.6515338,40.7238073 Z M85.6559782,24.9216013 C86.1288671,24.8744884 86.6255163,24.8273754 87.1221656,24.7802625 L84.5685076,27.5868073 L84.4030545,27.5868073 C83.7409521,27.6813223 83.1970719,27.8226611 82.7479434,28.011402 L85.6559782,24.9216013 L85.6559782,24.9216013 Z M81.4709695,29.4265249 C81.6364227,29.5681528 81.8021656,29.7331927 81.9676187,29.8982326 L81.9676187,29.6860797 C82.085841,28.9311163 83.10261,28.5539236 83.8354139,28.3888837 L81.7784052,30.652907 C81.5419608,30.3699402 81.2582854,30.1340864 80.9980806,29.9219336 L81.4709695,29.4265249 L81.4709695,29.4265249 Z M81.8021656,59.568701 C83.7644227,53.7194684 83.2680632,46.431701 83.2680632,46.431701 C84.8049521,40.4645415 83.5517386,34.9453887 83.5517386,34.9453887 C83.3625251,33.247299 82.7951743,31.973804 82.085841,31.0303887 L84.6157386,28.2709568 C85.7507298,28.4122957 86.6727473,28.9785183 87.3820806,29.9219336 C90.3141656,33.8840465 88.7772767,43.4835282 88.6352941,44.3561296 C89.5810719,46.8088937 87.3110893,56.2430465 87.2166275,56.6439402 C87.0984052,61.2196777 85.9634139,64.851711 84.8759434,67.3047641 L86.3890719,66.6206146 C87.9022004,62.210206 88.0914139,56.927196 88.0914139,56.8563821 C89.9829695,51.1721894 89.5573115,44.2853156 89.5573115,44.2145017 C90.3848671,36.2662857 89.6755338,33.6955947 89.6755338,33.6718937 C89.108183,28.8368904 86.5545251,27.8463621 85.2068497,27.6576213 L87.8549695,24.7331495 C100.883174,23.5772924 118.19085,23.4122525 136.160627,27.1388007 L105.091943,64.2149635 C104.666285,63.9554086 104.311619,63.7195548 104.027943,63.483701 C104.027943,63.483701 102.585516,62.3989468 100.741192,62.3989468 C99.6062004,62.3989468 98.5422004,62.7998405 97.5964227,63.6016279 L96.177756,64.3091894 C96.4617211,64.4508173 96.7216362,64.6158571 96.981841,64.828299 L98.4477386,63.9554086 C98.4477386,63.9319967 99.369756,63.0593953 100.859414,63.0593953 C101.923414,63.0593953 103.011174,63.507402 104.075174,64.3800033 C104.075174,64.3800033 104.311619,64.5216312 104.689756,64.7337841 L101.947174,68.0123256 C100.079089,67.3518771 98.1875338,66.5498007 97.3127473,65.8188272 C97.3127473,65.8188272 93.4586449,62.7290266 90.1249521,65.4884585 L78.8700806,71.1489502 C81.3527473,66.3613488 81.8021656,59.568701 81.8021656,59.568701 L81.8021656,59.568701 Z M136.515294,27.2096146 C138.383089,27.6105083 140.227414,28.035103 142.095499,28.5068106 C142.1662,28.5302226 149.141312,29.9219336 149.141312,36.2662857 C149.141312,36.3842126 149.425277,39.9457209 149.685192,45.9125914 L122.375858,80.8897708 C122.375858,80.8426578 122.399619,80.7955449 122.399619,80.7484319 C122.423089,80.4180631 122.304867,80.1113953 122.021192,79.8050166 C121.264627,78.9558272 119.538525,78.4604186 118.309072,78.4604186 C118.309072,78.4604186 119.136627,77.4698904 118.805721,76.5030631 L115.164303,70.13501 C115.140832,70.087608 114.171294,67.7764718 112.468952,67.39899 C112.232508,67.3281761 108.1182,65.8896412 105.517312,64.4508173 L136.633516,27.3038405 L136.515294,27.2096146 L136.515294,27.2096146 Z M140.345636,110.088532 C140.369397,110.253571 140.392867,110.442312 140.440388,110.607352 C140.487619,110.772392 140.511089,110.91402 140.582081,111.07906 C140.629312,111.456542 140.700303,111.857435 140.747534,112.234917 C140.795054,112.635811 140.842285,113.013003 140.842285,113.414186 C140.865756,113.81508 140.865756,114.192272 140.818525,114.569754 C140.795054,114.758495 140.771294,114.947236 140.700303,115.112276 C140.676832,115.18309 140.629601,115.277316 140.605841,115.324429 C140.582081,115.371542 140.487619,115.395243 140.55861,115.395243 L140.487619,115.395243 C140.345636,115.418944 140.203943,115.418944 140.109192,115.371542 C139.990969,115.324429 139.896508,115.253615 139.825516,115.135688 C139.683824,114.899834 139.612832,114.569754 139.565312,114.263086 C139.49461,113.626339 139.565312,112.942189 139.660063,112.28203 L139.660063,112.234628 L139.636303,112.211216 C139.541841,111.951661 139.47085,111.692395 139.281636,111.456542 C139.234405,111.40914 139.187174,111.338615 139.092423,111.291213 C139.021721,111.2441 138.903499,111.220688 138.808747,111.220688 C138.714285,111.220688 138.643294,111.267801 138.572303,111.314914 C138.501312,111.362027 138.454081,111.40914 138.40685,111.479953 C138.217636,111.715807 138.123174,111.951661 138.004952,112.187515 C137.9102,112.423369 137.815739,112.682924 137.768508,112.918777 C137.153636,113.956419 136.539054,114.994349 135.947943,116.055691 C136.633516,115.064874 137.295619,114.027233 137.957721,113.036704 L137.957721,113.013003 C138.028423,112.77715 138.123174,112.541296 138.241397,112.305442 C138.335858,112.069588 138.454081,111.857435 138.619824,111.668694 C138.690525,111.574468 138.785277,111.527066 138.856268,111.503654 C138.903499,111.503654 138.97449,111.550767 139.045192,111.621581 C139.163414,111.786621 139.258166,112.022475 139.329157,112.234628 C139.210645,112.895076 139.116183,113.579226 139.163414,114.263086 C139.187174,114.616867 139.258166,114.994349 139.47085,115.324429 C139.565312,115.489468 139.731054,115.654508 139.943739,115.725322 C140.156423,115.819837 140.369397,115.819837 140.55861,115.772435 L140.487619,115.772435 C140.747534,115.772435 140.842285,115.654508 140.936747,115.536581 C141.031499,115.442355 141.07873,115.324429 141.10249,115.206502 C141.196952,114.994349 141.220712,114.781907 141.244183,114.569754 C141.291414,114.145159 141.291414,113.744266 141.291414,113.343372 C141.267943,112.942189 141.244183,112.541296 141.196952,112.140402 L141.054969,110.937432 L141.054969,110.91402 L141.031499,110.866907 C140.983978,110.74898 140.936747,110.583651 140.913277,110.442312 C140.889516,110.300684 140.866046,110.135645 140.842285,109.994306 C140.818525,109.828977 140.818525,109.687638 140.818525,109.522309 C140.818525,109.38097 140.842285,109.21593 140.866046,109.074302 C140.889516,108.932674 140.936747,108.767635 140.983978,108.626296 C141.054969,108.484668 141.10249,108.343329 141.173192,108.201701 C141.244183,108.060073 141.338645,107.942146 141.409636,107.824219 C141.504388,107.706292 141.62261,107.588365 141.717072,107.470439 L141.740832,107.447027 L143.75061,104.876047 C144.412423,104.027146 145.074525,103.154256 145.736627,102.281654 C146.39873,101.409053 147.060832,100.559864 147.722935,99.6638505 C148.290285,98.8854751 148.881397,98.1070997 149.448747,97.3287243 C149.117841,103.036329 148.644952,108.838449 148.030081,114.616867 L148.030081,114.66398 C148.030081,114.711382 147.98285,118.980163 143.939534,120.065206 C143.821312,120.112319 136.657277,122.51797 125.165961,123.909392 L149.708952,92.5174219 C149.637961,94.0975847 149.543499,95.6777475 149.448747,97.2816113 C148.810405,98.0362857 148.195824,98.7909601 147.557192,99.5222226 C146.847858,100.347711 146.186046,101.220312 145.476712,102.045801 L143.419414,104.59308 L141.386166,107.140359 C141.267943,107.258286 141.149721,107.376213 141.054969,107.517551 C140.960508,107.659179 140.842285,107.800807 140.771294,107.965847 C140.676832,108.107186 140.629601,108.295927 140.55861,108.437555 C140.511379,108.602595 140.440388,108.767635 140.416627,108.956375 C140.369397,109.121415 140.369397,109.310156 140.345636,109.475196 C140.322166,109.734751 140.322166,109.923492 140.345636,110.088532 L140.345636,110.088532 Z M149.637961,91.8335615 L124.432867,124.05102 C123.368867,124.168947 122.257636,124.286874 121.122645,124.381389 L149.850645,87.5881927 C149.803414,89.0033156 149.732423,90.4418505 149.685192,91.8806744 L149.637961,91.8335615 L149.637961,91.8335615 Z M109.229721,125.890738 C129.847619,125.890738 144.034285,121.102847 144.175978,121.032033 C148.692183,119.829352 148.952388,115.18309 148.952388,114.734794 C149.992627,105.135601 150.583739,95.4418937 150.891174,86.2909967 L151.032867,86.1256678 L150.914645,86.0314419 C151.813192,58.8140266 150.158081,36.5021395 150.13461,36.2191728 C150.13461,29.0964452 142.379174,27.5633953 142.331943,27.5396944 C103.129397,17.539608 65.2745251,27.2096146 64.8963878,27.3038405 C60.0965076,28.4359967 58.1577211,31.4783953 57.3773965,33.8369336 C54.681756,34.568196 54.6345251,36.0541329 54.6345251,36.0541329 C54.9657211,36.7142924 55.5093115,39.4503123 55.9349695,41.7851495 C55.0129521,50.5591429 55.8639782,67.7764718 56.2186449,74.1445249 C55.6040632,73.2245216 54.9891917,72.2811063 54.3980806,71.361392 C53.4995338,57.6347575 52.8849521,43.813608 54.6345251,35.1812425 L54.6345251,35.1107176 C54.6345251,34.8040498 54.9891917,27.8463621 62.9100806,25.9829435 C63.3119782,25.8887176 103.129397,15.7941163 144.365192,26.2424983 C144.436183,26.2661993 151.836952,27.7284352 151.836952,34.4265681 C151.860423,34.8511628 154.981721,76.7389169 150.607499,116.881179 L150.607499,116.928292 C150.607499,116.975405 150.559978,121.503741 146.256747,122.635897 C145.996832,122.730412 121.666525,130.867369 89.8885076,126.291631 C90.7160632,125.961551 91.7090719,125.489844 92.725841,124.853096 C98.5422004,125.58407 104.075174,125.890738 109.229721,125.890738 L109.229721,125.890738 Z M57.2591743,54.4507309 L56.4788497,55.2762193 C56.4316187,51.9976777 56.4550893,48.7902392 56.5970719,45.9599934 C56.809756,47.7994219 57.2119434,50.9363355 57.2119434,50.9363355 C57.188183,51.5730831 57.2119434,52.8702791 57.2591743,54.4507309 L57.2591743,54.4507309 Z M57.0462004,60.2291495 C56.8807473,59.8516678 56.7152941,59.497887 56.549841,59.1441063 L56.549841,59.0261794 L56.6208322,59.0969934 L57.4008671,58.224392 C57.5190893,61.3847176 57.6610719,64.3091894 57.6610719,64.3091894 C57.4718584,65.5829734 57.188183,67.6348439 56.9279782,69.6867143 C56.809756,67.39899 56.7152941,64.6866711 56.6208322,61.8093123 C56.7625251,61.9980532 56.9279782,62.3989468 57.2826449,63.2952492 L57.0462004,60.2291495 L57.0462004,60.2291495 Z M56.5260806,58.4602458 C56.50261,57.6347575 56.50261,56.8092691 56.4788497,55.9837807 L57.2826449,55.1345914 C57.3064052,55.8892658 57.3301656,56.7147542 57.3773965,57.5168306 L56.5260806,58.4602458 L56.5260806,58.4602458 Z M95.1375163,98.0836877 C94.1445076,98.5788073 93.1514989,98.8854751 92.3474139,98.7675482 C92.3474139,98.7675482 86.1998584,95.2297409 86.0344052,92.1873422 L85.537756,90.4889635 L90.1484227,85.2296545 L91.2599434,89.5692492 C91.2599434,89.5692492 92.4656362,93.5079502 96.981841,96.0789302 L97.5491917,96.5740498 C97.5019608,96.6211628 97.4309695,96.6448638 97.3837386,96.6919767 C94.6883878,97.1636844 91.661841,96.9986445 91.661841,96.9986445 C92.5128671,97.706206 93.8133115,97.9891728 95.1375163,98.0836877 L95.1375163,98.0836877 Z M86.1526275,82.0219269 C86.1526275,82.0219269 89.2501656,81.833186 91.8745251,80.1350963 C91.4488671,80.8426578 90.7395338,81.7860731 89.5100806,82.8237143 L89.9829695,84.6634319 L85.3488322,89.9467309 L84.0246275,85.5126213 C84.0483878,85.5360332 86.341841,83.224897 86.1526275,82.0219269 L86.1526275,82.0219269 Z M93.2459608,79.262495 C93.2459608,79.262495 93.9552941,79.2153821 94.9955338,78.9795282 L90.857756,83.6966047 L90.6688322,83.0361561 C90.6688322,83.0361561 93.4351743,80.4417641 93.2459608,79.262495 L93.2459608,79.262495 Z M93.8608322,78.3661927 C94.1207473,78.036113 94.3809521,77.6823322 94.5701656,77.2811495 C94.5701656,77.2811495 95.1375163,77.5170033 96.0832941,77.7294452 L95.9888322,77.8236711 C95.3029695,78.036113 94.5464052,78.2245648 93.8608322,78.3661927 L93.8608322,78.3661927 Z M92.5366275,89.734289 L90.9997386,84.2388372 L95.8230893,78.7670864 C96.4379608,78.5783455 97.1235338,78.3424917 97.8093965,77.988711 C98.8733965,78.1066379 100.150081,78.1303389 101.521516,77.941598 C101.521516,77.941598 103.011174,81.1493256 106.557841,81.974814 L106.534081,81.974814 C106.534081,81.974814 107.0542,82.1161528 107.787294,82.2106678 C106.013961,83.6966047 103.105636,86.9748571 101.001397,93.5787641 C101.001397,93.5787641 99.8191743,94.7817342 98.2112941,96.0315282 C97.1945251,95.3713688 92.7020806,92.375794 92.5366275,89.734289 L92.5366275,89.734289 Z M57.8265251,117.73008 C56.5970719,114.687681 55.745756,105.725236 55.4620806,96.5506379 C56.0531917,98.4374684 56.7390545,100.300598 57.2591743,101.055272 C57.2591743,101.055272 57.5190893,109.781864 57.8265251,117.73008 L57.8265251,117.73008 Z M54.3980806,119.758538 C52.5302854,112.871664 52.1283878,103.437512 52.1283878,103.295884 C52.1283878,103.201658 51.5372767,96.1023422 50.7331917,86.9277442 C51.6554989,88.460794 52.7667298,90.0409568 53.9489521,91.4089668 C53.9489521,91.4089668 54.1144052,92.0694153 54.3980806,93.0362425 C54.421841,94.8288472 54.5635338,100.276897 54.9657211,105.725236 C55.7222854,115.725322 56.8572767,118.673495 57.8975163,119.498983 C57.9685076,121.173661 58.0394989,122.777525 58.0867298,124.21606 C55.485841,122.635897 54.4928322,119.994392 54.3980806,119.758538 L54.3980806,119.758538 Z M83.3862854,148.438478 C79.3194989,148.320551 74.1884227,147.424249 71.8005076,146.905429 C62.2007473,144.829857 55.8639782,142.376804 51.9864052,140.489973 C53.3340806,137.801355 54.5635338,131.834196 54.6345251,131.504116 C54.8237386,130.20692 54.421841,126.716226 54.3508497,126.173704 L54.3270893,125.772811 C54.9182004,125.725698 56.1004227,125.819924 57.3536362,126.008664 C57.613841,126.150003 57.8975163,126.291631 58.1811917,126.433259 C58.2049521,127.022894 58.2284227,127.588827 58.2759434,128.060535 C56.6915338,127.282159 55.7932767,126.716226 55.7695163,126.692525 C55.7695163,126.692525 58.7960632,131.409601 72.5333115,133.697326 C83.1260806,135.065336 85.3723028,132.706797 85.3723028,132.706797 C84.7577211,132.824724 84.16661,132.919239 83.5517386,132.989764 C83.6462004,132.58887 83.788183,132.140864 83.9536362,131.645455 C84.7811917,131.90501 85.6797386,132.282203 86.1526275,132.58887 C86.0106449,133.178505 85.7269695,134.169033 85.5142854,134.853183 L85.4905251,134.900296 C85.4195338,135.206963 83.788183,141.787169 83.3862854,148.438189 L83.3862854,148.438478 L83.3862854,148.438478 Z M86.7909695,148.27315 C86.3653115,147.919369 85.6325076,147.636402 85.1596187,147.471362 C85.1830893,147.282621 85.1830893,147.117581 85.2068497,146.928841 C86.6965076,147.400548 87.4530719,147.77803 87.8077386,148.013884 C87.5003028,148.155223 87.1693965,148.226037 86.7909695,148.27315 L86.7909695,148.27315 Z M90.0539608,148.485591 L90.0067298,148.509003 C90.0539608,148.320551 90.0539608,148.10811 90.0067298,147.872256 C89.7465251,146.7401 88.3278584,145.844086 85.4195338,144.994897 C86.0106449,140.018266 87.0511743,135.725784 87.1456362,135.348302 C87.3348497,134.782369 87.5240632,134.051106 87.6895163,133.485173 C89.5100806,133.76814 91.3306449,134.003993 93.1277386,134.192734 L94.9483028,137.35306 C94.9483028,137.35306 97.1000632,138.414402 101.332303,139.07485 L101.450525,161.386738 C99.369756,161.811332 92.6076187,163.367794 87.1456362,166.575522 C88.5408322,157.212183 90.0539608,148.485591 90.0539608,148.485591 L90.0539608,148.485591 Z M95.6576362,134.452289 C96.3669695,134.523103 97.0528322,134.570216 97.7621656,134.64103 C97.9748497,135.089037 98.4005076,135.938226 98.8968671,137.046681 C98.0930719,136.834239 97.3127473,136.574973 96.556183,136.268306 L95.6576362,134.452289 L95.6576362,134.452289 Z M88.7535163,173.604023 C89.6520632,174.618252 91.3071743,175.42004 93.2697211,176.033375 L93.364183,181.458013 C89.6283028,180.349269 86.9329521,179.099475 85.3960632,178.273987 C85.7742004,175.396339 86.2236187,172.165199 86.6965076,168.93406 L86.7437386,169.028286 C91.7563028,165.655807 98.8261656,163.886904 101.356063,163.344382 L101.356063,165.490478 L101.757961,165.750033 C100.10285,166.71715 97.0763028,169.122801 93.6478584,174.806704 C91.921756,174.311585 90.5268497,173.674837 89.8175163,172.849349 L89.7702854,172.801947 C88.5408322,171.905934 89.1554139,170.396296 89.1554139,170.396296 C87.1456362,171.504751 88.2333965,173.085203 88.7535163,173.604023 L88.7535163,173.604023 Z M104.051414,166.71715 C103.271089,167.943532 101.757961,170.750076 100.031858,175.962561 C98.2112941,175.75012 96.3434989,175.467153 94.6646275,175.066259 C98.4239782,168.910359 101.639739,166.882189 102.845431,166.292555 C103.176627,166.433894 103.578525,166.575522 104.051414,166.71715 L104.051414,166.71715 Z M103.247619,145.183638 L104.335089,144.641116 L104.335089,164.782917 C103.933192,164.641578 103.602285,164.49995 103.342081,164.382023 L103.247619,145.183638 L103.247619,145.183638 Z M94.3571917,181.74098 L94.2627298,176.339754 C96.0360632,176.835163 97.99861,177.188944 99.8664052,177.424797 L100.055619,182.967362 C97.9510893,182.636993 96.0595338,182.212688 94.3571917,181.74098 L94.3571917,181.74098 Z M114.194765,165.679219 L114.171294,163.297269 C116.772183,163.81609 125.284183,165.773734 130.249516,170.396296 L130.296747,170.443409 C130.864098,170.891704 131.478969,171.67008 131.478969,172.000159 L131.360747,177.236056 C131.337277,177.401096 131.148063,178.15606 130.178525,178.863621 L130.084063,178.934146 L130.013072,179.028661 C130.013072,179.052073 128.901841,180.302156 125.733312,181.505126 C122.801516,182.613581 117.457756,183.910777 108.662081,183.76915 L108.472867,183.76915 C105.777516,183.698625 103.29485,183.486183 101.024867,183.156103 L100.835943,177.589837 C102.609277,177.802279 104.216867,177.920206 105.42285,177.967319 C106.605072,178.014432 107.385397,178.014432 107.503619,178.014432 C124.243943,178.15606 129.067294,173.580322 129.37473,173.273654 C128.688867,173.674837 123.085192,176.575608 107.432627,176.434269 C105.96673,176.434269 103.602285,176.339754 101.024867,176.1039 C102.821961,170.679262 104.406081,167.990645 105.044423,167.000116 C105.824747,167.165156 106.747054,167.283083 107.763534,167.283083 C109.466166,167.283083 111.452183,166.953003 113.627414,165.962186 L114.194765,165.679219 L114.194765,165.679219 Z M105.304627,165.066173 L105.304627,144.169409 L111.948832,140.796641 L112.232508,164.452837 C109.395174,165.584993 106.959739,165.443365 105.304627,165.066173 L105.304627,165.066173 Z M115.660952,137.070093 C115.660952,137.070093 107.479858,138.909811 100.10285,137.305947 C99.6062004,136.244605 99.1808322,135.32489 98.8733965,134.711555 C102.987414,135.018223 106.935978,135.15985 110.719089,135.15985 C112.705397,135.15985 114.620423,135.112738 116.511978,135.041924 L115.660952,137.070093 L115.660952,137.070093 Z M156.51861,121.503741 L156.51861,121.598256 C156.51861,121.645369 156.471089,126.386146 151.978645,127.565415 L151.907943,127.588827 C151.623978,127.683342 123.700063,136.999568 87.4768322,131.480415 C86.7437386,130.819967 85.4195338,130.324847 84.6157386,130.065292 C85.277841,128.791797 86.2236187,127.565415 87.5712941,127.022894 C87.5712941,127.022894 87.7129869,126.999193 87.9259608,126.928379 C95.6104052,128.15505 102.892952,128.626757 109.536867,128.626757 C131.360747,128.626757 146.351209,123.603013 146.516952,123.532199 C151.293072,122.282116 151.529516,117.376299 151.553277,116.928292 C155.927209,76.7152159 152.8062,34.7569369 152.78273,34.3557542 C152.78273,26.9029468 144.601636,25.2753821 144.554405,25.2753821 C103.082166,14.803588 63.0283028,24.9453023 62.6264052,25.0395282 C54.3508497,26.9971728 53.6652767,34.3794551 53.617756,35.0162027 C51.9391743,43.3656013 52.4355338,56.4554884 53.2630893,69.6159003 C52.1756187,67.8469967 51.3952941,66.3376478 51.3243028,65.7243123 C51.3243028,65.7243123 50.1893115,61.1017508 48.3687473,57.6110565 L48.3925076,57.6110565 C47.99061,45.6062126 48.4634989,36.8559203 49.8346449,30.0632724 L49.8584052,29.9453455 L49.8584052,29.8274186 C49.8584052,29.8040066 49.8111743,27.8934751 50.804183,25.6999767 C52.1518584,22.775505 54.6345251,20.8649734 58.2759434,20.0160731 C58.7250719,19.8981462 103.436832,8.60057475 149.732423,20.2990399 L149.803414,20.3224518 C149.827174,20.3224518 151.860423,20.7236346 153.893961,22.0208306 C156.542081,23.7189203 157.866285,26.0774585 157.866285,29.0490432 L157.866285,29.1198571 C157.937277,29.6152658 161.436423,76.5501761 156.51861,121.503741 L156.51861,121.503741 Z M129.37473,173.226542 C129.3982,173.226542 129.421961,173.20313 129.421961,173.20313 L129.37473,173.226542 L129.37473,173.226542 Z M103.034645,121.739595 C103.933192,121.739595 104.666285,121.008621 104.666285,120.112319 C104.666285,119.216017 103.933192,118.485043 103.034645,118.485043 C102.136388,118.485043 101.403294,119.216017 101.403294,120.112319 C101.403294,121.008621 102.112627,121.739595 103.034645,121.739595 L103.034645,121.739595 Z M103.034645,118.956751 C103.673277,118.956751 104.193397,119.475571 104.193397,120.112319 C104.193397,120.749066 103.673277,121.267887 103.034645,121.267887 C102.396303,121.267887 101.876183,120.749066 101.876183,120.112319 C101.876183,119.475571 102.396303,118.956751 103.034645,118.956751 L103.034645,118.956751 Z M119.112867,37.0209601 C119.8222,37.0209601 120.389841,36.4550266 120.389841,35.7474651 C120.389841,35.0399037 119.8222,34.4736811 119.112867,34.4736811 C118.403534,34.4736811 117.836183,35.0399037 117.836183,35.7474651 C117.836183,36.4550266 118.403534,37.0209601 119.112867,37.0209601 L119.112867,37.0209601 Z M119.112867,34.9453887 C119.562285,34.9453887 119.916952,35.2991694 119.916952,35.7474651 C119.916952,36.1954718 119.562285,36.5492525 119.112867,36.5492525 C118.663739,36.5492525 118.309072,36.1954718 118.309072,35.7474651 C118.309072,35.2991694 118.687499,34.9453887 119.112867,34.9453887 L119.112867,34.9453887 Z M142.379174,50.9834485 C143.277721,50.9834485 144.010525,50.2524751 144.010525,49.3561728 C144.010525,48.4598704 143.277721,47.728897 142.379174,47.728897 C141.480627,47.728897 140.747534,48.4598704 140.747534,49.3561728 C140.747534,50.2524751 141.480627,50.9834485 142.379174,50.9834485 L142.379174,50.9834485 Z M142.379174,48.2006047 C143.017516,48.2006047 143.537636,48.7194252 143.537636,49.3561728 C143.537636,49.9929203 143.017516,50.5117409 142.379174,50.5117409 C141.740832,50.5117409 141.220423,49.9929203 141.220423,49.3561728 C141.244183,48.7194252 141.740832,48.2006047 142.379174,48.2006047 L142.379174,48.2006047 Z M143.774081,46.7854817 C144.483414,46.7854817 145.051054,46.2192591 145.051054,45.5116977 C145.051054,44.8041362 144.483414,44.2382027 143.774081,44.2382027 C143.064747,44.2382027 142.497397,44.8041362 142.497397,45.5116977 C142.497397,46.2192591 143.064747,46.7854817 143.774081,46.7854817 L143.774081,46.7854817 Z M143.774081,44.7099103 C144.223499,44.7099103 144.578166,45.063691 144.578166,45.5116977 C144.578166,45.9599934 144.223499,46.3137741 143.774081,46.3137741 C143.324952,46.3137741 142.970285,45.9599934 142.970285,45.5116977 C142.970285,45.063691 143.348423,44.7099103 143.774081,44.7099103 L143.774081,44.7099103 Z M137.839499,76.0547674 C138.43061,76.0547674 138.926969,75.5596478 138.926969,74.9700133 C138.926969,74.3803787 138.43061,73.8849701 137.839499,73.8849701 C137.248388,73.8849701 136.751739,74.3803787 136.751739,74.9700133 C136.751739,75.5830598 137.248388,76.0547674 137.839499,76.0547674 L137.839499,76.0547674 Z M137.839499,74.3803787 C138.170405,74.3803787 138.454081,74.6633455 138.454081,74.9934252 C138.454081,75.323794 138.170405,75.6067608 137.839499,75.6067608 C137.508303,75.6067608 137.224627,75.323794 137.224627,74.9934252 C137.224627,74.6633455 137.508303,74.3803787 137.839499,74.3803787 L137.839499,74.3803787 Z M84.9231743,34.0964884 C85.4432941,34.0964884 85.8451917,33.6718937 85.8451917,33.176485 C85.8451917,32.6576645 85.4195338,32.2567708 84.9231743,32.2567708 C84.4030545,32.2567708 84.0008671,32.6813654 84.0008671,33.176485 C83.9773965,33.6718937 84.4030545,34.0964884 84.9231743,34.0964884 L84.9231743,34.0964884 Z M84.9231743,32.7047774 C85.1596187,32.7047774 85.3723028,32.9172193 85.3723028,33.1530731 C85.3723028,33.3889269 85.1596187,33.6010797 84.9231743,33.6010797 C84.6867298,33.6010797 84.473756,33.3889269 84.473756,33.1530731 C84.473756,32.9172193 84.6629695,32.7047774 84.9231743,32.7047774 L84.9231743,32.7047774 Z M77.7116187,140.513674 C76.6948497,140.372047 75.7490719,141.12701 75.5836187,142.14095 C75.5126275,142.66006 75.6308497,143.17888 75.9382854,143.603475 C76.2219608,144.004369 76.6476187,144.240223 77.1205076,144.311037 C77.2149695,144.334449 77.2859608,144.334449 77.3804227,144.334449 C78.3027298,144.334449 79.0830545,143.626887 79.2247473,142.683472 C79.2957386,142.164651 79.1775163,141.645831 78.8700806,141.221236 C78.6101656,140.820342 78.1845076,140.560787 77.7116187,140.513674 L77.7116187,140.513674 Z M77.9715338,141.079608 C78.1845076,141.174123 78.3737211,141.315462 78.5154139,141.504203 C78.6573965,141.716645 78.7518584,141.952498 78.7756187,142.188352 L78.3499608,142.211764 L77.9243028,141.62213 L77.9715338,141.079608 L77.9715338,141.079608 Z M78.0425251,142.400505 L77.6878584,142.919326 L77.1205076,142.730585 L77.1205076,142.093837 L77.7116187,141.905096 L78.0425251,142.400505 L78.0425251,142.400505 Z M77.4514139,140.961681 C77.4986449,140.961681 77.5696362,140.961681 77.6168671,140.985382 L77.5696362,141.551316 L76.9075338,141.787169 L76.3639434,141.551316 C76.6238584,141.197535 77.025756,140.961681 77.4514139,140.961681 L77.4514139,140.961681 Z M76.0799782,142.211764 C76.1037386,142.093837 76.1274989,141.97591 76.1747298,141.857983 L76.71861,142.093837 L76.71861,142.777987 L76.2457211,143.17888 C76.1037386,142.895914 76.0327473,142.542133 76.0799782,142.211764 L76.0799782,142.211764 Z M77.2149695,143.839329 C76.9312941,143.791927 76.6948497,143.674 76.4821656,143.461847 L76.9550545,143.060953 L77.6168671,143.273106 L77.8533115,143.768515 C77.6406275,143.839329 77.4279434,143.862741 77.2149695,143.839329 L77.2149695,143.839329 Z M78.7756187,142.612658 C78.7046275,143.037252 78.468183,143.391033 78.1607473,143.603475 L77.9480632,143.155179 L78.3499608,142.589246 L78.7756187,142.565545 L78.7756187,142.612658 L78.7756187,142.612658 Z M80.8563878,142.258877 C80.8563878,141.45709 80.596183,140.702415 80.1470545,140.065668 C79.6031743,139.334405 78.8228497,138.862698 77.9480632,138.744771 C77.78261,138.72107 77.6168671,138.697658 77.4751743,138.697658 C76.0092767,138.697658 74.7323028,139.688186 74.212183,141.079608 C73.7630545,140.938269 72.46261,140.584488 71.2328671,140.891156 C71.2328671,140.891156 70.3580806,141.056196 73.9994989,141.881684 C73.8575163,142.848512 74.1177211,143.862741 74.6850719,144.617415 C75.2289521,145.348678 76.0092767,145.820385 76.8840632,145.938312 C77.0495163,145.962013 77.2149695,145.985425 77.3569521,145.985425 C79.0120632,145.985425 80.4779608,144.71193 80.8088671,142.99014 C81.7074139,143.013841 81.7311743,142.730585 81.7311743,142.730585 L81.7311743,142.542133 C81.6839434,142.424206 81.1635338,142.306279 80.8563878,142.258877 L80.8563878,142.258877 Z M80.0995338,142.754286 C79.8630893,144.334449 78.468183,145.466605 76.9785251,145.254452 C76.2929521,145.159937 75.6780806,144.782744 75.2524227,144.216522 C74.7795338,143.579774 74.59061,142.777987 74.7088322,141.952498 C74.9215163,140.513674 76.1037386,139.428631 77.4751743,139.428631 C77.5933965,139.428631 77.7350893,139.428631 77.8533115,139.452332 C78.5391743,139.546558 79.153756,139.92404 79.5794139,140.489973 C80.0050719,141.12701 80.217756,141.928797 80.0995338,142.754286 L80.0995338,142.754286 Z M74.3541656,85.889814 C74.6140806,85.9843289 74.897756,86.1022558 75.1342004,86.1964817 C74.6613115,85.9372159 74.3541656,85.889814 74.3541656,85.889814 L74.3541656,85.889814 Z M91.7328322,44.5682824 C92.67861,44.6390963 95.6813965,44.9928771 96.4379608,49.1440199 C96.5324227,49.6391395 96.7453965,51.1487774 96.8398584,51.1487774 L96.8636187,51.1487774 C97.0290719,50.8892226 97.2182854,49.1674319 97.2182854,49.1674319 C97.7384052,44.8512492 101.119619,44.3324286 102.065397,44.3324286 C102.538285,44.2616146 103.31861,44.2382027 103.31861,44.0965748 C103.31861,43.9315349 102.420063,43.837309 102.112627,43.813608 C97.2655163,43.2239734 97.0763028,38.6719369 97.0763028,38.6011229 C97.0528322,38.2947442 96.9580806,37.4218538 96.8398584,37.4926678 C96.7216362,37.5397807 96.6981656,37.8230365 96.6744052,38.0114884 C96.6034139,43.9315349 91.7800632,44.0731628 91.7328322,44.0731628 C91.7328322,44.0731628 90.8105251,44.1436877 90.6450719,44.2853156 C90.5740806,44.3324286 90.8105251,44.4503555 91.7328322,44.5682824 L91.7328322,44.5682824 Z M95.1375163,43.8607209 C95.9413115,43.2947874 96.5324227,42.492711 96.9108497,41.5021827 C97.1710545,41.9738904 97.9510893,43.2239734 99.5589695,44.0257608 C98.6369521,44.4269435 97.4782004,45.1816179 96.8163878,46.6438538 C96.4142004,45.9125914 95.6813965,44.9457641 94.3571917,44.3090166 C94.6408671,44.1673887 94.9010719,44.0257608 95.1375163,43.8607209 L95.1375163,43.8607209 Z M120.980952,59.2620332 C127.506645,60.0638206 127.743089,66.1960199 127.743089,66.2668339 C127.76685,66.6677276 127.885072,67.8706977 128.074285,67.7764718 C128.215978,67.7056578 128.286969,67.3518771 128.286969,67.0689103 C128.381721,59.0969934 134.860183,58.9319535 134.907414,58.9319535 C134.907414,58.9319535 136.136867,58.8611395 136.373312,58.6486977 C136.468063,58.5544718 136.160627,58.3894319 134.931174,58.224392 C133.6542,58.1298771 129.611174,57.6347575 128.618166,52.0684917 C128.499943,51.4080432 128.192508,49.3561728 128.074285,49.3798738 L128.027054,49.3798738 C127.814081,49.7336545 127.554166,52.0447907 127.554166,52.0447907 C126.844832,57.8469103 122.328627,58.5544718 121.028183,58.5544718 C120.389841,58.6252857 119.325841,58.6960997 119.325841,58.8611395 C119.373072,59.0732924 120.578765,59.2149203 120.980952,59.2620332 L120.980952,59.2620332 Z M128.168747,55.4412591 C128.712627,56.4317874 129.705636,57.7289834 131.478969,58.5781728 C131.053312,58.7666246 130.698645,58.9553654 130.367739,59.1912193 C129.279978,59.9695947 128.499943,61.0309369 128.003294,62.3518339 C127.672388,61.7147973 126.608388,60.0167076 124.456627,58.9553654 C125.709841,58.4128439 127.24673,57.3752027 128.168747,55.4412591 L128.168747,55.4412591 Z M108.567619,112.871664 C109.584388,112.96589 112.823619,113.343372 113.603943,117.800894 C113.698405,118.343415 113.93485,119.970691 114.029312,119.947279 L114.076832,119.947279 C114.242285,119.664312 114.454969,117.824595 114.454969,117.824595 C115.02261,113.201744 118.639978,112.635811 119.656747,112.61211 C120.176867,112.541296 121.004423,112.494183 121.004423,112.376256 C121.004423,112.211216 120.035174,112.093289 119.703978,112.069588 C114.47873,111.432841 114.289516,106.550724 114.289516,106.47991 C114.265756,106.173243 114.171294,105.206415 114.029312,105.277229 C113.911089,105.347754 113.863858,105.63101 113.840388,105.843163 C113.769397,112.211216 108.591089,112.352844 108.543858,112.352844 C108.543858,112.352844 107.55085,112.423369 107.361636,112.588698 C107.338166,112.61211 107.598081,112.730037 108.567619,112.871664 L108.567619,112.871664 Z M112.232508,112.093289 C113.083534,111.479953 113.722166,110.631053 114.124063,109.569711 C114.383978,110.088532 115.235294,111.432841 116.961397,112.28203 C115.968388,112.706625 114.738645,113.532113 114.005841,115.088575 C113.580183,114.286787 112.776388,113.248857 111.357721,112.588698 C111.688627,112.44707 111.996063,112.28203 112.232508,112.093289 L112.232508,112.093289 Z" id="path-3"></path>
    </defs>
    <g id="img-theywilluseit" stroke="none" stroke-width="1" fill="none" fill-rule="evenodd">
        <g id="IMG-alreadyhere">
            <g id="Fill-3">
                <mask id="mask-2" fill="white">
                    <use xlink:href="#path-1"></use>
                </mask>
                <g id="Mask" fill-rule="nonzero"></g>
                <mask id="mask-4" fill="white">
                    <use xlink:href="#path-3"></use>
                </mask>
                <use fill="#55473F" xlink:href="#path-3"></use>
            </g>
        </g>
    </g>
</svg>