<svg width="280" height="200" viewBox="0 0 280 200" xmlns="http://www.w3.org/2000/svg"><title>HIW_03</title><g fill="#554740" fill-rule="evenodd"><path d="M102.087 104.957c-19.396 0-35.118-15.726-35.118-35.123 0-13.148 7.227-24.6 17.92-30.62-15.25 5.078-26.248 19.457-26.248 36.413 0 21.198 17.181 38.383 38.377 38.383 18.731 0 34.318-13.424 37.692-31.175-5.17 12.96-17.823 22.122-32.623 22.122M148.289 141.507c-.13 0-.26.014-.384.043-.704.16-1.246.736-1.529 1.623-.252.79-.268 1.76-.049 2.725.435 1.898 1.665 3.276 2.927 3.276.13 0 .258-.014.384-.043 1.368-.314 2.062-2.223 1.575-4.35-.434-1.897-1.664-3.274-2.924-3.274zm1.914 3.506c.133.586.153 1.126.096 1.59-.321-.343-.643-.898-.84-1.642-.164-.628-.196-1.259-.099-1.752.353.426.668 1.042.843 1.804zm-.796 3.107c-.682.152-1.693-.807-2.067-2.453-.179-.778-.17-1.572.025-2.18.162-.514.445-.851.77-.927.051-.01.101-.016.154-.016.061 0 .126.016.19.032-.255.723-.277 1.68-.023 2.65.285 1.075.84 1.974 1.49 2.451-.152.234-.335.397-.539.443zM216.444 157.586c-.13 0-.26.014-.386.045-.702.16-1.246.736-1.527 1.622-.252.791-.27 1.758-.048 2.726.434 1.896 1.664 3.274 2.924 3.274.13 0 .26-.014.386-.043.702-.16 1.246-.737 1.527-1.623.252-.79.268-1.758.049-2.725-.434-1.899-1.665-3.276-2.925-3.276zm1.118 6.613c-.673.155-1.693-.805-2.07-2.451-.176-.778-.167-1.572.026-2.181.164-.514.445-.852.773-.926a.614.614 0 0 1 .153-.018c.061 0 .126.016.189.032-.256.725-.276 1.68-.022 2.65.283 1.077.84 1.976 1.49 2.453-.152.233-.334.395-.539.441zm.888-1.518c-.319-.346-.641-.899-.836-1.639-.165-.63-.196-1.259-.099-1.753.353.426.669 1.043.841 1.803.126.546.153 1.097.094 1.59z"/><path d="M222.988 135.316c.798 0 1.852-.378 2.378-1.81l3.056-9.664c.036-.1.864-2.45-.58-3.768l-.004-.508c-.084-1.22-.553-2.206-1.39-2.93-1.62-1.398-4.07-1.308-4.42-1.286-.497-.03-5.276-.29-9.303.337-1.637-1.261-3.611-1.178-3.652-1.171l-11.013-.512a6.87 6.87 0 0 0-1.304-1.22l-.124-.089-11.037-.546-6.742-1.783-3.374-8.46c-.7-2.185-1.768-2.736-2.301-2.875l-.368-3.685c-.027-.157-.623-3.482-2.784-3.903l.078-5.339c.016-.182.311-3.712-.784-6.192l.204-.013-.715-12.93c-.083-2.073-.609-3.514-1.562-4.289a2.56 2.56 0 0 0-.837-.454l-.62-8.683c-.063-2.302-.978-3.32-1.725-3.772l.171-.135-8.761-10.908-.044.034.114-2.211c.077-.32.344-1.704-.445-3.082-.684-1.196-1.949-2.034-3.73-2.482l-2.125-.676c.162-1.76-1.493-2.51-2.397-2.66l-7.955-1.441c-1.896-.18-2.986.688-3.528 1.342l-3.915-.225c-.59-.677-1.084-1.034-1.104-1.047-7.263-5.214-13.23 1.162-13.29 1.225l-5.177 5.618.153.14A43.901 43.901 0 0 0 97.524 30.8c-24.31 0-44.088 19.78-44.088 44.095 0 24.314 19.778 44.094 44.088 44.094 24.31 0 44.089-19.78 44.089-44.094 0-12.052-4.863-22.985-12.724-30.951l3.483-5.683.038-.069c.04-.088.072-.174.11-.26l5.289-.096c.056-.01 1.068-.182 1.588-1.477.314.74.613 1.007.69 1.064l8.353 3.032c-.175.232-.34.55-.407.969-.157 1.01.342 2.168 1.46 3.415l6.33 8.184c-.307.555-.665 1.544-.476 2.978l.778 9.68c-.004.093-.045 2.261 1.181 3.335.436.383.967.576 1.58.585l.07 8.433c.083 3.14 1.36 4.375 1.37 4.379.28.339.586.607.903.825l.144 8.764c-.074.418-.418 2.8.934 4.465l1.834 13.307c.018.085.138.516.684.852.427.263.994.395 1.695.395.553 0 1.196-.087 1.914-.252l.735 1.578c-.35.707-1.133 2.537-.683 4.047.22.74.694 1.302 1.41 1.668l9.594 2.955-.196.069c.65 1.857 3.18 2.066 4.282 2.066.296 0 .489-.015.516-.016l8.82-.087c.865.975 2.183 1.385 3.044 1.464l11.026.752c.26.769 1.224 2.442 4.713 2.662l.038.003 5.559-.452-.099.233c-.113-.031-1.796-.438-2.87.925l-4.34 3.455c-10.513-4.292-22.6 1.27-23.197 1.55a.762.762 0 0 0-.22.165c-.71-.198-1.5-.31-2.343-.31-.148 0-.29.007-.434.013-1.28-4.77-8.545-7.787-9.91-8.09-10.904-2.424-17.596 3.673-19.334 5.47l-7.052-1.882-4.785 2.745c-.135.087 3.232 26.939 3.232 26.939l14.75 4.841-.032-.317c3.965-5.043 9.138-7.377 13.129-7.176 3.023.153 5.622 2.488 6.32 3.176l.004.074c0 1.921 2.453 3.425 5.583 3.425 3.132 0 5.585-1.504 5.583-3.476l-.03-.47c1.451-.711 6.777-3.062 10.52-1.365 1.816.823 3.026 2.541 3.6 5.11.037.17.13.31.255.416l.935 9.967 15.322 4.453 5.624-3.855-1.03-26.142-11.115-1.934c2.357-1.288 2.602-3.702 2.089-5.88.337-.291 3.017-2.607 4.954-4.47l-.046.164c.172.05.39.085.633.085zm1.398-2.145c-.292.79-.776 1.032-1.167 1.09.434-.44.782-.824.985-1.1.162-.223.283-.459.358-.7.364-1.182-.42-2.176-.868-2.624l1.076-3.138-.461-.157 1.237-.19c.49-.078.871-.289 1.176-.566l-2.336 7.385zm-4.812-3.341c-.142.192-.42.655-.312 1.242.092.487.434.905.99 1.256l-1.45 1.293c-.993-.19-1.632-.558-1.895-1.099-.39-.798.118-1.786.142-1.835l3.935-9.247c.992-1.535 1.668-1.661 1.812-1.598l.115.08 1.093.091c.033.281.02.546.002.685l-.009.057.005.058c.1 1.21-.178 1.554-.3 1.648-.2.15-.51.034-.51.034l-.094-.04h-.104c-.818 0-1.178 1.18-1.275 1.622l-2.145 5.753zm-4.067 5.693l-.07-.07c-.546-.478-1.106-.9-1.675-1.299l2.003-1.89c.036.233.092.47.205.703.332.686.97 1.182 1.9 1.484l-1.898 1.692a6.086 6.086 0 0 0-.465-.62zm-.817-15.884l7.241-.622c-.608.3-1.226.935-1.844 1.899l-.962 2.258-5.186.458c.097-.13.187-.263.27-.404.801-1.361.628-2.882.48-3.59zm7.067 7.296l1.937-.299-.893 2.61-1.581-.868.537-1.443zm.24-10.548l.035.002.036-.002c.024-.001 2.327-.156 3.707 1.038.617.535.965 1.28 1.028 2.181l.021 3.071c0 .025-.04 2.43-1.439 2.65l-3.214.495.538-1.446c.076-.325.222-.69.333-.847.298.067.805.108 1.267-.229.578-.421.824-1.268.73-2.518.037-.317.125-1.569-.622-2.334-.3-.304-.854-.643-1.778-.533l-10.366.893a1.973 1.973 0 0 0-1.347.568c-.366.367-.578.875-.643 1.505-.216.186-.49.352-.726.458l-2.046-.106c.17-1.074.868-3.426 3.76-4.203l.159-.04c4.196-.986 10.503-.606 10.566-.603zm-22.545 2.18l7.739.44a7.052 7.052 0 0 0-.712 2.173l-7.821-.403c.318-.562.657-1.328.794-2.21zm9.62-3.015a5.338 5.338 0 0 1 2.115.43l-.222.056c-1.457.393-2.442 1.14-3.115 1.967l-8.344-.476a4.757 4.757 0 0 0-.252-1.313c-.01-.038-.128-.508-.472-1.142l10.29.478zm-10.812.958c.61 1.743-.258 3.4-.751 4.148-.634-.135-1.074-.396-1.302-.78-.445-.744-.06-1.789.021-1.985l.025-.002c-.18-1.754-1.338-1.999-1.453-2.017l-10.957-.686-.076.016c-.715.17-1.916.978-1.655 2.848a2.65 2.65 0 0 1-.36-.186l-1.837-.582.085-1.894c-.08-2.122 2.165-2.347 2.36-2.365l3.062.15.179.048.009-.038 10.661.53c1.57 1.186 1.97 2.732 1.989 2.795zm-5.978 2.875l-5.039-.17c.056-.2.108-.407.148-.627l.322-2.12 5.113.321-.544 2.596zm-8.027-3.133a.313.313 0 0 1-.262.018c-.026-.009-.037-.023-.055-.036l.006-.002.31.02h.001zm-1.073 1.892c-.263-1.258.319-1.713.648-1.866.002.111-.009.288-.054.563l-.524 1.263c-.018.01-.041.025-.07.04zm-17.687-34.381l-.004 6.942c0 .226-.003.44-.009.646-.169.004-.369.022-.585.056l.088-7.518c.182-.036.35-.08.51-.126zm-1.106-14.775l.544 8.611c-.953.186-1.543.559-1.902.906l-.518-9.333c.126.009.272.018.446.018.402 0 .915-.045 1.43-.202zm1.38 9.544c.767-.056 1.385.171 1.885.681 1.832 1.868 1.421 6.749 1.414 6.837l-.126 8.907c-.157 1.176-.566 1.978-1.216 2.38-.538.333-1.152.334-1.572.282l-.283-1.842c.238-.485.643-1.79.658-5.069v-8.926c-.166-1.348-.46-1.823-.677-1.985l-.175-.132-.214.034c-.995.153-1.582.011-1.93-.189.125-.218.622-.866 2.236-.978zm.772 20.152c.52 0 1.14-.103 1.722-.46a3.02 3.02 0 0 0 .87-.816l.266 3.26-1.392.788a3.81 3.81 0 0 0-1.174.587l-.517-3.367c.072.004.148.008.225.008zm.427 4.722c.42-.727 1.345-.96 1.354-.961l1.171-.647.14 1.725c-.473.41-.858 1.087-.668 2.106.015.077.033.157.056.24.468 1.776 3.21 7.658 3.325 7.907l.07.15.142.08c.063.036.332.175.778.175.164 0 .351-.02.56-.068l.65-.36-.044-.075 2.076.532-1.135.645c-1.651 1.11-2.593 1.152-3.092.996-.517-.166-.686-.595-.711-.654l-4.773-10.227c-.174-.618-.142-1.144.101-1.564zm12.31 10.424l-5.43-1.389a.622.622 0 0 0-.236-.11c-.256-.06-.495.033-.71.177-.214-.47-.502-1.103-.814-1.803l.094.023c.083-.34.225-.573.427-.69.306-.176.69-.07.71-.063l8.188 2.165c-.825.233-1.756.744-2.23 1.69zm-5.673-4.853a.056.056 0 0 1-.015-.003c.305-.33.441-.62.454-.649l.052-.122-.052-.512.665 1.58-1.104-.294zm2.384 6.76l2.035-1.158.965.249c-.02.176-.032.36-.025.558l-.07 1.574-3.233-1.025c.11-.068.215-.122.328-.198zm-1.484-13.48l3.101 7.78-1.631-.431-2.28-5.42-.397-3.946c.344.256.82.812 1.207 2.017zm-2.723-6.772l1.254 12.532c-.154.244-.636.836-1.711.946a66.995 66.995 0 0 1-.777-1.871c.008-.008.017-.011.024-.018.306-.308.317-.793.315-.924l-.17-2.072c.01-.002.022-.007.028-.009l-.04-.146-.66-8.098-.228.018.227-.02-.07-.815.036-2.495c1.33.492 1.772 2.972 1.772 2.972zm-5.188-31.998c.49.396 1.09 1.33 1.181 3.53l.632 11.485-.01-.015c-.654-.666-1.477-.985-2.432-.981l-.57-9.003.023-.014c.704-.51 1.13-1.268 1.267-2.25l.01-.054-.199-2.768c.033.023.065.043.098.07zm-1.84-9.894l.898 12.554c-.105.674-.379 1.166-.84 1.5-.82.599-1.991.52-2.357.478l-.159-2.85c.215-.06.453-.181.669-.408.621-.652.73-1.825.333-3.583l-.643-7.682c-.006-.057-.132-1.387-1.13-2.004-.549-.34-1.224-.391-2.007-.155l-.526-.63 4.045-.36c.26.051 1.644.453 1.718 3.14zm-4.613 8.585l-.544-6.45c.058.001.115.01.175.01.657 0 1.318-.192 1.973-.565l.523 6.234.01.072.004.018c-.911-.02-1.615.266-2.141.68zm-6.13-19.295l5.656 6.829-1.482.131-5.776-6.936c.243.045.526.08.823.08.258 0 .524-.031.778-.104zm8.736 6.555l-1.826.162-6.023-7.27c.186-.22.323-.48.391-.79l.067-1.304 7.39 9.202zm-8.553-15.467c.665 1.15.34 2.347.339 2.356l-.265 5.027c-.056.215-.16.359-.332.454-.506.283-1.44.078-1.808-.04.078-.376.297-.808.834-1.17l.233-.159-.087-4.587c-.117-.908-.668-2.4-1.99-2.4h-.034l-5.904-1.662c-.1-.03-2.388-.686-3.335.546l-1.58-.319.03-.1c.799-2.382 3.549-2.153 3.934-2.11l6.858 2.176c1.519.385 2.565 1.053 3.107 1.988zm-14.188.885l-.043.009-5.19-.658c-.227-.131-.94-.596-1.151-1.3-.007-.218-.013-.434-.034-.649.066-.387.273-.798.637-1.23l1.981-.038c.015.054.03.128.047.216l-.216-.043-.205 1.018 7.243 1.46c.209.05.9.192 1.615.192.564 0 1.142-.09 1.508-.382.088-.07.157-.152.216-.236l1.324.373c-.018.416-.117 1.287-.636 1.747-.324.286-.778.369-1.408.256l-5.684-.72c-.002-.006-.004-.01-.004-.015zm-13.512-1.533l-.05-2.104c.028-.04.147-.12.433-.17.658 1.08.526 2.344.243 3.306-.318-.153-.664-.45-.626-1.032zm1.04-3.347c-.86-.027-1.474.148-1.827.514-.24.248-.312.544-.301.715l.052 2.094c-.076 1.128.623 1.74 1.302 2.032-.14.308-.25.497-.256.506l-.443.762c-.918-.01-1.615-.248-2.05-.738-.83-.932-.568-2.47-.566-2.482l.11-2.28c.016-1.225.306-2.137.842-2.636a1.577 1.577 0 0 1 1.099-.441l4.978.286c.021.027.043.05.065.078l.082-.069 5.167.3.08.034.014-.03 2.574.148a.63.63 0 0 1 .513.258c.43.557.39 1.895.248 2.78l-1.887-.383c-.106-.925-.317-1.367-.72-1.496a.654.654 0 0 0-.469.025l-8.606.023zm-9.211 6.052l3.281-4.366c.292-.337.602-.623.926-.859-.004.088-.011.175-.013.265l-.099 2.163c-.045.294-.274 2.084.81 3.312.539.61 1.288.968 2.245 1.074l-1.276 2.2a44.15 44.15 0 0 0-5.874-3.789zm25.04-3.386c.553-.074 1.228.056 1.53.144l.014.004a6.542 6.542 0 0 1-1.544-.148zm4.425 3.47c.71-.626.913-1.613.969-2.238l2.213.623.09-.005c.79-.052 1.01 1.437 1.014 1.437v-.002l.03 1.546a2.739 2.739 0 0 0-.172.06l-4.256-1.34c.036-.028.078-.051.112-.082zm-7.485-6.296l.184.025c-.054.045-.11.083-.162.132-.005-.053-.014-.105-.022-.157zm-1.55-2.58l7.917 1.436c.158.03 1.437.292 1.53 1.308l-3.702-1.174-.085-.02a5.636 5.636 0 0 0-2.613.291.496.496 0 0 0-.265-.133l-1.54-.221a2.145 2.145 0 0 0-.205-.33 1.678 1.678 0 0 0-1.279-.66l-1.678-.096c.45-.274 1.075-.478 1.92-.4zm-20.677 1.204c.205-.225 5.03-5.366 11.162-1.241l-3.67-.21c-.045-.006-1.01-.073-1.853.693-.386.35-.68.812-.88 1.376-.833.356-1.602.924-2.306 1.736l-3.454 4.593a43.647 43.647 0 0 0-3.849-1.686l4.85-5.261zm-20.552 88.128c-22.975 0-41.669-18.695-41.669-41.674 0-22.98 18.694-41.674 41.669-41.674 22.978 0 41.67 18.695 41.67 41.674 0 22.98-18.692 41.674-41.67 41.674zm30.35-73.612a44.16 44.16 0 0 0-2.578-2.277l2.397-4.136c.08-.133 1.742-2.945.708-5.533l3.537-.009c.594 1.989.338 4.197-.764 6.569l-3.3 5.386zm9.796-6.151l-4.73.08c.192-.534.347-1.064.458-1.586h1.645v-.04l3.477.45c-.245.856-.729 1.06-.85 1.096zm2.675-.861l5.19.671c.232.042.452.063.661.063.027 0 .05-.005.076-.005l-.047.15 4.562 1.435-1.506 1.398-8.601-3.1c-.063-.077-.191-.265-.335-.612zm8.71 5.659c.071-.51.43-.74.437-.746l2.101-1.93c.002-.004.22-.193.53-.348l.025 1.33a2.832 2.832 0 0 0-.95 3.115l7.994 9.647.347-.137c.616-.245 1.099-.263 1.437-.056.555.339.645 1.207.645 1.212l.025.305c-.729.526-1.45.764-2.14.686v-.002l-.019.002c-.013-.002-.023.002-.036 0-1.174-.157-1.922-1.147-1.936-1.167l-7.225-9.34c-1.139-1.27-1.3-2.101-1.234-2.571zm8.935 26.634c-.713-.623-.84-2.037-.832-2.583l-.78-9.764c-.115-.863.004-1.502.16-1.942l.149.19a4.43 4.43 0 0 0 1.85 1.364l.655 7.774.034-.001a3.582 3.582 0 0 0-.375 1l-.01.051.035 4.237c-.352-.011-.646-.116-.886-.326zm2.003 9.778l-.115-13.586c.077-.317.583-2.046 2.58-1.882.107 1.05-.111 1.457-.235 1.596a.47.47 0 0 1-.38.156l-.643-.113.834 14.975c.014.08.389 1.898 3.229 1.608.07.186.162.517.234 1.076v.828c-.686.249-2.902.857-4.418-.969-.009-.009-1.016-1.028-1.086-3.689zm3.845 5.995c.038 0 .072-.006.108-.006l-.09 7.738a2.906 2.906 0 0 0-.65.43c-.41.372-.699.852-.872 1.438a6.152 6.152 0 0 1 .067-1.463l.01-.056-.136-8.334a4.898 4.898 0 0 0 1.563.253zm1.315 25.528l-1.848-13.416.047-.048c-.024-.022-.042-.045-.063-.069l-.101-.736c-.05-1.068.187-1.848.708-2.322.48-.436 1.12-.542 1.547-.558-.137 2.334-.508 2.948-.505 2.948l-.156.182 1.172 7.635c-.274.625-.308 1.342-.072 2.145l2.1 4.503c-1.994.411-2.71-.02-2.83-.264zm4.327 6.561c-.237-.792.006-1.769.276-2.496l.926 1.983c.115.335.526.974 1.322 1.24.254.086.525.129.815.129.472 0 .993-.12 1.55-.342l6.902 2.175c.607.353 1.115.472 1.526.472.823-.002 1.253-.477 1.278-.508l.681-1.568.034-.11c.045-.263.08-.534.078-.784l1.806.114-.304 2.013c-.2 1.099-.64 1.866-1.306 2.28-.978.611-2.172.283-2.175.282l-12.558-3.862c-.438-.234-.717-.568-.85-1.018zm14.563 6c-.025.002-2.2.151-3.27-.686l1.818.558c.035.01.467.133 1.067.133.565 0 1.276-.108 1.943-.52.513-.317.924-.77 1.233-1.344l5.234.175-.007.03-.011.092a3.75 3.75 0 0 0 .238 1.48l-8.245.082zm9.042-1.488l.786-3.757.803.05c.086.038.382.211.508.832-.18.544-.443 1.7.13 2.668.482.812 1.411 1.277 2.771 1.381l11.652.602.105-.041c.124-.05.907-.386 1.412-.982h.04l.001-.05c.2-.25.353-.543.38-.885l-.214-.016c.052-.112.111-.213.19-.292.262-.27.595-.277.658-.279l1.34-.115c.113.47.346 1.823-.331 2.977-.52.883-1.483 1.473-2.86 1.758l-14.415-.982c-.123-.012-2.997-.32-2.956-2.869zm24.533 5.798l-5.894.48c-2.266-.152-3.186-.966-3.56-1.544l2.36.16.067-.013c.844-.167 1.567-.436 2.166-.805l.007.088 5.902-.52-1.028 2.41-.02-.256zm-2.6 2.999l.091-.095c.528-.703 1.333-.674 1.668-.627l-.663 1.554c-.009.02-.095.19-.182.443l-3.06 2.884a19.426 19.426 0 0 0-1.817-1.005l3.962-3.154zm-34.16 17.545l-.498-7.54c.998.58 2.348.935 3.863.935 1.682 0 3.162-.437 4.178-1.136l.524 7.943c-.691.621-2.3 1.36-4.009 1.36-1.822 0-3.48-.899-4.059-1.562zm7.394-10.032c0 .884-1.724 1.871-4.029 1.871-2.273 0-3.976-.96-4.023-1.833l-.004-.05c.015-.88 1.73-1.858 4.027-1.858 2.305 0 4.029.987 4.029 1.87zm-40.532-6.465l7.43 1.987.056-.135c.3-.355 7.492-8.687 18.67-5.504.074.018 6.59 1.794 8.404 6.59l-1.063.629a5.753 5.753 0 0 0-1.093.554c-1.288-2.07-5.284-7.058-13.212-5.668-.306.052-5.831.897-10.19 6.29l-11.66-3.33 2.658-1.413zm-.607 26.976l-2.837-24.452 11.93 3.507c.023.05.048.099.079.144l2.54 24.726-11.712-3.925zm26.816-3.116c-4.429-.246-8.36 1.848-13.493 6.733l-2.523-24.685c2.575-4.532 9.224-5.74 9.295-5.753 7.686-1.345 11.005 3.98 11.686 5.267a2.315 2.315 0 0 0-.254 1.043l.002.04c.002.003-.002.007-.002.012l1.302 19.757c-.891-.803-2.901-2.24-6.013-2.414zm11.765 6.843c-2.305 0-4.028-.989-4.028-1.922l-.652-9.908c.98.571 2.346.915 3.902.915 1.69 0 3.148-.405 4.14-1.065l.667 10.109c0 .882-1.723 1.871-4.029 1.871zm16.715-5.175c-3.975-1.8-9.116.13-11.272 1.113l-1.254-19.047c1.944-.75 10.01-3.514 16.387-.533 1.038.474 3.735 2.14 3.753 4.11.015 1.679-1.239 3.372-5.82 5.224l-.09-.017 1.068 11.402a7.041 7.041 0 0 0-2.772-2.252zm5.578 15.696l-2.594-23.538 14.152 2.516 1.24 24.905-12.798-3.883zm17.901 1.066l-3.737 2.716-1.095-25.05 4.045-2.111.787 24.445zM214.782 144.5l-1.746 1.479 10.94 1.796-4.08 1.898-13.129-2.365c3.197-1.794 4.829-3.66 4.81-5.695-.028-3.352-4.47-5.425-4.653-5.508-6.602-3.086-14.507-.66-17.177.33-.154-.689-.625-1.305-1.33-1.793 3.658-1.448 16.955-5.882 25.956 1.947.396.461 3.818 4.664.409 7.911zm2.415-6.119l-.31-.524a10.797 10.797 0 0 0-.377-.805l5.225-4.656v-.232c0-.103-.061-.958-1.443-1.472a.734.734 0 0 1 .123-.254l.067-.074.374-1.005 1.945 1.063c.166.14 1.021.922.77 1.733-.04.131-.109.265-.204.394-.86 1.173-4.803 4.642-6.17 5.832z"/><path d="M121.975 108.806c-7.01 4.968-15.616 7.904-24.927 7.904-10.96 0-20.948-4.058-28.496-10.72-16.873 1.764-28.697 5.86-28.697 10.632 0 6.385 21.169 11.561 47.283 11.561 26.113 0 47.283-5.176 47.283-11.561 0-3.014-4.72-5.757-12.446-7.816"/></g></svg>