<svg width="280" height="200" viewBox="0 0 280 200" xmlns="http://www.w3.org/2000/svg"><title>HIW_06</title><g fill="none" fill-rule="evenodd"><path stroke="#554740" stroke-width="1.966" d="M36.575 100.752L139.86 29.568l103.293 71.184-103.293 71.18z"/><path stroke="#554740" stroke-width=".966" d="M139.861 165.87l-94.487-65.118 94.487-65.119 94.494 65.119z"/><path d="M92.331 103.465v3.038c1.415 0 1.988 0 1.988-1.527 0-1.054-.486-1.511-1.344-1.511h-.644zm0-4.274v2.65c1 0 1.831 0 1.831-1.311 0-.91-.229-1.34-1.216-1.34h-.615zm-1.744 8.822V97.666h1.858c1.203 0 3.462 0 3.462 2.649 0 1.584-.702 2.04-1.087 2.266.543.4 1.259.8 1.259 2.38 0 2.593-1.417 3.052-2.875 3.052h-2.617zM99.971 108.194c-2.174 0-2.631-1.825-2.79-2.877l1.618-.256c.187.742.343 1.596 1.244 1.596.5 0 .973-.386.973-1.025 0-1.825-3.634-2.666-3.634-5.573 0-1.454 1.074-2.58 2.576-2.58 2.188 0 2.544 1.968 2.618 2.61l-1.631.184c-.043-.527-.3-1.268-1.016-1.268-.515 0-.9.37-.9.968 0 1.896 3.645 2.595 3.645 5.559 0 1.494-1.114 2.662-2.703 2.662M176.98 108.012V97.665h5.005v1.567h-3.26v2.68h2.53v1.567h-2.53v4.533zM184.864 99.162v3.049c.202.013.414.028.617.028 1.014 0 1.415-.4 1.415-1.58 0-1.497-.702-1.497-2.032-1.497zm-1.7 8.851V97.664h2.373c1.573 0 3.119.4 3.119 3.079 0 1.654-.66 2.393-1.43 2.722l1.628 4.548h-1.802l-1.301-4.233h-.887v4.233h-1.7zM190.273 108.012V97.665h4.833v1.583h-3.089v2.635h2.389v1.554h-2.389v3.021h3.206v1.554zM196.613 108.012V97.665h4.833v1.583h-3.088v2.635h2.39v1.554h-2.39v3.021h3.206v1.554zM99.934 75.511c-1.012-.382-1.723-.279-2.354.027-1.881.905-2.433 2.943-1.554 4.75.937 1.938 2.884 2.774 4.764 1.869.734-.354 1.28-1.028 1.513-2.088l1.799.303c-.278 1.526-1.277 2.609-2.614 3.252-2.807 1.353-5.737.421-7.114-2.414-1.41-2.912-.324-5.778 2.483-7.128 1.236-.596 2.485-.707 3.89-.102l-.813 1.531zM102.972 71.694l1.704-.575 1.291 3.8 4.478-1.51-1.291-3.801 1.702-.575 3.242 9.54-1.702.575-1.43-4.203-4.476 1.51 1.428 4.205-1.702.574zM121.194 72.979l-2.38-3.68-.69 4.333 3.07-.653zm-3.539-5.616l1.521-.325 6.37 8.94-2.011.428-1.404-2.056-4.285.91-.41 2.444-1.969.419 2.188-10.76zM125.77 65.938l1.787-.217 1.222 9.998-1.785.217zM134.386 69.525c1.012-.027 2.194-.144 2.157-1.452-.033-1.193-1.147-1.304-2.076-1.28l-1.554.043.075 2.727 1.398-.038zm-3.31-4.174l3.507-.096c1.939-.054 3.78.523 3.845 2.781.039 1.449-.775 2.538-2.265 2.793l2.801 4.374-2.167.058-2.455-4.197-1.311.034.115 4.26-1.794.05-.276-10.057zM141.508 65.3l2.737.215 2.134 7.259 3.287-6.834 2.703.215-.79 10.057-1.714-.134.663-8.354-.027-.002-3.729 8.114-1.254-.1-2.406-8.594-.027-.004-.66 8.356-1.713-.135zM160.367 73.611l-.885-4.285-2.213 3.792 3.098.493zm-1.267-6.505l1.533.244 2.71 10.62-2.03-.323-.565-2.422-4.324-.686-1.266 2.13-1.986-.317 5.928-9.246zM167.595 68.573l2.29.684 2.537 8.58.017.035-.02-.008.032-.017 2.157-7.18 1.725.515-2.903 9.663-2.19-.655-2.567-8.843-.027-.008-2.229 7.412-1.725-.514zM180.67 73.24l1.553.78-2.782 2.809-1.367-.686zM188.296 80.976c.05-.66-.31-1.293-.847-1.742-.63-.528-1.503-.774-2.1-.067-1.3 1.548 3.112 3.732.807 6.477-1.394 1.653-3.38 1.365-4.9.097-.962-.802-1.654-1.884-1.66-3.163l1.881-.135a2.373 2.373 0 0 0 .856 2.083c.63.53 1.648.785 2.24.076 1.423-1.688-3.069-3.785-.752-6.542 1.338-1.59 3.385-1.145 4.818.052.807.674 1.426 1.579 1.548 2.647l-1.891.217zM126.675 136.248c-.277-.607-.902-.987-1.592-1.114-.814-.153-1.698.05-1.872.96-.382 1.989 4.555 1.753 3.88 5.28-.408 2.125-2.292 2.842-4.242 2.467-1.236-.23-2.371-.837-3.002-1.96l1.58-1.032c.311.74.982 1.258 1.769 1.406.815.153 1.827-.115 2-1.026.415-2.165-4.541-1.817-3.863-5.36.392-2.04 2.399-2.646 4.24-2.298 1.037.198 2.02.688 2.654 1.563l-1.552 1.114zM130.372 134.606l6.688.424-.104 1.62-4.89-.313-.157 2.474 4.632.292-.104 1.62-4.632-.293-.174 2.73 5.147.324-.104 1.62-6.944-.44zM144.92 141.087l-1.704-4.034-1.432 4.143 3.136-.11zm-2.511-6.14l1.555-.06 4.717 9.903-2.053.077-1.027-2.27-4.374.159-.831 2.337-2.01.071 4.023-10.216zM149.544 134.501l1.781-.265 1.255 8.365 4.253-.637.242 1.607-6.033.9z" fill="#554740"/><g fill="#41352F"><path d="M139.999 86.831c-7.262 0-13.168 5.908-13.168 13.168 0 7.262 5.906 13.17 13.168 13.17s13.168-5.908 13.168-13.17c0-7.26-5.906-13.168-13.168-13.168m0 28.169C131.727 115 125 108.27 125 99.999 125 91.729 131.727 85 139.999 85S155 91.73 155 99.999c0 8.272-6.73 15.001-15.001 15.001"/><path d="M148.571 96.89l-4.128-5.426s-.478-.198-.627.338l-.075.625.86 1.157-.089.32-.127.031-.023.208.305.397s-1.287.852-1.642 1.232l-1.813 1.547-1.287 1.231-1.137-1.085-1.813-1.547c-.355-.382-1.642-1.233-1.642-1.233l.305-.396-.025-.208-.125-.032-.09-.321.861-1.157-.075-.623c-.149-.536-.627-.34-.627-.34l-4.128 5.428c.003.314.19.51.19.51.356.495.691.27.691.27l.959-1.281.24-.098.348.184.09-.042.491-.628c.425.032 2.041 1.118 2.041 1.118.483.298.633.719.633.719.24.674.708 1.041.708 1.041l.91.86-6.572 6.28s-.814.551-.457 1.063c0 0 .492.743 1.553-.022l2.492-2.251 4.177-3.943 4.33 4.087 2.493 2.252c1.061.764 1.553.02 1.553.02.357-.508-.457-1.062-.457-1.062l-6.727-6.425 1.065-1.003s.96-.594 1.198-1.27c0 0-.341-.194.14-.492 0 0 1.62-1.086 2.044-1.116l.49.628.09.04.35-.184.239.098.959 1.281s.335.225.69-.27c0 0 .188-.196.191-.51z"/></g></g></svg>