<svg width="42" height="28" viewBox="0 0 42 28" xmlns="http://www.w3.org/2000/svg" xmlns:xlink="http://www.w3.org/1999/xlink"><title>cc_flag_amex</title><defs><path d="M42 3.589V24.41C42 26.393 40.486 28 38.62 28H3.38C1.513 28 0 26.393 0 24.41V3.59C0 1.606 1.513 0 3.38 0h35.24C40.486 0 42 1.606 42 3.589" id="a"/></defs><g fill="none" fill-rule="evenodd"><path d="M42 24.41c0 1.983-1.514 3.59-3.38 3.59H3.38C1.513 28 0 26.393 0 24.41V3.59C0 1.606 1.513 0 3.38 0h35.24C40.486 0 42 1.606 42 3.589V24.41z" fill="#1995D2"/><path d="M0 13.996h2.015l.454-1.114h1.017l.453 1.114h3.965v-.851l.353.855h2.058l.354-.868v.864h9.852l-.005-1.829h.19c.134.005.173.017.173.242v1.587h5.095v-.426c.41.225 1.05.426 1.892.426h2.143l.459-1.114h1.017l.448 1.114h4.131v-1.058l.626 1.058H40V7h-3.276v.826L36.265 7h-3.361v.826L32.483 7h-4.541c-.76 0-1.428.108-1.968.408V7h-3.133v.408c-.344-.31-.812-.408-1.332-.408H10.062l-.768 1.807L8.504 7H4.9v.826L4.503 7H1.428L0 10.327v3.67zm38.949-.985h-1.671l-2.235-3.765v3.765h-2.402l-.459-1.12h-2.449l-.445 1.12h-1.38c-.573 0-1.299-.129-1.71-.555-.414-.426-.63-1.002-.63-1.915 0-.744.13-1.424.636-1.961.381-.4.978-.585 1.79-.585h1.143v1.074h-1.119c-.43 0-.672.066-.907.298-.2.21-.339.61-.339 1.136 0 .537.105.925.325 1.178.181.199.51.259.82.259h.53l1.663-3.945h1.766l1.997 4.744V7.995h1.795l2.073 3.494V7.995h1.208v5.016zm-15.162 0h1.203V7.995h-1.203v5.016zm-.683-3.666c0 .8-.526 1.214-.832 1.338.259.1.48.276.584.422.166.25.195.472.195.92v.986h-1.19l-.004-.633c0-.302.029-.736-.186-.977-.172-.176-.435-.215-.86-.215h-1.265v1.825h-1.18V7.995h2.713c.603 0 1.046.016 1.428.24.373.224.597.551.597 1.11zm-5.554 3.666h-3.94V7.995h3.94v1.044h-2.76v.904h2.694v1.029h-2.695v1.001h2.76v1.038zm-4.818 0h-1.209l-.005-3.929-1.71 3.929H8.774L7.059 9.079v3.932H4.66l-.453-1.12H1.752l-.457 1.12H.013l2.112-5.016h1.752l2.005 4.75v-4.75h1.925l1.544 3.403 1.417-3.403h1.963v5.016zm19.049-2.165l-.817-2-.81 2h1.627zm-10.22-.796c-.161.1-.353.104-.582.104h-1.433V9.039h1.452c.205 0 .42.01.559.09.153.073.247.23.247.444 0 .22-.09.396-.242.477zm-17.78.796l-.806-2-.803 2h1.61zM23.25 17.65c0 1.392-1.004 1.68-2.016 1.68h-1.445v1.682h-2.25l-1.426-1.66-1.482 1.66h-4.586v-5.015h4.657l1.424 1.644 1.473-1.644h3.7c.919 0 1.95.264 1.95 1.652zm-9.205 2.317h-2.847v-.998h2.543v-1.023h-2.543v-.911h2.903l1.266 1.46-1.322 1.472zm4.591.589l-1.778-2.043 1.778-1.977v4.02zm2.65-2.244h-1.497v-1.277h1.51c.417 0 .708.176.708.614 0 .434-.277.663-.722.663zm7.81-2.315h3.864v1.038h-2.71v.91h2.645v1.024H30.25v.998l2.71.004v1.04h-3.863v-5.014zm-1.462 2.684c.258.099.468.275.567.422.164.244.187.473.192.915v.994h-1.162v-.628c0-.301.028-.748-.188-.981-.169-.18-.427-.223-.85-.223h-1.236v1.832h-1.164v-5.015h2.674c.585 0 1.013.027 1.392.237.366.228.595.541.595 1.114 0 .8-.515 1.208-.82 1.333zm-.7-.624c-.154.095-.346.104-.57.104h-1.407v-1.126h1.425c.206 0 .413.004.553.09.15.081.24.236.24.451 0 .215-.09.388-.24.481zm10.448.31c.225.241.346.546.346 1.062 0 1.08-.651 1.583-1.819 1.583h-2.255v-1.075H35.9c.22 0 .375-.03.473-.125a.452.452 0 0 0 .137-.327.438.438 0 0 0-.141-.331c-.089-.077-.211-.112-.413-.112-1.082-.038-2.438.035-2.438-1.551 0-.728.442-1.493 1.655-1.493h2.321v1.067H35.37c-.21 0-.347.008-.464.09-.126.081-.173.202-.173.361 0 .19.108.318.253.373.122.045.253.058.45.058l.624.017c.628.015 1.06.128 1.322.403zM42 20.371c-.281.425-.83.64-1.57.64h-2.237v-1.074h2.227c.221 0 .376-.03.468-.125a.447.447 0 0 0 .138-.327.42.42 0 0 0-.142-.331c-.084-.077-.206-.112-.408-.112-1.087-.038-2.443.035-2.443-1.551 0-.728.446-1.493 1.66-1.493H42V15h-2.143c-.646 0-1.116.16-1.449.41V15H35.24c-.507 0-1.101.13-1.383.41V15h-5.66v.41c-.45-.337-1.21-.41-1.56-.41h-3.734v.41c-.356-.358-1.148-.41-1.632-.41h-4.178l-.955 1.07L15.24 15H9v6.996h6.124l.984-1.087.928 1.087 3.775.004v-1.646h.372c.5.008 1.09-.013 1.612-.246v1.888h3.113v-1.823h.15c.192 0 .211.008.211.206v1.617h9.457c.601 0 1.229-.159 1.577-.448v.448h3c.624 0 1.234-.09 1.697-.322v-1.303zm0-3.306h-2.11c-.21 0-.35.007-.468.09-.122.081-.17.202-.17.36 0 .19.104.319.253.374.123.045.254.057.447.057l.627.018c.633.015 1.056.128 1.314.403.047.038.075.081.107.124v-1.426z" fill="#FFF"/></g></svg>
