<svg width="42" height="28" viewBox="0 0 42 28" xmlns="http://www.w3.org/2000/svg"><title>cc_flag_mastercard</title><g fill="none" fill-rule="evenodd"><path d="M42 3.589V24.41C42 26.393 40.486 28 38.62 28H3.38C1.513 28 0 26.393 0 24.41V3.59C0 1.606 1.513 0 3.38 0h35.24C40.486 0 42 1.606 42 3.589" fill="#FFF"/><path d="M9.035 14.128c0 4.314 3.411 7.812 7.619 7.812s7.62-3.498 7.62-7.812-3.412-7.811-7.62-7.811-7.62 3.497-7.62 7.811" fill="#ED1C2E"/><path d="M26.816 6.316a7.484 7.484 0 0 0-5.08 1.992c0 .002.002.003.004.004h-.001c.466.429.88.917 1.231 1.45h-2.466c-.3.454-.555.94-.757 1.456h3.978c.183.464.321.95.414 1.455h-4.807a8.002 8.002 0 0 0-.135 1.455h5.077c0 .498-.049.983-.135 1.456h-4.807c.093.503.232.99.415 1.455h3.978a7.798 7.798 0 0 1-.755 1.455h-2.466a7.816 7.816 0 0 0 1.236 1.45.04.04 0 0 0-.006.005h.002a7.486 7.486 0 0 0 5.08 1.991c4.208 0 7.62-3.497 7.62-7.812 0-4.314-3.412-7.812-7.62-7.812" fill="#FCB331"/></g></svg>