<?xml version="1.0" encoding="UTF-8" standalone="no"?>
<svg width="43px" height="31px" viewBox="0 0 43 31" version="1.1" xmlns="http://www.w3.org/2000/svg" xmlns:xlink="http://www.w3.org/1999/xlink">
    <!-- Generator: Sketch 43.2 (39069) - http://www.bohemiancoding.com/sketch -->
    <title>icon-us</title>
    <desc>Created with Sketch.</desc>
    <defs>
        <rect id="path-1" x="0" y="0" width="43" height="31" rx="3.08000001"></rect>
        <linearGradient x1="50%" y1="0%" x2="50%" y2="100%" id="linearGradient-3">
            <stop stop-color="#FFFFFF" offset="0%"></stop>
            <stop stop-color="#F0F0F0" offset="100%"></stop>
        </linearGradient>
        <path d="M3.07142857,4.13333333 C2.50599418,4.13333333 2.04761905,3.67069424 2.04761905,3.1 C2.04761905,2.52930576 2.50599418,2.06666667 3.07142857,2.06666667 C3.63686296,2.06666667 4.0952381,2.52930576 4.0952381,3.1 C4.0952381,3.67069424 3.63686296,4.13333333 3.07142857,4.13333333 Z M7.16666667,4.13333333 C6.60123228,4.13333333 6.14285714,3.67069424 6.14285714,3.1 C6.14285714,2.52930576 6.60123228,2.06666667 7.16666667,2.06666667 C7.73210105,2.06666667 8.19047619,2.52930576 8.19047619,3.1 C8.19047619,3.67069424 7.73210105,4.13333333 7.16666667,4.13333333 Z M11.2619048,4.13333333 C10.6964704,4.13333333 10.2380952,3.67069424 10.2380952,3.1 C10.2380952,2.52930576 10.6964704,2.06666667 11.2619048,2.06666667 C11.8273391,2.06666667 12.2857143,2.52930576 12.2857143,3.1 C12.2857143,3.67069424 11.8273391,4.13333333 11.2619048,4.13333333 Z M15.3571429,4.13333333 C14.7917085,4.13333333 14.3333333,3.67069424 14.3333333,3.1 C14.3333333,2.52930576 14.7917085,2.06666667 15.3571429,2.06666667 C15.9225772,2.06666667 16.3809524,2.52930576 16.3809524,3.1 C16.3809524,3.67069424 15.9225772,4.13333333 15.3571429,4.13333333 Z M5.11904762,6.2 C4.55361323,6.2 4.0952381,5.73736091 4.0952381,5.16666667 C4.0952381,4.59597243 4.55361323,4.13333333 5.11904762,4.13333333 C5.68448201,4.13333333 6.14285714,4.59597243 6.14285714,5.16666667 C6.14285714,5.73736091 5.68448201,6.2 5.11904762,6.2 Z M9.21428571,6.2 C8.64885133,6.2 8.19047619,5.73736091 8.19047619,5.16666667 C8.19047619,4.59597243 8.64885133,4.13333333 9.21428571,4.13333333 C9.7797201,4.13333333 10.2380952,4.59597243 10.2380952,5.16666667 C10.2380952,5.73736091 9.7797201,6.2 9.21428571,6.2 Z M13.3095238,6.2 C12.7440894,6.2 12.2857143,5.73736091 12.2857143,5.16666667 C12.2857143,4.59597243 12.7440894,4.13333333 13.3095238,4.13333333 C13.8749582,4.13333333 14.3333333,4.59597243 14.3333333,5.16666667 C14.3333333,5.73736091 13.8749582,6.2 13.3095238,6.2 Z M15.3571429,8.26666667 C14.7917085,8.26666667 14.3333333,7.80402757 14.3333333,7.23333333 C14.3333333,6.66263909 14.7917085,6.2 15.3571429,6.2 C15.9225772,6.2 16.3809524,6.66263909 16.3809524,7.23333333 C16.3809524,7.80402757 15.9225772,8.26666667 15.3571429,8.26666667 Z M11.2619048,8.26666667 C10.6964704,8.26666667 10.2380952,7.80402757 10.2380952,7.23333333 C10.2380952,6.66263909 10.6964704,6.2 11.2619048,6.2 C11.8273391,6.2 12.2857143,6.66263909 12.2857143,7.23333333 C12.2857143,7.80402757 11.8273391,8.26666667 11.2619048,8.26666667 Z M7.16666667,8.26666667 C6.60123228,8.26666667 6.14285714,7.80402757 6.14285714,7.23333333 C6.14285714,6.66263909 6.60123228,6.2 7.16666667,6.2 C7.73210105,6.2 8.19047619,6.66263909 8.19047619,7.23333333 C8.19047619,7.80402757 7.73210105,8.26666667 7.16666667,8.26666667 Z M3.07142857,8.26666667 C2.50599418,8.26666667 2.04761905,7.80402757 2.04761905,7.23333333 C2.04761905,6.66263909 2.50599418,6.2 3.07142857,6.2 C3.63686296,6.2 4.0952381,6.66263909 4.0952381,7.23333333 C4.0952381,7.80402757 3.63686296,8.26666667 3.07142857,8.26666667 Z M5.11904762,10.3333333 C4.55361323,10.3333333 4.0952381,9.87069424 4.0952381,9.3 C4.0952381,8.72930576 4.55361323,8.26666667 5.11904762,8.26666667 C5.68448201,8.26666667 6.14285714,8.72930576 6.14285714,9.3 C6.14285714,9.87069424 5.68448201,10.3333333 5.11904762,10.3333333 Z M9.21428571,10.3333333 C8.64885133,10.3333333 8.19047619,9.87069424 8.19047619,9.3 C8.19047619,8.72930576 8.64885133,8.26666667 9.21428571,8.26666667 C9.7797201,8.26666667 10.2380952,8.72930576 10.2380952,9.3 C10.2380952,9.87069424 9.7797201,10.3333333 9.21428571,10.3333333 Z M13.3095238,10.3333333 C12.7440894,10.3333333 12.2857143,9.87069424 12.2857143,9.3 C12.2857143,8.72930576 12.7440894,8.26666667 13.3095238,8.26666667 C13.8749582,8.26666667 14.3333333,8.72930576 14.3333333,9.3 C14.3333333,9.87069424 13.8749582,10.3333333 13.3095238,10.3333333 Z M15.3571429,12.4 C14.7917085,12.4 14.3333333,11.9373609 14.3333333,11.3666667 C14.3333333,10.7959724 14.7917085,10.3333333 15.3571429,10.3333333 C15.9225772,10.3333333 16.3809524,10.7959724 16.3809524,11.3666667 C16.3809524,11.9373609 15.9225772,12.4 15.3571429,12.4 Z M11.2619048,12.4 C10.6964704,12.4 10.2380952,11.9373609 10.2380952,11.3666667 C10.2380952,10.7959724 10.6964704,10.3333333 11.2619048,10.3333333 C11.8273391,10.3333333 12.2857143,10.7959724 12.2857143,11.3666667 C12.2857143,11.9373609 11.8273391,12.4 11.2619048,12.4 Z M7.16666667,12.4 C6.60123228,12.4 6.14285714,11.9373609 6.14285714,11.3666667 C6.14285714,10.7959724 6.60123228,10.3333333 7.16666667,10.3333333 C7.73210105,10.3333333 8.19047619,10.7959724 8.19047619,11.3666667 C8.19047619,11.9373609 7.73210105,12.4 7.16666667,12.4 Z M3.07142857,12.4 C2.50599418,12.4 2.04761905,11.9373609 2.04761905,11.3666667 C2.04761905,10.7959724 2.50599418,10.3333333 3.07142857,10.3333333 C3.63686296,10.3333333 4.0952381,10.7959724 4.0952381,11.3666667 C4.0952381,11.9373609 3.63686296,12.4 3.07142857,12.4 Z" id="path-4"></path>
        <filter x="-3.5%" y="-4.8%" width="107.0%" height="119.4%" filterUnits="objectBoundingBox" id="filter-5">
            <feOffset dx="0" dy="1" in="SourceAlpha" result="shadowOffsetOuter1"></feOffset>
            <feColorMatrix values="0 0 0 0 0   0 0 0 0 0   0 0 0 0 0  0 0 0 0.06 0" type="matrix" in="shadowOffsetOuter1"></feColorMatrix>
        </filter>
    </defs>
    <g id="IMAGES" stroke="none" stroke-width="1" fill="none" fill-rule="evenodd">
        <g id="icon-us">
            <g id="US">
                <mask id="mask-2" fill="white">
                    <use xlink:href="#path-1"></use>
                </mask>
                <use id="Mask" fill="#FFFFFF" xlink:href="#path-1"></use>
                <path d="M0,0 L43,0 L43,2.06666667 L0,2.06666667 L0,0 Z M0,4.13333333 L43,4.13333333 L43,6.2 L0,6.2 L0,4.13333333 Z M0,8.26666667 L43,8.26666667 L43,10.3333333 L0,10.3333333 L0,8.26666667 Z M0,12.4 L43,12.4 L43,14.4666667 L0,14.4666667 L0,12.4 Z M0,16.5333333 L43,16.5333333 L43,18.6 L0,18.6 L0,16.5333333 Z M0,20.6666667 L43,20.6666667 L43,22.7333333 L0,22.7333333 L0,20.6666667 Z M0,24.8 L43,24.8 L43,26.8666667 L0,26.8666667 L0,24.8 Z M0,28.9333333 L43,28.9333333 L43,31 L0,31 L0,28.9333333 Z" id="Rectangle-511" fill="#D02F44" mask="url(#mask-2)"></path>
                <rect id="Rectangle-511" fill="#46467F" mask="url(#mask-2)" x="0" y="0" width="18.4285714" height="14.4666667"></rect>
                <g id="Oval-43" mask="url(#mask-2)">
                    <use fill="black" fill-opacity="1" filter="url(#filter-5)" xlink:href="#path-4"></use>
                    <use fill="url(#linearGradient-3)" fill-rule="evenodd" xlink:href="#path-4"></use>
                </g>
            </g>
        </g>
    </g>
</svg>