<?xml version="1.0" encoding="UTF-8" standalone="no"?>
<svg width="42px" height="28px" viewBox="0 0 42 28" version="1.1" xmlns="http://www.w3.org/2000/svg" xmlns:xlink="http://www.w3.org/1999/xlink">
    <!-- Generator: Sketch 40.1 (33804) - http://www.bohemiancoding.com/sketch -->
    <title>cc_flag_discover</title>
    <desc>Created with Sketch.</desc>
    <defs>
        <path d="M42,24.4106781 C42,26.3929525 40.4863723,28 38.6200342,28 L3.37996581,28 C1.51292366,28 0,26.3929525 0,24.4106781 L0,3.58857448 C0,1.60630005 1.51292366,0 3.37996581,0 L38.6200342,0 C40.4863723,0 42,1.60630005 42,3.58857448 L42,24.4106781 Z" id="path-1"></path>
        <path d="M0.433571429,2.36833333 C0.433571429,3.60522727 1.34642857,4.53015152 2.565,4.53015152 L2.565,4.53015152 C3.75285714,4.53015152 4.69071429,3.5935101 4.69071429,2.3925 L4.69071429,2.3925 C4.69071429,1.19954545 3.75928571,0.26290404 2.565,0.26290404 L2.565,0.26290404 C1.38785714,0.26290404 0.433571429,1.20540404 0.433571429,2.36833333 L0.433571429,2.36833333 Z" id="path-3"></path>
    </defs>
    <g id="3_IMAGES" stroke="none" stroke-width="1" fill="none" fill-rule="evenodd">
        <g id="cc_flag_discover">
            <mask id="mask-2" fill="white">
                <use xlink:href="#path-1"></use>
            </mask>
            <use id="Fill-1" fill="#FFFFFF" xlink:href="#path-1"></use>
            <path d="M38.7306084,28 C40.5494852,27.9075018 42,26.392571 42,24.5207575 L42,17 C42,17 31.4049354,24.5972323 12,28 L38.7306084,28 Z" id="Fill-4" fill="#F6821F" mask="url(#mask-2)"></path>
            <g id="Group-526" mask="url(#mask-2)">
                <g transform="translate(19.000000, 11.053967)">
                    <mask id="mask-4" fill="white">
                        <use xlink:href="#path-3"></use>
                    </mask>
                    <use id="Clip-525" stroke="none" fill="#FFD5AB" fill-rule="evenodd" xlink:href="#path-3"></use>
                </g>
            </g>
            <g id="Group-536" mask="url(#mask-2)" fill="#001722">
                <g transform="translate(7.714286, 10.336795)">
                    <path d="M1.74842857,1.05660354 L0.602,1.05660354 L0.602,5.15468434 L1.74271429,5.15468434 C2.347,5.15468434 2.78485714,5.0082197 3.16842857,4.68233586 C3.62414286,4.29493687 3.89414286,3.71127525 3.89414286,3.10784091 C3.89414286,1.89804293 3.012,1.05660354 1.74842857,1.05660354 Z M2.65985714,4.13455808 C2.41342857,4.36231061 2.09628571,4.46117424 1.592,4.46117424 L1.38271429,4.46117424 L1.38271429,1.75084596 L1.592,1.75084596 C2.09628571,1.75084596 2.40128571,1.84311869 2.65985714,2.08258838 C2.92985714,2.32791667 3.09057143,2.70872475 3.09057143,3.10198232 C3.09057143,3.49597222 2.92985714,3.88996212 2.65985714,4.13455808 Z" id="Fill-527"></path>
                    <polygon id="Fill-529" points="4.25357143 5.15505051 5.03214286 5.15505051 5.03214286 1.0569697 4.25357143 1.0569697"></polygon>
                    <path d="M6.93957143,2.62868182 C6.47171429,2.45072727 6.33385714,2.33355556 6.33385714,2.11312626 C6.33385714,1.85461616 6.57885714,1.65835354 6.91528571,1.65835354 C7.14885714,1.65835354 7.341,1.75648485 7.54528571,1.98936364 L7.95242857,1.44378283 C7.61671429,1.14133333 7.21528571,0.988277778 6.77671429,0.988277778 C6.07028571,0.988277778 5.53028571,1.49211616 5.53028571,2.1614596 C5.53028571,2.72754545 5.78242857,3.01608081 6.51385714,3.2870404 C6.81957143,3.39688889 6.97528571,3.47085354 7.05314286,3.52065152 C7.20885714,3.62537374 7.28742857,3.77183838 7.28742857,3.94393434 C7.28742857,4.27640909 7.02885714,4.52173737 6.681,4.52173737 C6.30957143,4.52173737 6.01028571,4.33133333 5.83028571,3.97542424 L5.32742857,4.47340404 C5.686,5.01385859 6.11742857,5.25406061 6.71171429,5.25406061 C7.521,5.25406061 8.09028571,4.70042424 8.09028571,3.90731818 C8.09028571,3.25628283 7.82671429,2.96115657 6.93957143,2.62868182" id="Fill-531"></path>
                    <path d="M8.33571429,3.10776768 C8.33571429,4.31390404 9.25928571,5.24761616 10.4464286,5.24761616 C10.7821429,5.24761616 11.0692857,5.1795101 11.4235714,5.00814646 L11.4235714,4.06711111 C11.1114286,4.38713636 10.8357143,4.51602525 10.4821429,4.51602525 C9.69642857,4.51602525 9.13928571,3.93163131 9.13928571,3.10190909 C9.13928571,2.31539394 9.71428571,1.69511616 10.4464286,1.69511616 C10.8171429,1.69511616 11.0992857,1.82986364 11.4235714,2.15574747 L11.4235714,1.21471212 C11.0821429,1.0374899 10.8,0.964257576 10.4642857,0.964257576 C9.28285714,0.964257576 8.33571429,1.9170101 8.33571429,3.10776768" id="Fill-532"></path>
                    <polygon id="Fill-533" points="17.741 3.80962626 16.6738571 1.05682323 15.8224286 1.05682323 17.5195714 5.25962626 17.9388571 5.25962626 19.6652857 1.05682323 18.821 1.05682323"></polygon>
                    <polygon id="Fill-534" points="20.02 5.15497727 22.2314286 5.15497727 22.2314286 4.46146717 20.7992857 4.46146717 20.7992857 3.35419444 22.1771429 3.35419444 22.1771429 2.65995202 20.7992857 2.65995202 20.7992857 1.75040657 22.2314286 1.75040657 22.2314286 1.05689646 20.02 1.05689646"></polygon>
                    <path d="M25.3179286,2.26618182 C25.3179286,1.49870707 24.8029286,1.05638384 23.9036429,1.05638384 L22.7465,1.05638384 L22.7465,5.15519697 L23.5265,5.15519697 L23.5265,3.5074697 L23.6286429,3.5074697 L24.7072143,5.15519697 L25.6657857,5.15519697 L24.4065,3.42837879 C24.9950714,3.30534848 25.3179286,2.89305051 25.3179286,2.26618182 M23.7536429,2.94284848 L23.5265,2.94284848 L23.5265,1.70082828 L23.7657857,1.70082828 C24.2522143,1.70082828 24.5157857,1.91100505 24.5157857,2.30938889 C24.5157857,2.72095455 24.2522143,2.94284848 23.7536429,2.94284848" id="Fill-535"></path>
                </g>
            </g>
        </g>
    </g>
</svg>
