<svg width="42" height="28" viewBox="0 0 42 28" xmlns="http://www.w3.org/2000/svg" xmlns:xlink="http://www.w3.org/1999/xlink"><title>cc_flag_paypal</title><defs><path d="M42 3.589V24.41C42 26.393 40.486 28 38.62 28H3.38C1.513 28 0 26.393 0 24.41V3.59C0 1.606 1.513 0 3.38 0h35.24C40.486 0 42 1.606 42 3.589" id="a"/></defs><g fill="none" fill-rule="evenodd"><mask id="b" fill="#fff"><use xlink:href="#a"/></mask><use fill="#FFF" xlink:href="#a"/><g mask="url(#b)"><path d="M26.755 6.57c.172-1.088-.002-1.828-.594-2.499-.652-.737-1.83-1.054-3.338-1.054h-4.377a.624.624 0 0 0-.619.525l-1.822 11.475a.374.374 0 0 0 .37.431h2.703l-.187 1.174a.327.327 0 0 0 .325.377h2.278c.269 0 .499-.194.54-.458l.023-.115.429-2.702.028-.149a.547.547 0 0 1 .54-.46h.341c2.207 0 3.934-.89 4.44-3.463.21-1.076.101-1.974-.457-2.605a2.166 2.166 0 0 0-.623-.477" fill="#009DDC"/><path d="M26.874 6.662c.174-1.114-.001-1.872-.6-2.56-.66-.755-1.851-1.079-3.375-1.079h-4.426a.634.634 0 0 0-.625.538l-1.843 11.752a.381.381 0 0 0 .375.442h2.732l.686-4.377-.021.138a.632.632 0 0 1 .623-.538h1.299c2.55 0 4.547-1.042 5.13-4.056.017-.09.032-.175.045-.26" fill="#201C6F"/><path d="M20.513 6.615a.551.551 0 0 1 .544-.465h3.452c.409 0 .79.027 1.139.083a5.086 5.086 0 0 1 .564.125l.131.04c.171.058.33.125.477.203.173-1.103-.001-1.853-.597-2.532C25.567 3.32 24.38 3 22.863 3H18.46a.63.63 0 0 0-.622.532l-1.833 11.63a.378.378 0 0 0 .373.438h2.718l.683-4.332.734-4.653z" fill="#1C3587"/></g><g mask="url(#b)"><path d="M25.064 20.697c-.093.596-.559.596-1.01.596h-.257l.18-1.114a.14.14 0 0 1 .14-.117h.118c.307 0 .597 0 .747.171.089.103.116.254.082.464m-.196-1.557h-1.7a.235.235 0 0 0-.234.195l-.688 4.262a.14.14 0 0 0 .14.16h.873c.081 0 .15-.058.163-.136l.195-1.209a.235.235 0 0 1 .233-.195h.539c1.12 0 1.767-.53 1.936-1.58.076-.459.003-.82-.218-1.072-.241-.278-.67-.425-1.239-.425" fill="#009DDC"/><path d="M12.933 20.697c-.093.596-.56.596-1.01.596h-.257l.18-1.114a.14.14 0 0 1 .14-.117h.118c.307 0 .597 0 .746.171.09.103.117.254.083.464m-.196-1.557h-1.701a.234.234 0 0 0-.233.195l-.688 4.262a.14.14 0 0 0 .14.16h.812a.234.234 0 0 0 .233-.195l.186-1.15a.235.235 0 0 1 .233-.195h.539c1.12 0 1.766-.53 1.936-1.58.075-.459.003-.82-.217-1.072-.242-.278-.671-.425-1.24-.425M16.686 22.227c-.079.455-.449.76-.92.76-.236 0-.425-.074-.547-.215-.12-.14-.166-.338-.127-.559a.905.905 0 0 1 .913-.766c.23 0 .419.075.542.217a.673.673 0 0 1 .139.563m1.135-1.55h-.815a.14.14 0 0 0-.14.118l-.036.222-.057-.08c-.176-.25-.57-.334-.962-.334-.9 0-1.668.666-1.818 1.6-.078.467.033.913.303 1.224.249.285.604.404 1.026.404.726 0 1.128-.455 1.128-.455l-.037.221a.14.14 0 0 0 .14.16h.734a.235.235 0 0 0 .233-.195l.44-2.724a.14.14 0 0 0-.14-.16" fill="#1C3587"/><path d="M28.817 22.227c-.079.455-.448.76-.92.76-.236 0-.425-.074-.546-.215-.121-.14-.166-.338-.128-.559a.905.905 0 0 1 .913-.766c.23 0 .419.075.542.217a.673.673 0 0 1 .139.563m1.135-1.55h-.815a.14.14 0 0 0-.14.118l-.036.222-.057-.08c-.176-.25-.57-.334-.962-.334-.9 0-1.668.666-1.818 1.6-.077.467.033.913.304 1.224.248.285.603.404 1.025.404.726 0 1.128-.455 1.128-.455l-.036.221a.14.14 0 0 0 .14.16h.733a.235.235 0 0 0 .233-.195l.44-2.724a.14.14 0 0 0-.14-.16" fill="#009DDC"/><path d="M22.158 20.678h-.818a.238.238 0 0 0-.196.1l-1.129 1.626-.479-1.562a.236.236 0 0 0-.226-.164h-.805a.139.139 0 0 0-.134.183l.901 2.586-.847 1.169a.138.138 0 0 0 .115.218h.818c.078 0 .15-.037.195-.1l2.722-3.839c.065-.092-.002-.217-.117-.217" fill="#1C3587"/><path d="M30.912 19.257l-.699 4.34a.14.14 0 0 0 .14.16h.703a.235.235 0 0 0 .233-.195l.688-4.262a.14.14 0 0 0-.14-.16h-.785a.14.14 0 0 0-.14.117" fill="#009DDC"/></g></g></svg>