<?xml version="1.0" encoding="UTF-8" standalone="no"?>
<svg width="228px" height="168px" viewBox="0 0 228 168" version="1.1" xmlns="http://www.w3.org/2000/svg" xmlns:xlink="http://www.w3.org/1999/xlink">
    <!-- Generator: Sketch 45.1 (43504) - http://www.bohemiancoding.com/sketch -->
    <title>general-questions-intro</title>
    <desc>Created with Sketch.</desc>
    <defs></defs>
    <g id="IMGS" stroke="none" stroke-width="1" fill="none" fill-rule="evenodd">
        <g id="general-questions-intro">
            <g id="Page-1" transform="translate(19.000000, 10.000000)">
                <path d="M168.338983,74.0972973 L168.338983,114.86117 C168.338983,120.815928 163.628471,125.643243 157.817797,125.643243 L157.817797,125.643243" id="Stroke-1" stroke="#403329" stroke-width="1.61999991" stroke-linecap="round" stroke-linejoin="round"></path>
                <path d="M179.39194,57.9891892 C185.355902,57.9891892 190.190678,62.7939331 190.190678,68.7208485 L145.169527,68.7208485 C145.169527,62.7939331 140.334751,57.9891892 134.370789,57.9891892 C128.406828,57.9891892 123.572052,62.7939331 123.572052,68.7208485 L123.572052,114.911584 C123.572052,120.838499 118.737276,125.643243 112.773314,125.643243 C106.809352,125.643243 101.974576,120.838499 101.974576,114.911584 L123.572052,114.911584" id="Stroke-3" stroke="#403329" stroke-width="1.61999991" stroke-linecap="round" stroke-linejoin="round"></path>
                <path d="M112.495763,125.643243 L157.817797,125.643243" id="Stroke-5" stroke="#403329" stroke-width="1.61999991" stroke-linecap="round" stroke-linejoin="round"></path>
                <path d="M174.004237,57.9891892 L134.347458,57.9891892" id="Stroke-7" stroke="#403329" stroke-width="1.61999991" stroke-linecap="round" stroke-linejoin="round"></path>
                <path d="M131.110169,78.1243243 L160.245763,78.1243243" id="Stroke-9" stroke="#A29C98" stroke-width="1.61999991" stroke-linecap="round" stroke-linejoin="round"></path>
                <path d="M131.110169,90.2054054 L160.245763,90.2054054" id="Stroke-11" stroke="#A29C98" stroke-width="1.61999991" stroke-linecap="round" stroke-linejoin="round"></path>
                <path d="M131.110169,101.481081 L160.245763,101.481081" id="Stroke-13" stroke="#A29C98" stroke-width="1.61999991" stroke-linecap="round" stroke-linejoin="round"></path>
                <path d="M131.110169,113.562162 L152.961864,113.562162" id="Stroke-15" stroke="#A29C98" stroke-width="1.61999991" stroke-linecap="round" stroke-linejoin="round"></path>
                <path d="M108.449153,142.154054 C105.443255,140.91461 104.434031,139.91027 103.188559,136.918919 C101.943088,139.91027 100.933864,140.91461 97.9279661,142.154054 C100.933864,143.393498 101.943088,144.397838 103.188559,147.389189 C104.434031,144.397838 105.443255,143.393498 108.449153,142.154054 Z" id="Stroke-17" stroke="#A29C98" stroke-width="1.61999991" stroke-linecap="round" stroke-linejoin="round"></path>
                <path d="M15.3771186,26.9810811 C12.3710654,25.7420356 11.3611666,24.7371317 10.1159625,21.7459459 C8.8707584,24.7371317 7.86198547,25.7420356 4.8559322,26.9810811 C7.86198547,28.2201265 8.8707584,29.2250305 10.1159625,32.2162162 C11.3611666,29.2250305 12.3710654,28.2201265 15.3771186,26.9810811 Z" id="Stroke-19" stroke="#A29C98" stroke-width="1.61999991" stroke-linecap="round" stroke-linejoin="round"></path>
                <path d="M0.809322034,110.363381 L0.809322034,130.323337 C0.809322034,133.004426 2.98931475,135.17861 5.68003599,135.17861 L74.6073819,135.17861 L81.7675304,139.727536 C83.5075448,140.833912 85.7881356,139.587586 85.7881356,137.530211 L85.7881356,135.17861 L85.7881356,110.363381 C85.7881356,107.682292 83.6070374,105.508108 80.9174216,105.508108 L5.68003599,105.508108 C2.98931475,105.508108 0.809322034,107.682292 0.809322034,110.363381 Z" id="Stroke-21" stroke="#403329" stroke-width="1.61999991" stroke-linecap="round" stroke-linejoin="round"></path>
                <path d="M180.478814,19.2985485 L180.478814,34.5893242 C180.478814,37.2405825 178.298713,39.3905754 175.607858,39.3905754 L132.579613,39.3905754 L125.41911,43.888888 C123.679009,44.9829543 121.398305,43.7504951 121.398305,41.7160112 L121.398305,39.3905754 L121.398305,19.2985485 C121.398305,16.6472902 123.579511,14.4972973 126.26926,14.4972973 L175.607858,14.4972973 C178.298713,14.4972973 180.478814,16.6472902 180.478814,19.2985485 Z" id="Stroke-23" stroke="#403329" stroke-width="1.61999991" stroke-linecap="round" stroke-linejoin="round"></path>
                <path d="M66.6778336,27.0475242 C68.0131586,24.7802546 68.7923729,22.1476845 68.7923729,19.3302766 C68.7923729,10.878053 61.9080309,4.02702703 53.4158038,4.02702703 C44.9224776,4.02702703 38.0381356,10.878053 38.0381356,19.3302766 C38.0381356,27.7814065 44.9224776,34.6324324 53.4158038,34.6324324 C56.0249078,34.6324324 58.4801473,33.9805787 60.6331527,32.8387411 L68.294511,34.4880622 L66.6778336,27.0475242 Z" id="Stroke-25" stroke="#403329" stroke-width="1.61999991" stroke-linecap="round" stroke-linejoin="round"></path>
                <path d="M105.388146,93.427027 C107.972862,93.427027 110.067797,91.3397953 110.067797,88.7645817 L110.067797,60.6368607 L110.067797,46.0872365 L110.067797,44.9327156 C110.067797,42.358611 107.972862,40.2702703 105.388146,40.2702703 L85.7411812,40.2702703 C84.2451177,40.2702703 82.8392188,40.9833893 81.9587231,42.1878174 L80.5105248,44.1696894 C79.6300291,45.3741174 78.2241302,46.0872365 76.7280667,46.0872365 L61.3321933,46.0872365 C58.7474765,46.0872365 56.6525424,48.1744682 56.6525424,50.7496818 L56.6525424,53.1851552" id="Stroke-27" stroke="#403329" stroke-width="1.61999991" stroke-linecap="round" stroke-linejoin="round"></path>
                <path d="M54.7560723,57.1837838 L98.9064917,57.1837838 C101.066399,57.1837838 102.931925,58.6935011 103.382417,60.8037628 L109.156294,87.9017959 C109.762896,90.7474181 107.591838,93.427027 104.680368,93.427027 L60.529949,93.427027 C58.3700418,93.427027 56.5045155,91.9173097 56.0540237,89.8059338 L50.2801471,62.7090149 C49.6735444,59.8633927 51.8446023,57.1837838 54.7560723,57.1837838 Z" id="Stroke-29" stroke="#403329" stroke-width="1.61999991" stroke-linecap="round" stroke-linejoin="round"></path>
                <path d="M155.389831,27.3837838 L131.919492,27.3837838" id="Stroke-31" stroke="#A29C98" stroke-width="1.61999991" stroke-linecap="round" stroke-linejoin="round"></path>
                <path d="M170.766949,27.3837838 L162.673729,27.3837838" id="Stroke-33" stroke="#A29C98" stroke-width="1.61999991" stroke-linecap="round" stroke-linejoin="round"></path>
                <path d="M105.211864,19.7324324 C105.211864,17.731415 103.581491,16.1081081 101.569382,16.1081081 C99.5583395,16.1081081 97.9279661,17.731415 97.9279661,19.7324324 C97.9279661,21.7334499 99.5583395,23.3567568 101.569382,23.3567568 C103.581491,23.3567568 105.211864,21.7334499 105.211864,19.7324324 Z" id="Stroke-35" stroke="#A29C98" stroke-width="1.61999991" stroke-linecap="round" stroke-linejoin="round"></path>
                <path d="M72.8389831,68.3650261 C72.8389831,68.3650261 73.6103581,66.0432432 77.2741153,66.0432432 C80.1291906,66.0432432 82.5508475,67.9305656 82.5508475,70.0641539 C82.5508475,72.7150084 79.1186125,74.3571402 78.9222026,76.4907285 C78.9222026,76.4907285 78.6950694,77.8726141 79.2974661,78.9297297" id="Stroke-37" stroke="#A29C98" stroke-width="1.61999991" stroke-linecap="round" stroke-linejoin="round"></path>
                <path d="M30.7542373,120.810811 L74.4576271,120.810811" id="Stroke-41" stroke="#A29C98" stroke-width="1.61999991" stroke-linecap="round" stroke-linejoin="round"></path>
                <path d="M12.1398305,120.810811 L22.6610169,120.810811" id="Stroke-43" stroke="#A29C98" stroke-width="1.61999991" stroke-linecap="round" stroke-linejoin="round"></path>
                <path d="M31.5635593,13.4567135 L28.3262712,12.8864865" id="Stroke-45" stroke="#A29C98" stroke-width="1.61999991" stroke-linecap="round" stroke-linejoin="round"></path>
                <path d="M34.8008475,6.44324324 L26.7076271,0.805405405" id="Stroke-47" stroke="#A29C98" stroke-width="1.61999991" stroke-linecap="round" stroke-linejoin="round"></path>
                <path d="M54.2245763,18.927027 C54.2245763,18.2596447 53.6810018,17.7189189 53.0101035,17.7189189 C52.3401847,17.7189189 51.7966102,18.2596447 51.7966102,18.927027 C51.7966102,19.5944093 52.3401847,20.1351351 53.0101035,20.1351351 C53.6810018,20.1351351 54.2245763,19.5944093 54.2245763,18.927027" id="Fill-49" fill="#A29C98"></path>
                <path d="M61.5084746,18.927027 C61.5084746,18.2596447 60.9649001,17.7189189 60.2940018,17.7189189 C59.624083,17.7189189 59.0805085,18.2596447 59.0805085,18.927027 C59.0805085,19.5944093 59.624083,20.1351351 60.2940018,20.1351351 C60.9649001,20.1351351 61.5084746,19.5944093 61.5084746,18.927027" id="Fill-51" fill="#A29C98"></path>
                <path d="M47.75,18.927027 C47.75,18.2596447 47.2064255,17.7189189 46.5355272,17.7189189 C45.8656084,17.7189189 45.3220339,18.2596447 45.3220339,18.927027 C45.3220339,19.5944093 45.8656084,20.1351351 46.5355272,20.1351351 C47.2064255,20.1351351 47.75,19.5944093 47.75,18.927027" id="Fill-53" fill="#A29C98"></path>
                <polygon id="Stroke-55" stroke="#403329" stroke-width="1.61999991" stroke-linecap="round" stroke-linejoin="round" points="13.7584746 62.0162162 28.3262712 62.0162162 28.3262712 47.5189189 13.7584746 47.5189189"></polygon>
                <polyline id="Stroke-57" stroke="#A29C98" stroke-width="1.61999991" stroke-linecap="round" stroke-linejoin="round" points="17.8050847 83.8611511 20.9588751 86.9837838 37.2288136 70.8756757"></polyline>
                <polyline id="Stroke-58" stroke="#403329" stroke-width="1.61999991" stroke-linecap="round" stroke-linejoin="round" points="28.3262712 85.372973 28.3262712 92.6216216 13.7584746 92.6216216 13.7584746 78.1243243 24.9441493 78.1243243"></polyline>
            </g>
        </g>
    </g>
</svg>